<svg width="248" height="158" viewBox="0 0 248 158" fill="none" xmlns="http://www.w3.org/2000/svg">
<g opacity="0.2">
<path d="M1 5.59821C1 5.59821 4.89292 29.9633 38.4178 24.0552C71.9427 18.1471 98.7809 14.8038 131.023 36.6957C163.266 58.5877 187.265 89.1814 156.625 101.776C125.986 114.371 193.722 142.904 215.477 107.089C237.277 71.274 240.483 157.559 240.483 157.559" stroke="#224E9C" stroke-width="0.2415" stroke-miterlimit="10"/>
<path d="M6.12939 5.46075C6.12939 5.46075 10.1139 29.0015 42.8602 23.3682C75.6065 17.7349 101.941 14.5748 133.359 36.0545C149.664 47.1837 163.77 60.6028 169.357 72.7853C174.532 83.9603 172.517 93.9445 158.274 99.99C128.688 112.493 194.547 140.385 215.935 105.715C237.277 70.9992 240.712 154.353 240.712 154.033" stroke="#224E9C" stroke-width="0.2415" stroke-miterlimit="10"/>
<path d="M11.2131 5.32343C11.2131 5.32343 15.2892 28.0855 47.2112 22.6813C79.2247 17.277 105.101 14.3458 135.695 35.3676C151.541 46.2678 165.189 59.4579 170.594 71.4114C175.54 82.4032 173.616 92.1126 159.877 98.0665C131.344 110.478 195.371 137.728 216.301 104.204C237.277 70.7244 240.849 151.102 240.849 150.461" stroke="#224E9C" stroke-width="0.2415" stroke-miterlimit="10"/>
<path d="M16.2969 5.18604C16.2969 5.18604 20.5104 27.1696 51.6079 21.9485C82.8429 16.7732 108.307 14.071 138.031 34.6348C153.465 45.306 166.655 58.2213 171.876 70.0375C176.639 80.8002 174.761 90.2806 161.571 96.1887C134.046 108.509 196.241 135.072 216.805 102.784C237.369 70.4954 241.078 147.942 241.078 146.98" stroke="#224E9C" stroke-width="0.2415" stroke-miterlimit="10"/>
<path d="M21.3806 5.00281C21.3806 5.00281 25.6857 26.162 56.0047 21.2157C86.5068 16.2694 111.467 13.7962 140.366 33.9478C155.389 44.39 168.166 57.0763 173.159 68.6634C177.693 79.1972 175.907 88.4486 163.22 94.3109C136.748 106.539 197.111 132.461 217.217 101.318C237.369 70.2206 241.262 144.736 241.262 143.407" stroke="#224E9C" stroke-width="0.2415" stroke-miterlimit="10"/>
<path d="M26.51 4.86548C26.51 4.86548 30.9067 25.246 60.4013 20.5287C90.1249 15.8114 114.627 13.5673 142.702 33.2609C157.266 43.4741 169.632 55.8856 174.441 67.3354C178.792 77.6401 177.051 86.6625 164.915 92.4332C139.496 104.57 198.027 129.805 217.721 99.8527C237.46 69.9001 241.536 141.484 241.536 139.881" stroke="#224E9C" stroke-width="0.2415" stroke-miterlimit="10"/>
<path d="M31.5938 4.72803C31.5938 4.72803 36.0821 24.33 64.798 19.7959C93.7888 15.3534 117.788 13.2924 145.038 32.5738C159.19 42.558 171.098 54.6948 175.723 65.9613C179.845 76.0371 178.196 84.7847 166.563 90.5554C142.153 102.601 198.852 127.195 218.133 98.4328C237.46 69.671 241.72 138.324 241.72 136.354" stroke="#224E9C" stroke-width="0.2415" stroke-miterlimit="10"/>
<path d="M36.6775 4.59064C36.6775 4.59064 41.2574 23.3682 69.149 19.1089C97.3612 14.8954 120.902 13.0635 147.328 31.8869C161.022 41.642 172.517 53.5498 176.914 64.6332C180.853 74.48 179.25 82.9986 168.121 88.7234C144.763 100.677 199.63 124.584 218.5 97.0131C237.415 69.4421 241.857 135.118 241.857 132.874" stroke="#224E9C" stroke-width="0.2415" stroke-miterlimit="10"/>
<path d="M41.8069 4.40747C41.8069 4.40747 46.4784 22.4065 73.5914 18.3762C101.071 14.3917 124.108 12.7887 149.709 31.1999C162.991 40.7261 174.029 52.359 178.242 63.305C181.952 72.9228 180.441 81.2124 169.861 86.8457C147.511 98.7077 200.546 121.974 219.049 95.5475C237.552 69.1673 242.178 131.912 242.178 129.301" stroke="#224E9C" stroke-width="0.2415" stroke-miterlimit="10"/>
<path d="M46.8906 4.27002C46.8906 4.27002 51.6537 21.4447 77.9882 17.6891C104.689 13.8878 127.314 12.5596 152.045 30.5129C164.869 39.8101 175.494 51.1682 179.525 61.931C183.051 71.3656 181.586 79.3804 171.51 84.9679C150.213 96.7382 201.417 119.317 219.461 94.0819C237.598 68.8466 242.361 128.706 242.361 125.775" stroke="#224E9C" stroke-width="0.2415" stroke-miterlimit="10"/>
<path d="M51.9744 4.13269C51.9744 4.13269 56.8291 20.4829 82.3391 16.9564C108.261 13.3841 130.428 12.2849 154.335 29.7801C166.747 38.8484 176.96 49.9775 180.761 60.5571C184.059 69.7627 182.685 77.5485 173.113 83.0444C152.824 94.7232 202.195 116.661 219.874 92.6164C237.598 68.5719 242.544 125.454 242.544 122.203" stroke="#224E9C" stroke-width="0.2415" stroke-miterlimit="10"/>
<path d="M57.1038 3.99524C57.1038 3.99524 62.0501 19.5669 86.7815 16.2694C111.971 12.926 133.634 12.0559 156.717 29.1389C168.67 37.9781 178.471 48.8325 182.089 59.2289C185.204 68.2055 183.875 75.7623 174.853 81.2124C155.617 92.7996 203.157 114.05 220.377 91.1966C237.689 68.3429 242.819 122.294 242.819 118.722" stroke="#224E9C" stroke-width="0.2415" stroke-miterlimit="10"/>
<path d="M62.1875 3.81207C62.1875 3.81207 67.2712 18.5594 91.1325 15.5366C115.543 12.4223 136.748 11.7811 159.007 28.4061C170.548 37.0164 179.891 47.5959 183.28 57.8549C186.211 66.6025 184.929 73.9304 176.41 79.3347C158.182 90.876 203.89 111.44 220.744 89.731C237.644 68.0681 242.956 119.042 242.956 115.149" stroke="#224E9C" stroke-width="0.2415" stroke-miterlimit="10"/>
<path d="M67.2712 3.67468C67.2712 3.67468 72.4465 17.6434 95.5292 14.8038C119.207 11.9185 139.909 11.5063 161.342 27.7192C172.426 36.1004 181.357 46.4052 184.563 56.481C187.265 64.9996 186.074 72.0984 178.105 77.4111C160.884 88.8609 204.806 108.738 221.202 88.2655C237.689 67.7475 243.185 115.836 243.185 111.623" stroke="#224E9C" stroke-width="0.2415" stroke-miterlimit="10"/>
<path d="M72.4006 3.53729C72.4006 3.53729 77.6675 16.6816 99.9716 14.1169C122.871 11.4605 143.16 11.2773 163.724 27.0322C174.395 35.1844 182.914 45.2602 185.891 55.1528C188.41 63.4424 187.265 70.3123 179.799 75.5792C163.586 86.9831 205.676 106.173 221.705 86.8457C237.781 67.5185 243.414 112.631 243.414 108.096" stroke="#224E9C" stroke-width="0.2415" stroke-miterlimit="10"/>
<path d="M77.4844 3.39984C77.4844 3.39984 82.8429 15.7656 104.323 13.4298C126.444 11.0025 146.275 11.0483 166.014 26.391C176.227 34.3142 184.333 44.1152 187.127 53.8246C189.417 61.8852 188.364 68.5719 181.402 73.7471C166.197 85.0595 206.5 103.562 222.072 85.4259C237.735 67.2895 243.552 109.47 243.552 104.616" stroke="#224E9C" stroke-width="0.2415" stroke-miterlimit="10"/>
<path d="M82.5681 3.21667C82.5681 3.21667 88.0182 14.8038 108.719 12.6971C130.108 10.4987 149.435 10.7735 168.35 25.6582C178.151 33.3524 185.799 42.8786 188.41 52.4506C190.516 60.2823 189.509 66.7399 183.097 71.8236C168.899 83.0902 207.37 100.906 222.576 83.9146C237.873 66.9689 243.826 106.219 243.826 100.998" stroke="#224E9C" stroke-width="0.2415" stroke-miterlimit="10"/>
<path d="M87.6975 3.07928C87.6975 3.07928 93.2392 13.8421 113.116 11.9643C133.726 10.0407 152.595 10.4987 170.685 24.9254C180.028 32.3907 187.31 41.6421 189.646 51.0309C191.57 58.6335 190.608 64.8622 184.7 69.9001C171.51 81.1208 208.195 98.2497 222.942 82.449C237.827 66.6483 243.964 102.967 243.964 97.4711" stroke="#224E9C" stroke-width="0.2415" stroke-miterlimit="10"/>
<path d="M92.7812 2.94189C92.7812 2.94189 98.4145 12.9261 117.513 11.2773C137.39 9.58275 155.755 10.2697 173.021 24.2842C181.952 31.5205 188.776 40.4971 190.929 49.7485C192.669 57.1221 191.753 63.1676 186.349 68.1139C174.166 79.2889 209.019 95.6849 223.4 81.075C237.873 66.4651 244.193 99.8526 244.193 93.9904" stroke="#224E9C" stroke-width="0.2415" stroke-miterlimit="10"/>
<path d="M97.865 2.80444C97.865 2.80444 103.636 12.01 121.909 10.5903C141.008 9.12471 158.961 10.0407 175.357 23.5972C183.83 30.6045 190.242 39.3063 192.211 48.4203C193.722 55.5649 192.898 61.4272 188.043 66.2361C176.868 77.4111 209.889 93.0285 223.858 79.6094C237.873 66.1445 244.422 96.6008 244.422 90.4638" stroke="#224E9C" stroke-width="0.2415" stroke-miterlimit="10"/>
<path d="M102.949 2.62128C102.949 2.62128 108.811 11.0025 126.26 9.81172C144.626 8.57515 162.075 9.72013 177.647 22.8644C185.708 29.6427 191.707 38.0697 193.448 47.0005C194.776 53.9162 193.997 59.5495 189.646 64.3126C179.479 75.4875 210.714 90.3264 224.27 78.1439C237.873 65.8697 244.605 93.3949 244.605 86.8915" stroke="#224E9C" stroke-width="0.2415" stroke-miterlimit="10"/>
<path d="M108.078 2.48389C108.078 2.48389 114.032 10.0865 130.703 9.12475C148.29 8.11717 165.281 9.49114 180.028 22.1775C187.631 28.7267 193.219 36.9248 194.776 45.6724C195.921 52.3132 195.188 57.8091 191.387 62.4806C182.227 73.6556 211.63 87.7617 224.82 76.7241C238.056 65.6407 244.926 90.2348 244.926 83.4108" stroke="#224E9C" stroke-width="0.2415" stroke-miterlimit="10"/>
<path d="M113.162 2.3465C113.162 2.3465 119.207 9.17055 135.054 8.43777C151.908 7.65918 168.395 9.26215 182.318 21.4905C189.509 27.8108 194.684 35.734 195.966 44.2984C196.928 50.7103 196.241 56.0687 192.944 60.5571C184.792 71.7778 212.408 85.1053 225.14 75.2127C237.964 65.2743 245.017 86.9373 245.017 79.7926" stroke="#224E9C" stroke-width="0.2415" stroke-miterlimit="10"/>
<path d="M118.245 2.20911C118.245 2.20911 124.383 8.20878 139.45 7.75079C155.526 7.247 171.556 9.03316 184.654 20.8493C191.387 26.9406 196.195 34.589 197.249 43.016C198.027 49.1989 197.386 54.3742 194.592 58.7709C187.448 70.0375 213.278 82.5406 225.598 73.8388C238.01 65.0912 245.246 83.823 245.246 76.3577" stroke="#224E9C" stroke-width="0.2415" stroke-miterlimit="10"/>
<path d="M123.375 2.02594C123.375 2.02594 129.604 7.24703 143.893 6.97223C159.236 6.69744 174.807 8.7126 187.036 20.0708C193.356 25.933 197.753 33.3067 198.577 41.5505C199.172 47.5044 198.623 52.4965 196.333 56.8016C190.242 68.1597 214.194 79.8385 226.102 72.3274C238.102 64.7706 245.521 80.5255 245.521 72.7396" stroke="#224E9C" stroke-width="0.2415" stroke-miterlimit="10"/>
<path d="M128.459 1.88849C128.459 1.88849 134.825 6.1478 148.244 6.2852C162.808 6.42259 177.922 8.48355 189.326 19.4295C195.234 25.0628 199.172 32.1616 199.814 40.2681C200.226 45.993 199.722 50.8476 197.936 54.9696C192.944 66.4193 215.019 77.2279 226.514 70.9076C238.102 64.5416 245.658 77.3653 245.658 69.2589" stroke="#224E9C" stroke-width="0.2415" stroke-miterlimit="10"/>
<path d="M133.542 1.7511C133.542 1.7511 140 5.41502 152.641 5.59822C166.426 5.78141 181.082 8.25456 191.661 18.7425C197.111 24.1468 200.684 30.9709 201.096 38.8941C201.371 44.39 200.913 49.1073 199.585 53.0918C195.737 64.6332 215.843 74.6174 226.927 69.4421C238.147 64.221 245.842 74.1594 245.842 65.6865" stroke="#224E9C" stroke-width="0.2415" stroke-miterlimit="10"/>
<path d="M138.672 1.61371C138.672 1.61371 145.221 4.49905 157.037 4.86544C170.09 5.32343 184.242 8.02557 193.997 18.0556C199.035 23.2308 202.241 29.7801 202.333 37.5659C202.424 42.8328 202.104 47.4127 201.233 51.2141C198.577 62.847 216.713 71.961 227.385 68.0223C238.193 63.992 246.071 70.9534 246.071 62.2058" stroke="#224E9C" stroke-width="0.2415" stroke-miterlimit="10"/>
<path d="M143.755 1.43054C143.755 1.43054 150.396 3.4915 161.434 4.13268C173.708 4.81967 187.402 7.75081 196.333 17.3228C200.913 22.2691 203.752 28.5436 203.615 36.1462C203.523 41.1841 203.34 45.6266 202.882 49.2905C201.462 61.0151 217.584 69.3047 227.797 66.511C238.193 63.6714 246.254 67.7017 246.254 58.6335" stroke="#224E9C" stroke-width="0.2415" stroke-miterlimit="10"/>
<path d="M148.839 1.29309C148.839 1.29309 155.572 2.57546 165.831 3.44564C177.372 4.40742 190.608 7.52176 198.669 16.6358C202.836 21.3531 205.264 27.3527 204.897 34.818C204.668 39.6269 204.577 43.8862 204.531 47.4585C204.439 59.2289 218.408 66.7399 228.255 65.0911C238.239 63.4424 246.483 64.4957 246.483 55.1069" stroke="#224E9C" stroke-width="0.2415" stroke-miterlimit="10"/>
<path d="M153.969 1.1557C153.969 1.1557 160.793 1.70529 170.227 2.75867C180.99 3.94944 193.768 7.29277 201.004 15.9946C204.714 20.4829 206.821 26.2078 206.18 33.5356C205.767 38.1155 205.859 42.1916 206.225 45.6266C207.508 57.3969 219.324 64.1752 228.713 63.6714C238.331 63.2134 246.712 61.3356 246.712 51.6262" stroke="#224E9C" stroke-width="0.2415" stroke-miterlimit="10"/>
<path d="M159.052 1.01832C159.052 1.01832 211.676 -0.813645 207.416 32.1617C202.974 66.8315 246.895 70.816 246.895 48.0997" stroke="#224E9C" stroke-width="0.2415" stroke-miterlimit="10"/>
</g>
</svg>
