<svg width="72" height="72" viewBox="0 0 72 72" fill="none" xmlns="http://www.w3.org/2000/svg">
<path d="M68.7268 0.432129H3.27301C1.7039 0.432129 0.431885 1.70414 0.431885 3.27325V68.727C0.431885 70.2961 1.7039 71.5681 3.27301 71.5681H68.7268C70.2959 71.5681 71.5679 70.2961 71.5679 68.727V3.27325C71.5679 1.70414 70.2959 0.432129 68.7268 0.432129Z" fill="#5C2682"/>
<path d="M14.1747 29.1104V31.7384H19.988V34.1583H14.1747V38.875H11.4941V26.6912H20.7706V29.1104H14.1747Z" fill="white"/>
<path d="M32.6411 37.813C32.2997 38.083 31.929 38.3136 31.5359 38.5006C31.1171 38.6974 30.6758 38.8425 30.2219 38.9326C29.6946 39.0363 29.1581 39.086 28.6206 39.081C27.7665 39.0887 26.9197 38.9229 26.1316 38.5935C25.3892 38.2843 24.7149 37.8319 24.1473 37.2622C23.5847 36.6908 23.141 36.0134 22.8419 35.2693C22.526 34.4898 22.3662 33.6559 22.3718 32.8148V32.7802C22.3654 31.9412 22.5252 31.1092 22.8419 30.3322C23.1449 29.5878 23.5881 28.9086 24.1473 28.3314C24.7162 27.7486 25.3971 27.2867 26.1489 26.9734C26.9663 26.6365 27.8438 26.4694 28.7279 26.4824C29.2503 26.4785 29.7718 26.525 30.2853 26.6214C30.7237 26.7053 31.1523 26.8336 31.5647 27.0044C31.9392 27.1625 32.2953 27.3609 32.6267 27.5962C32.9489 27.8264 33.2516 28.0826 33.5318 28.3623L31.8239 30.3286C31.3878 29.9277 30.8987 29.5885 30.3702 29.3206C29.8519 29.0717 29.2827 28.9467 28.7078 28.9556C28.2192 28.9511 27.7354 29.052 27.2894 29.2515C26.8622 29.4428 26.4799 29.7214 26.1669 30.0694C25.85 30.4235 25.6021 30.8338 25.4361 31.279C25.2597 31.7492 25.1711 32.2478 25.1747 32.75V32.7846C25.1717 33.2895 25.2602 33.7908 25.4361 34.2642C25.5995 34.7109 25.8436 35.1238 26.1561 35.4824C26.4749 35.843 26.8676 36.1307 27.3075 36.3259C27.7475 36.5211 28.2243 36.6192 28.7056 36.6135C29.4021 36.6135 29.991 36.4858 30.4725 36.2305C30.9944 35.9464 31.4771 35.5955 31.9082 35.1865L33.6138 36.9094C33.3129 37.2348 32.9878 37.5369 32.6411 37.813Z" fill="white"/>
<path d="M45.2944 38.875V30.9204L41.8651 36.1246H41.7931L38.399 30.973V38.875H35.7566V26.6912H38.6452L41.8478 31.8435L45.0504 26.6912H47.9397V38.875H45.2944Z" fill="white"/>
<path d="M60.8811 36.9951C60.6656 37.4141 60.3491 37.7729 59.9603 38.0391C59.5225 38.3342 59.0345 38.5467 58.5203 38.6662C57.907 38.8113 57.2784 38.8814 56.6483 38.875H50.8638V26.6912H56.5107C57.7611 26.6912 58.7425 26.9756 59.4548 27.5444C60.1671 28.1132 60.5235 28.879 60.524 29.8419V29.88C60.529 30.1924 60.485 30.5036 60.3937 30.8024C60.3126 31.0573 60.1962 31.2996 60.0481 31.5224C59.9071 31.7334 59.7375 31.9239 59.5441 32.0883C59.3557 32.2497 59.15 32.3898 58.9307 32.5059C59.6348 32.7732 60.1892 33.1359 60.5939 33.5938C60.9985 34.0517 61.2006 34.6858 61.2001 35.496V35.5306C61.2124 36.0372 61.1031 36.5395 60.8811 36.9951ZM57.878 30.294C57.878 29.888 57.7273 29.5776 57.4259 29.3631C57.1244 29.1485 56.6893 29.0412 56.1205 29.0412H53.4745V31.6167H55.9441C56.5359 31.6167 57.0059 31.5152 57.3539 31.3121C57.7019 31.1091 57.8759 30.7812 57.8759 30.3286L57.878 30.294ZM58.557 35.1677C58.5633 34.9803 58.5237 34.7943 58.4418 34.6256C58.3599 34.457 58.238 34.3109 58.0868 34.2C57.7734 33.9624 57.2694 33.8424 56.5748 33.84H53.4788V36.5206H56.6641C57.2559 36.5206 57.7201 36.4133 58.0566 36.1988C58.3931 35.9842 58.5611 35.6506 58.5606 35.198L58.557 35.1677Z" fill="white"/>
<path d="M60.9999 46.6819V52.6478H11.2278V49.5101C11.2277 49.1386 11.3008 48.7708 11.4429 48.4276C11.585 48.0845 11.7933 47.7727 12.0559 47.51C12.3186 47.2474 12.6304 47.0391 12.9735 46.897C13.3167 46.7549 13.6845 46.6818 14.0559 46.6819H60.9999Z" fill="#FAB613"/>
<path d="M11.2278 54.5796H60.9999V60.5455H14.0559C13.6845 60.5456 13.3166 60.4725 12.9734 60.3304C12.6302 60.1882 12.3183 59.9798 12.0557 59.7171C11.793 59.4544 11.5847 59.1425 11.4427 58.7993C11.3006 58.456 11.2276 58.0881 11.2278 57.7166V54.5796Z" fill="#FAB613"/>
</svg>
