<svg width="719" height="507" viewBox="0 0 719 507" fill="none" xmlns="http://www.w3.org/2000/svg">
<path d="M367.208 505.926C388.833 505.926 406.363 488.384 406.363 466.746C406.363 445.108 388.833 427.567 367.208 427.567C345.582 427.567 328.052 445.108 328.052 466.746C328.052 488.384 345.582 505.926 367.208 505.926Z" fill="#005CE6"/>
<path d="M601.127 503.724C623.032 497.141 646.321 490.277 663.694 474.628C679.218 460.645 689.699 439.291 683.267 418.319C676.849 397.391 657.625 383.436 637.777 376.495C626.52 372.559 614.742 370.374 602.97 368.659C590.172 366.794 577.317 365.266 564.469 363.795C512.444 357.842 460.224 354.204 407.808 352.884C381.944 352.232 356.085 352.248 330.218 352.624C307.116 352.959 282.786 352.951 261.355 343.126C244.69 335.487 229.564 321.587 224.921 303.322C219.56 282.238 229.447 260.767 243.63 245.497C251.106 237.448 259.844 230.674 268.857 224.444C278.635 217.687 288.754 211.407 299.093 205.546C319.455 194.008 340.743 184.188 362.735 176.188C373.585 172.241 384.595 168.836 395.701 165.694C405.079 163.041 414.486 160.384 423.549 156.77C441.07 149.783 457.735 137.947 462.19 118.543C466.412 100.153 459.293 80.1895 446.812 66.5278C432.373 50.7224 410.602 43.7937 389.73 42.6727C366.297 41.4141 343.405 47.2822 321.38 54.7296C297.889 62.6728 274.905 71.8061 250.918 78.24C227.132 84.6138 202.885 89.1236 178.398 91.7284C166.411 93.0056 154.062 94.4477 142.003 93.47C131.897 92.6505 121.843 89.6766 114.395 82.5C108.009 76.3465 104.204 67.8895 105.512 58.9648C105.75 57.3438 108.211 58.033 107.975 59.6441C106.383 70.508 113.763 80.5187 122.858 85.6467C133.369 91.5733 146.159 91.5814 157.861 90.9036C183.235 89.3701 208.437 85.7247 233.206 80.0052C257.544 74.4429 281.013 66.4914 304.456 57.9974C326.72 49.9302 349.482 42.0566 373.268 40.3093C393.907 38.7932 415.617 41.8017 433.597 52.5939C449.399 62.0787 461.019 77.8963 464.722 96.0474C468.34 113.784 463.329 131.637 449.911 144.014C436.017 156.83 416.968 162.308 399.215 167.355C376.699 173.755 354.665 181.236 333.337 190.95C311.72 200.769 290.987 212.431 271.369 225.81C252.433 238.758 233.745 255.05 227.756 278.149C224.966 288.909 225.481 300.321 230.149 310.485C234.299 319.521 241.135 327.123 249.098 332.986C268.098 346.975 292.044 349.847 314.995 350.133C340.771 350.454 366.547 349.584 392.332 350.007C444.879 350.87 497.319 354.07 549.652 359.608C562.765 360.997 575.862 362.532 588.942 364.214C600.707 365.726 612.512 367.229 624.079 369.916C644.646 374.692 664.66 383.877 677.443 401.326C683.117 408.889 686.632 417.852 687.613 427.257C688.508 437.072 686.106 446.906 681.671 455.637C671.854 474.963 653.467 487.256 633.94 495.332C623.482 499.658 612.633 502.934 601.806 506.188C600.228 506.662 599.554 504.197 601.127 503.724Z" fill="#F2F2F2"/>
<path d="M107.162 79.6363C118.444 79.6363 127.591 70.4843 127.591 59.1949C127.591 47.9054 118.444 38.7534 107.162 38.7534C95.8789 38.7534 86.7324 47.9054 86.7324 59.1949C86.7324 70.4843 95.8789 79.6363 107.162 79.6363Z" fill="#F2F2F2"/>
<path d="M248.889 118.39C260.172 118.39 269.318 109.238 269.318 97.9488C269.318 86.6593 260.172 77.5073 248.889 77.5073C237.606 77.5073 228.46 86.6593 228.46 97.9488C228.46 109.238 237.606 118.39 248.889 118.39Z" fill="#F2F2F2"/>
<path d="M368.911 40.8829C380.193 40.8829 389.34 31.7309 389.34 20.4414C389.34 9.15194 380.193 0 368.911 0C357.628 0 348.481 9.15194 348.481 20.4414C348.481 31.7309 357.628 40.8829 368.911 40.8829Z" fill="#F2F2F2"/>
<path d="M443.817 127.759C455.1 127.759 464.246 118.607 464.246 107.317C464.246 96.0279 455.1 86.876 443.817 86.876C432.534 86.876 423.388 96.0279 423.388 107.317C423.388 118.607 432.534 127.759 443.817 127.759Z" fill="#F2F2F2"/>
<path d="M342.523 228.263C353.806 228.263 362.952 219.111 362.952 207.821C362.952 196.532 353.806 187.38 342.523 187.38C331.24 187.38 322.094 196.532 322.094 207.821C322.094 219.111 331.24 228.263 342.523 228.263Z" fill="#F2F2F2"/>
<path d="M213.99 276.811C225.272 276.811 234.419 267.659 234.419 256.37C234.419 245.08 225.272 235.928 213.99 235.928C202.707 235.928 193.561 245.08 193.561 256.37C193.561 267.659 202.707 276.811 213.99 276.811Z" fill="#F2F2F2"/>
<path d="M350.184 352.615C361.467 352.615 370.613 343.463 370.613 332.173C370.613 320.884 361.467 311.732 350.184 311.732C338.901 311.732 329.755 320.884 329.755 332.173C329.755 343.463 338.901 352.615 350.184 352.615Z" fill="#F2F2F2"/>
<path d="M496.592 395.201C507.875 395.201 517.021 386.049 517.021 374.76C517.021 363.47 507.875 354.318 496.592 354.318C485.31 354.318 476.163 363.47 476.163 374.76C476.163 386.049 485.31 395.201 496.592 395.201Z" fill="#F2F2F2"/>
<path d="M667.687 385.832C678.97 385.832 688.116 376.68 688.116 365.391C688.116 354.101 678.97 344.949 667.687 344.949C656.404 344.949 647.258 354.101 647.258 365.391C647.258 376.68 656.404 385.832 667.687 385.832Z" fill="#F2F2F2"/>
<path d="M363.013 57.9204C301.818 58.353 251.712 108.113 250.842 169.34C250.834 169.905 250.831 173.88 250.831 179.079C250.831 186.702 253.858 194.012 259.244 199.402C264.631 204.792 271.936 207.82 279.554 207.821C283.331 207.821 287.07 207.075 290.558 205.628C294.047 204.181 297.216 202.06 299.884 199.386C302.553 196.713 304.669 193.54 306.112 190.048C307.555 186.556 308.296 182.814 308.292 179.035C308.289 175.498 308.288 173.051 308.288 172.901C308.286 163.438 310.746 154.138 315.425 145.915C320.105 137.692 326.843 130.83 334.978 126.003C343.112 121.176 352.362 118.551 361.817 118.387C371.273 118.222 380.608 120.523 388.905 125.063C397.203 129.604 404.176 136.227 409.139 144.282C414.102 152.337 416.884 161.545 417.211 171.002C417.539 180.459 415.4 189.839 411.006 198.218C406.611 206.597 400.113 213.687 392.15 218.791L392.16 218.803C392.16 218.803 351.277 245.138 338.813 281.265L338.824 281.267C336.632 288.668 335.522 296.347 335.527 304.066C335.527 307.239 335.713 335.002 336.074 357.536C336.2 365.311 339.375 372.725 344.915 378.178C350.456 383.631 357.916 386.686 365.687 386.684H365.688C369.592 386.684 373.459 385.911 377.064 384.41C380.669 382.909 383.942 380.71 386.695 377.938C389.447 375.167 391.625 371.878 393.103 368.262C394.58 364.645 395.329 360.772 395.305 356.864C395.179 336.228 395.112 312.198 395.112 310.454C395.112 288.271 416.499 266.169 434.066 251.756C454.296 235.158 468.854 212.54 474.701 187.025C475.995 181.772 476.708 176.393 476.828 170.984C476.828 156.067 473.878 141.298 468.148 127.527C462.419 113.756 454.022 101.255 443.443 90.7457C432.863 80.2361 420.31 71.925 406.506 66.2913C392.702 60.6576 377.921 57.8127 363.013 57.9204Z" fill="#005CE6"/>
<path d="M659.073 507H0.930602C0.684321 506.999 0.448377 506.892 0.274482 506.702C0.100587 506.512 0.00292969 506.254 0.00292969 505.986C0.00292969 505.717 0.100587 505.46 0.274482 505.27C0.448377 505.08 0.684321 504.972 0.930602 504.972H659.073C659.319 504.972 659.556 505.079 659.73 505.269C659.905 505.459 660.003 505.717 660.003 505.986C660.003 506.255 659.905 506.513 659.73 506.703C659.556 506.893 659.319 507 659.073 507Z" fill="#0F2F66"/>
<path d="M534.945 232.518C549.048 232.518 560.481 221.078 560.481 206.966C560.481 192.854 549.048 181.414 534.945 181.414C520.841 181.414 509.408 192.854 509.408 206.966C509.408 221.078 520.841 232.518 534.945 232.518Z" fill="#0F2F66"/>
<path d="M487.757 495.815H477.322L472.356 455.538H487.759L487.757 495.815Z" fill="#A0616A"/>
<path d="M469.866 492.831H489.992V505.51H457.194C457.194 503.845 457.522 502.196 458.159 500.658C458.796 499.12 459.729 497.722 460.906 496.544C462.083 495.367 463.479 494.433 465.017 493.796C466.554 493.159 468.202 492.831 469.866 492.831Z" fill="#0F2F66"/>
<path d="M568.622 495.815H558.187L553.222 455.538H568.624L568.622 495.815Z" fill="#A0616A"/>
<path d="M550.732 492.831H570.858V505.51H538.061C538.061 503.845 538.388 502.196 539.025 500.658C539.662 499.12 540.595 497.722 541.772 496.544C542.949 495.367 544.346 494.433 545.883 493.796C547.421 493.159 549.068 492.831 550.732 492.831Z" fill="#0F2F66"/>
<path d="M531.064 232.667C542.61 232.667 551.971 223.301 551.971 211.748C551.971 200.194 542.61 190.829 531.064 190.829C519.517 190.829 510.157 200.194 510.157 211.748C510.157 223.301 519.517 232.667 531.064 232.667Z" fill="#A0616A"/>
<path d="M543.525 300.154L552.88 278.647C555.152 273.602 555.803 267.976 554.743 262.545C553.684 257.114 550.965 252.146 546.964 248.326C546.142 247.513 545.269 246.753 544.35 246.052C539.735 242.439 534.046 240.47 528.186 240.456C524.246 240.471 520.355 241.337 516.78 242.994C516.473 243.13 516.176 243.275 515.869 243.42C515.282 243.701 514.703 244.008 514.141 244.323C510.477 246.428 507.358 249.366 505.036 252.899C502.715 256.432 501.256 260.461 500.777 264.662L496.648 299.276C495.61 301.993 458.565 400.112 471.521 475.021C471.659 475.821 472.049 476.556 472.634 477.119C473.219 477.681 473.968 478.042 474.772 478.147L487.907 479.936C488.866 480.067 489.839 479.83 490.63 479.272C491.421 478.714 491.972 477.877 492.171 476.929L514.209 371.818C514.347 371.165 514.699 370.577 515.209 370.147C515.72 369.718 516.36 369.473 517.027 369.45C517.693 369.427 518.348 369.629 518.887 370.023C519.425 370.417 519.816 370.98 519.997 371.622L551.135 482.159C551.357 482.962 551.836 483.67 552.498 484.175C553.161 484.68 553.971 484.953 554.804 484.953C555.052 484.951 555.3 484.928 555.544 484.885L571.589 481.793C572.522 481.618 573.356 481.101 573.928 480.344C574.5 479.586 574.768 478.641 574.68 477.696C572.322 451.386 559.792 319.598 543.525 300.154Z" fill="#0F2F66"/>
<path d="M449.816 229.157C449.67 230.401 449.8 231.661 450.194 232.849C450.588 234.038 451.238 235.125 452.098 236.035C452.958 236.944 454.007 237.655 455.17 238.115C456.334 238.575 457.584 238.775 458.834 238.699L470.52 266.8L479.36 253.688L466.907 229.013C466.641 226.922 465.618 225.001 464.031 223.614C462.444 222.228 460.404 221.471 458.298 221.489C456.191 221.507 454.164 222.297 452.6 223.71C451.037 225.124 450.046 227.061 449.815 229.157H449.816Z" fill="#A0616A"/>
<path d="M529.905 328.448C531.148 328.299 532.343 327.88 533.406 327.219C534.469 326.559 535.374 325.673 536.058 324.624C536.742 323.576 537.187 322.39 537.364 321.15C537.54 319.911 537.442 318.647 537.078 317.45L561.666 299.531L546.863 293.984L525.783 311.85C523.813 312.596 522.184 314.04 521.206 315.907C520.228 317.774 519.969 319.935 520.477 321.981C520.985 324.027 522.225 325.815 523.963 327.007C525.701 328.199 527.815 328.712 529.905 328.448Z" fill="#A0616A"/>
<path d="M489.822 285.534C488.88 285.533 487.939 285.44 487.015 285.257C484.778 284.831 482.681 283.861 480.907 282.433C479.134 281.004 477.739 279.161 476.845 277.066L460.472 257.091C460.126 256.668 459.874 256.177 459.733 255.649C459.592 255.122 459.566 254.57 459.655 254.031C459.745 253.492 459.949 252.979 460.253 252.525C460.557 252.072 460.954 251.688 461.418 251.401L473.066 244.186C473.496 243.919 473.975 243.741 474.474 243.66C474.974 243.58 475.484 243.599 475.976 243.717C476.468 243.835 476.931 244.05 477.34 244.348C477.749 244.646 478.094 245.023 478.357 245.455L489.896 264.478L511.995 248.136C513.755 247.213 515.787 246.954 517.722 247.407C519.656 247.859 521.363 248.993 522.531 250.601C523.699 252.209 524.25 254.184 524.083 256.165C523.916 258.146 523.043 260 521.622 261.39L499.566 281.522C496.974 284.093 493.472 285.535 489.822 285.534Z" fill="#0F2F66"/>
<path d="M549.535 315.576C549.505 315.576 549.475 315.576 549.445 315.575C548.908 315.562 548.38 315.437 547.894 315.206C547.409 314.976 546.977 314.646 546.627 314.238L536.271 302.149C535.918 301.737 535.657 301.256 535.504 300.735C535.351 300.215 535.311 299.668 535.385 299.131C535.459 298.594 535.646 298.078 535.934 297.619C536.221 297.16 536.603 296.766 537.054 296.466L556.446 283.53L538.879 262.397C537.857 260.692 537.482 258.676 537.822 256.718C538.163 254.759 539.197 252.989 540.734 251.73C542.272 250.471 544.211 249.808 546.197 249.861C548.182 249.914 550.083 250.681 551.551 252.02L572.902 272.898C574.583 274.434 575.866 276.356 576.641 278.497C577.416 280.638 577.66 282.936 577.352 285.192C577.045 287.449 576.194 289.597 574.874 291.452C573.554 293.308 571.804 294.815 569.774 295.844L552.323 314.373C551.965 314.753 551.532 315.055 551.053 315.262C550.574 315.469 550.057 315.576 549.535 315.576Z" fill="#0F2F66"/>
<path d="M525.748 271.032C525.582 271.032 525.416 271.021 525.251 271C524.53 270.912 523.849 270.619 523.289 270.156C522.73 269.693 522.314 269.079 522.093 268.386L514.311 244.513C514.116 243.909 514.146 243.256 514.395 242.672C514.645 242.089 515.097 241.616 515.668 241.341L515.92 241.221C516.149 241.112 516.376 241.005 516.607 240.901C520.236 239.217 524.186 238.339 528.186 238.327C533.379 238.336 538.456 239.863 542.794 242.719C543.376 243.106 543.782 243.706 543.926 244.391C544.069 245.075 543.939 245.788 543.562 246.376L528.963 269.26C528.621 269.804 528.146 270.251 527.584 270.561C527.022 270.871 526.39 271.033 525.748 271.032Z" fill="#E6E6E6"/>
<path d="M555.078 195.559C559.693 195.559 563.434 191.815 563.434 187.198C563.434 182.58 559.693 178.836 555.078 178.836C550.463 178.836 546.722 182.58 546.722 187.198C546.722 191.815 550.463 195.559 555.078 195.559Z" fill="#0F2F66"/>
<path d="M526.432 178.007C520.563 178.007 514.933 180.34 510.783 184.493C506.633 188.646 504.301 194.279 504.301 200.152V209.521H515.817L521.325 200.152L522.978 209.521H557.927L548.564 200.152C548.564 194.279 546.232 188.646 542.082 184.493C537.931 180.34 532.302 178.007 526.432 178.007Z" fill="#0F2F66"/>
<path d="M559.373 181.471C560.297 178.579 562.21 176.107 564.776 174.487C567.342 172.868 570.396 172.205 573.402 172.616C578.727 173.507 582.937 177.79 585.446 182.574C587.955 187.358 589.113 192.712 590.8 197.844C592.486 202.976 594.878 208.136 599.136 211.458C603.393 214.78 609.927 215.681 614.108 212.263C613.63 215.825 612.046 219.146 609.578 221.757C607.111 224.368 603.885 226.137 600.358 226.813C596.831 227.489 593.181 227.039 589.923 225.526C586.666 224.012 583.967 221.512 582.207 218.38C580.001 214.452 579.431 209.848 578.777 205.39C578.122 200.932 577.272 196.319 574.638 192.665C572.004 189.011 567.073 186.624 562.888 188.288L559.373 181.471Z" fill="#0F2F66"/>
<path d="M287.665 194.226C280.047 194.225 272.742 191.197 267.355 185.807C261.969 180.417 258.942 173.106 258.942 165.484C258.941 160.285 258.945 156.31 258.953 155.745C259.195 137.938 263.677 120.446 272.027 104.719C258.308 123.511 250.765 146.104 250.441 169.373C250.433 169.938 250.429 173.913 250.43 179.112C250.43 186.734 253.456 194.044 258.843 199.434C264.23 204.825 271.535 207.853 279.153 207.854C285.413 207.852 291.501 205.805 296.492 202.025C301.484 198.244 305.105 192.937 306.807 186.909C301.548 191.629 294.73 194.235 287.665 194.226Z" fill="#3F3D56"/>
<path d="M364.961 118.483C373.768 118.904 382.341 121.457 389.944 125.924C397.548 130.39 403.954 136.637 408.614 144.126C413.273 151.616 416.046 160.125 416.695 168.923C417.344 177.721 415.849 186.546 412.339 194.639C417.416 188.672 421.148 181.68 423.28 174.139C425.412 166.599 425.894 158.687 424.693 150.943C423.492 143.199 420.637 135.805 416.321 129.266C412.006 122.726 406.331 117.195 399.686 113.048C393.04 108.902 385.579 106.238 377.811 105.238C370.043 104.239 362.151 104.927 354.673 107.256C347.195 109.585 340.307 113.499 334.478 118.734C328.649 123.968 324.017 130.398 320.896 137.586C326.289 131.238 333.067 126.214 340.707 122.903C348.347 119.591 356.645 118.079 364.961 118.483Z" fill="#3F3D56"/>
<path d="M373.798 373.089C366.027 373.09 358.566 370.035 353.026 364.582C347.486 359.129 344.31 351.716 344.184 343.941C343.824 321.407 343.637 293.644 343.637 290.471C343.632 282.752 344.743 275.073 346.934 267.672L346.924 267.67C348.218 263.955 349.781 260.339 351.601 256.852C346.015 264.3 341.57 272.539 338.412 281.297L338.422 281.3C336.231 288.701 335.12 296.38 335.125 304.099C335.125 307.272 335.312 335.035 335.672 357.568C335.798 365.343 338.974 372.757 344.514 378.21C350.054 383.663 357.514 386.718 365.286 386.716C371.693 386.715 377.928 384.635 383.054 380.789C388.18 376.942 391.922 371.536 393.718 365.382C388.273 370.35 381.167 373.099 373.798 373.089Z" fill="#3F3D56"/>
<path d="M107.713 496.203L118.149 496.202L123.114 455.926L107.711 455.927L107.713 496.203Z" fill="#A0616A"/>
<path d="M138.275 505.898L105.477 505.899V493.22L125.603 493.219C128.964 493.219 132.187 494.555 134.563 496.932C136.94 499.31 138.275 502.535 138.275 505.898Z" fill="#0F2F66"/>
<path d="M70.2604 496.203L80.6954 496.202L85.6605 455.926L70.2578 455.927L70.2604 496.203Z" fill="#A0616A"/>
<path d="M100.822 505.898L68.0244 505.899L68.0238 493.22L88.1498 493.219C91.5106 493.219 94.7338 494.555 97.1103 496.932C99.4869 499.31 100.822 502.535 100.822 505.898Z" fill="#0F2F66"/>
<path d="M79.3796 483.816L69.1863 483.279C68.6607 483.252 68.1458 483.12 67.6714 482.892C67.1971 482.663 66.7727 482.343 66.4228 481.95C66.073 481.556 65.8047 481.097 65.6335 480.599C65.4622 480.101 65.3914 479.574 65.4252 479.049L77.6083 344.079L133.713 359.228L139.118 357.752L122.214 477.236C122.07 478.135 121.624 478.958 120.95 479.569C120.275 480.18 119.413 480.542 118.505 480.596L107.516 481.108C106.967 481.139 106.417 481.055 105.902 480.862C105.386 480.669 104.917 480.371 104.522 479.987C104.128 479.604 103.817 479.142 103.61 478.632C103.403 478.122 103.304 477.574 103.319 477.024L105.31 405.311C105.319 404.98 105.204 404.657 104.987 404.406C104.77 404.155 104.467 403.995 104.138 403.956C103.808 403.918 103.477 404.004 103.208 404.198C102.939 404.392 102.753 404.68 102.685 405.005L83.4845 480.649C83.3032 481.546 82.8165 482.353 82.1073 482.932C81.3981 483.51 80.5103 483.825 79.5952 483.822C79.5238 483.822 79.4519 483.82 79.3796 483.816Z" fill="#0F2F66"/>
<path d="M109.587 233.645C121.134 233.645 130.494 224.279 130.494 212.726C130.494 201.173 121.134 191.807 109.587 191.807C98.0409 191.807 88.6807 201.173 88.6807 212.726C88.6807 224.279 98.0409 233.645 109.587 233.645Z" fill="#A0616A"/>
<path d="M74.7788 274.186L77.0776 323.814L77.9086 341.869C77.9417 342.655 78.2084 343.414 78.6746 344.047C79.1408 344.681 79.7852 345.161 80.5255 345.426L134.438 364.967C134.874 365.129 135.335 365.21 135.8 365.206C136.331 365.209 136.857 365.104 137.346 364.899C137.836 364.693 138.28 364.391 138.65 364.011C139.021 363.63 139.311 363.178 139.503 362.683C139.695 362.188 139.786 361.659 139.769 361.128L137.559 271.895C137.414 264.574 134.721 257.533 129.943 251.986C125.166 246.439 118.605 242.733 111.39 241.508C110.868 241.428 110.338 241.348 109.807 241.278C105.333 240.722 100.792 241.154 96.5029 242.543C92.2138 243.933 88.2811 246.245 84.9814 249.319C81.5646 252.463 78.8799 256.32 77.1169 260.617C75.3539 264.914 74.5557 269.546 74.7788 274.186Z" fill="#CCCCCC"/>
<path d="M160.192 355.064C158.917 354.668 157.752 353.98 156.79 353.053C155.828 352.127 155.096 350.988 154.652 349.728C154.208 348.468 154.065 347.122 154.233 345.797C154.402 344.471 154.877 343.204 155.622 342.095L137.34 317.77L153.116 316.793L168.059 340.043C169.659 341.28 170.772 343.042 171.203 345.018C171.635 346.995 171.357 349.061 170.418 350.853C169.48 352.645 167.94 354.049 166.071 354.819C164.201 355.589 162.12 355.676 160.192 355.064Z" fill="#A0616A"/>
<path d="M147.337 337.693C146.853 337.497 146.413 337.206 146.041 336.838C145.67 336.469 145.375 336.031 145.174 335.548L117.631 269.885C117.09 268.599 116.808 267.22 116.801 265.825C116.794 264.43 117.061 263.048 117.588 261.757C118.115 260.465 118.891 259.291 119.872 258.3C120.852 257.309 122.019 256.521 123.304 255.981C124.589 255.441 125.968 255.16 127.362 255.154C128.756 255.148 130.137 255.416 131.428 255.944C132.718 256.473 133.891 257.25 134.881 258.232C135.87 259.214 136.657 260.382 137.195 261.669L164.739 327.333C165.146 328.306 165.151 329.402 164.752 330.379C164.353 331.356 163.583 332.134 162.611 332.544L150.383 337.679C149.901 337.883 149.384 337.989 148.861 337.991C148.339 337.994 147.821 337.893 147.337 337.694V337.693Z" fill="#CCCCCC"/>
<path d="M102.865 335.377L129.32 284.692C129.83 283.717 130.706 282.985 131.755 282.655C132.805 282.326 133.942 282.426 134.917 282.935L173.316 303.001C174.291 303.512 175.023 304.388 175.352 305.438C175.681 306.488 175.581 307.626 175.073 308.602L148.618 359.287C148.108 360.262 147.232 360.994 146.183 361.323C145.133 361.653 143.996 361.553 143.021 361.044L104.622 340.977C103.647 340.467 102.915 339.591 102.586 338.541C102.257 337.491 102.357 336.353 102.865 335.377Z" fill="#0F2F66"/>
<path d="M120.607 312.22C120.137 310.97 119.381 309.847 118.4 308.941C117.419 308.035 116.239 307.371 114.956 307.002C113.673 306.633 112.322 306.569 111.009 306.815C109.697 307.062 108.461 307.612 107.399 308.421L82.0509 291.596L82.0078 307.412L106.085 320.965C107.414 322.49 109.237 323.498 111.235 323.812C113.232 324.126 115.277 323.726 117.009 322.683C118.742 321.64 120.052 320.02 120.71 318.106C121.368 316.193 121.331 314.109 120.607 312.22Z" fill="#A0616A"/>
<path d="M88.5588 315.777L67.843 299.358C65.6019 298.605 63.577 297.319 61.9419 295.611C60.3068 293.902 59.1105 291.822 58.4556 289.55C57.8007 287.277 57.7068 284.879 58.1819 282.562C58.6571 280.244 59.6871 278.077 61.1836 276.246L79.993 251.58C81.3001 249.982 83.1383 248.908 85.1718 248.554C87.2052 248.201 89.2979 248.591 91.0674 249.654C92.8369 250.717 94.1649 252.382 94.8088 254.344C95.4526 256.306 95.3693 258.434 94.574 260.34L79.6915 284.699L101.563 295.079C102.071 295.321 102.523 295.667 102.888 296.096C103.252 296.525 103.522 297.027 103.679 297.567C103.836 298.108 103.876 298.676 103.797 299.234C103.718 299.792 103.522 300.326 103.221 300.802L94.3923 314.783C94.0938 315.255 93.6997 315.658 93.2353 315.968C92.771 316.278 92.2468 316.487 91.6967 316.581C91.6749 316.585 91.6529 316.588 91.6309 316.591C91.0904 316.673 90.5389 316.643 90.0105 316.503C89.4821 316.363 88.988 316.116 88.5588 315.777Z" fill="#CCCCCC"/>
<path d="M93.7893 226.734C93.6996 226.471 93.6712 226.192 93.7061 225.916C93.7411 225.641 93.8386 225.377 93.9911 225.146C94.1437 224.914 94.3472 224.72 94.5861 224.579C94.825 224.438 95.093 224.354 95.3695 224.333C95.9357 224.364 96.4899 224.509 96.9984 224.76C97.507 225.011 97.9594 225.363 98.3284 225.793C99.085 226.666 99.9659 227.423 100.943 228.04C101.954 228.55 103.326 228.477 103.902 227.504C104.444 226.591 104.073 225.368 103.745 224.308C102.911 221.609 102.444 218.81 102.357 215.986C102.263 212.835 102.707 209.545 104.451 207.087C106.702 203.915 110.726 202.71 114.534 202.798C118.343 202.885 122.089 204.061 125.861 204.805C127.164 205.062 128.694 205.193 129.565 204.183C130.492 203.109 130.152 201.371 129.758 199.921C128.735 196.159 127.651 192.269 125.276 189.23C122.708 186.073 119.039 184.006 115.009 183.447C111.14 182.967 107.213 183.413 103.55 184.748C97.582 186.631 92.3306 190.291 88.4981 195.241C84.5473 200.504 82.8402 207.119 83.7499 213.638C84.6387 219.316 87.6457 224.446 92.1649 227.994L93.7893 226.734Z" fill="#0F2F66"/>
<path d="M358.581 496.369C353.019 493.945 348.096 490.261 344.2 485.607C340.305 480.953 337.543 475.457 336.134 469.552C334.725 463.648 334.707 457.496 336.081 451.583C337.455 445.67 340.183 440.158 344.051 435.48C339.566 438.757 335.83 442.95 333.089 447.781C330.348 452.613 328.665 457.972 328.153 463.504C327.64 469.036 328.309 474.614 330.116 479.867C331.922 485.121 334.824 489.93 338.63 493.975C342.436 498.02 347.058 501.209 352.19 503.33C357.322 505.452 362.846 506.456 368.395 506.278C373.945 506.1 379.393 504.742 384.378 502.296C389.363 499.85 393.772 496.371 397.31 492.09C391.791 496.126 385.311 498.645 378.516 499.396C371.721 500.147 364.848 499.103 358.581 496.369Z" fill="#3F3D56"/>
</svg>
