<?xml version="1.0" encoding="UTF-8"?><svg xmlns="http://www.w3.org/2000/svg" viewBox="0 0 980.25 309.79"><defs><style>.d{fill:#445aa8;}.e{opacity:.2;}.e,.f{stroke-width:14px;}.e,.f,.g{fill:none;stroke:#445aa8;}.g{stroke-linecap:round;stroke-linejoin:round;stroke-width:12px;}</style></defs><g id="a"/><g id="b"><g id="c"><g><g><path class="d" d="M324.73,256.68h-27.07l-35.17-40.35h-21.9v40.35h-22.76v-120.87c19.14,0,38.28,.17,57.42,.17,28.45,.17,43.45,19.14,43.45,40,0,16.55-7.59,33.28-30.52,37.93l36.55,41.21v1.55Zm-84.14-99.49v38.62h34.66c14.48,0,20.69-9.66,20.69-19.31s-6.38-19.31-20.69-19.31h-34.66Z"/><path class="d" d="M350.41,221.68c1.38,10.52,10.52,18.1,25.34,18.1,7.76,0,17.93-2.93,22.76-7.93l13.45,13.28c-8.97,9.31-23.62,13.79-36.55,13.79-29.31,0-46.73-18.1-46.73-45.35s17.59-44.48,45.17-44.48,46.21,17.59,42.93,52.59h-66.38Zm46.21-17.42c-1.38-11.03-10-16.55-22.07-16.55-11.38,0-20.69,5.52-23.79,16.55h45.86Z"/><path class="d" d="M495.58,256.68v-44.48c0-15.36-9.98-26.34-28.77-21.67-7.92,1.97-13.47,9.1-13.47,17.26v48.89h-20.86v-85.18h18.79l1.38,11.55c8.62-8.45,17.24-12.76,27.93-12.76,20,0,36.04,15,36.04,41.73v44.66h-21.04Z"/><path class="d" d="M560.74,147.71v24.14h23.45v18.11h-23.62v36.72c0,8.1,4.48,12.07,11.03,12.07,3.28,0,7.07-1.03,10.17-2.59l5.86,17.93c-6.03,2.41-11.03,3.45-17.41,3.62-18.45,.69-30.52-9.83-30.52-31.04v-36.72h-15.86v-18.11h15.86v-21.9l21.04-2.24Z"/><path class="d" d="M666.6,163.06l15.52,11.72-9.48,12.07c6.55,7.41,8.97,15.86,8.97,25.17,0,10.52-3.97,25.34-17.93,31.73,14.14,7.07,17.59,17.24,17.59,28.1,0,23.45-17.93,37.93-42.59,37.93s-43.11-15-43.11-37.93h20.86c0,11.03,10.17,18.28,22.24,18.28s21.55-6.55,21.55-18.28c0-12.64-12.83-17.87-24.01-16.97-18.23,1.46-34.81-10.85-38.95-28.66-8.07-34.72,13.61-57.3,41.4-57.3,6.73,0,13.62,.86,19.48,4.83l8.45-10.69Zm-50.17,48.97c0,14.83,10,23.62,22.24,23.62s22.07-8.97,22.07-23.62-10-23.97-22.07-23.97-22.24,9.14-22.24,23.97Z"/><path class="d" d="M762.46,171.68h20.17v85h-19.83l-1.03-12.41c-4.83,10-18.1,14.83-27.59,15-25.17,.17-43.79-15.35-43.79-45.17s19.48-44.66,44.31-44.48c11.38,0,22.24,5.35,27.07,13.79l.69-11.72Zm-51.04,42.42c0,25.19,27.07,34.55,49.5,16.44,10.51-8.49,10.45-24.78-.21-33.09-22.38-17.43-49.28-8.46-49.28,16.65Z"/><path class="d" d="M867.11,163.06l15.52,11.72-9.48,12.07c6.55,7.41,8.97,15.86,8.97,25.17,0,10.52-3.97,25.34-17.93,31.73,14.14,7.07,17.59,17.24,17.59,28.1,0,23.45-17.93,37.93-42.59,37.93s-43.11-15-43.11-37.93h20.86c0,11.03,10.17,18.28,22.24,18.28s21.55-6.55,21.55-18.28c0-12.64-12.83-17.87-24.01-16.97-18.23,1.46-34.81-10.85-38.95-28.66-8.07-34.72,13.61-57.3,41.4-57.3,6.72,0,13.62,.86,19.48,4.83l8.45-10.69Zm-50.17,48.97c0,14.83,10,23.62,22.24,23.62s22.07-8.97,22.07-23.62-10-23.97-22.07-23.97-22.24,9.14-22.24,23.97Z"/><path class="d" d="M913.48,221.68c1.38,10.52,10.52,18.1,25.35,18.1,7.76,0,17.93-2.93,22.76-7.93l13.45,13.28c-8.97,9.31-23.62,13.79-36.55,13.79-29.31,0-46.73-18.1-46.73-45.35s17.59-44.48,45.17-44.48,46.21,17.59,42.93,52.59h-66.38Zm46.21-17.42c-1.38-11.03-10-16.55-22.07-16.55-11.38,0-20.69,5.52-23.79,16.55h45.86Z"/></g><g><path class="f" d="M4.8,129.44L130.41,11.31c1.42-1.33,6.74-4.31,11-4.31,5.32,0,11.35,3.32,12.42,4.31"/><path class="e" d="M49.15,129.44L174.76,11.31c1.42-1.33,6.74-4.31,11-4.31,5.32,0,11.35,3.32,12.42,4.31"/><path class="f" d="M35.67,129.44v109.85c0,.32,0,.64,.04,.96,.56,4.88,4.5,13.91,16.44,14.92,.36,.03,.73,.04,1.09,.04h53.39"/><path class="g" d="M148.53,215.4c-11.58,0-22.68,4.3-30.86,11.94-8.19,7.65-12.78,18.02-12.78,28.83m68.58-80.23c0,6.18-2.63,12.11-7.3,16.48-4.68,4.37-11.02,6.83-17.64,6.83s-12.96-2.45-17.64-6.83c-4.68-4.37-7.3-10.3-7.3-16.48s2.63-12.11,7.3-16.48c4.68-4.37,11.02-6.83,17.64-6.83s12.96,2.45,17.64,6.83c4.68,4.37,7.3,10.3,7.3,16.48Z"/></g></g></g></g></svg>