<?xml version="1.0" encoding="UTF-8"?><svg xmlns="http://www.w3.org/2000/svg" viewBox="0 0 202.96 262.21"><defs><style>.d{opacity:.2;}.d,.e{stroke-width:14px;}.d,.e,.f{fill:none;stroke:#445aa8;}.f{stroke-linecap:round;stroke-linejoin:round;stroke-width:12px;}</style></defs><g id="a"/><g id="b"><g id="c"><g><path class="e" d="M4.8,129.44L130.41,11.31c1.42-1.33,6.74-4.31,11-4.31,5.32,0,11.35,3.32,12.42,4.31"/><path class="d" d="M49.15,129.44L174.76,11.31c1.42-1.33,6.74-4.31,11-4.31,5.32,0,11.35,3.32,12.42,4.31"/><path class="e" d="M35.67,129.44v109.85c0,.32,0,.64,.04,.96,.56,4.88,4.5,13.91,16.44,14.92,.36,.03,.73,.04,1.09,.04h53.39"/><path class="f" d="M148.53,215.4c-11.58,0-22.68,4.3-30.86,11.94-8.19,7.65-12.78,18.02-12.78,28.83m68.58-80.23c0,6.18-2.63,12.11-7.3,16.48-4.68,4.37-11.02,6.83-17.64,6.83s-12.96-2.45-17.64-6.83c-4.68-4.37-7.3-10.3-7.3-16.48s2.63-12.11,7.3-16.48c4.68-4.37,11.02-6.83,17.64-6.83s12.96,2.45,17.64,6.83c4.68,4.37,7.3,10.3,7.3,16.48Z"/></g></g></g></svg>