<svg width="80" height="80" viewBox="0 0 80 80" fill="none" xmlns="http://www.w3.org/2000/svg">
<circle opacity="0.35" cx="40" cy="40" r="40" fill="#E5F1FF"/>
<path d="M63.9082 22.2223H15.3564V22.9579H63.9082V22.2223Z" fill="white"/>
<path d="M66.8504 25.1648H10.9424V53.1188H66.8504V25.1648Z" fill="white"/>
<path d="M69.0572 53.1188H8.73535V57.5326H69.0572V53.1188Z" fill="#A6C6FF"/>
<path d="M55.0802 56.0614H22.7124V57.5327H55.0802V56.0614Z" fill="white"/>
<path d="M52.138 54.5901H25.6553V56.0614H52.138V54.5901Z" fill="white"/>
<path d="M49.9308 53.1188H27.8618V54.59H49.9308V53.1188Z" fill="white"/>
<path d="M66.8503 24.4292H43.3101V38.4062H66.8503V24.4292Z" fill="#005CE6"/>
<path d="M44.0457 24.4292H43.3101V38.4062H44.0457V24.4292Z" fill="#005CE6"/>
<path d="M66.8504 40.184L10.9424 41.3487V39.8774H66.8504V40.184Z" fill="#9BB8CC"/>
<path d="M43.3102 25.3181L10.9424 25.9004V25.1648H43.3102V25.3181Z" fill="#9BB8CC"/>
<path d="M66.8503 25.5437L43.3101 26.6361V25.1648H66.8503V25.5437Z" fill="#005CE6"/>
<path d="M46.9884 36.1993H45.5171V38.4062H46.9884V36.1993Z" fill="white"/>
<path d="M57.2874 36.1993H56.5518V38.4062H57.2874V36.1993Z" fill="white"/>
<path d="M52.138 36.1993H51.4023V38.4062H52.138V36.1993Z" fill="white"/>
<path d="M46.9884 36.1993H45.5171V36.935H46.9884V36.1993Z" fill="#9BB8CC"/>
<path d="M57.2874 36.1993H56.5518V36.935H57.2874V36.1993Z" fill="#9BB8CC"/>
<path d="M52.138 36.1993H51.4023V36.935H52.138V36.1993Z" fill="#9BB8CC"/>
<path d="M68.3216 35.4636H43.3101V36.1993H68.3216V35.4636Z" fill="white"/>
<path d="M31.5402 39.8774H28.5977V53.1188H31.5402V39.8774Z" fill="#005CE6"/>
<path d="M49.1955 39.8774H46.2529V53.1188H49.1955V39.8774Z" fill="#005CE6"/>
<path d="M31.5402 39.8774H28.5977V40.6131H31.5402V39.8774Z" fill="#005CE6"/>
<path d="M49.1955 39.8774H46.2529V40.6131H49.1955V39.8774Z" fill="#005CE6"/>
<path d="M68.3218 22.9579H9.47119V25.1648H68.3218V22.9579Z" fill="#133B53"/>
<path d="M68.3218 38.4061H9.47119V39.8774H68.3218V38.4061Z" fill="#133B53"/>
<path d="M72 56.797H8V57.5326H72V56.797Z" fill="#133B53"/>
<path d="M34.2762 53.1188H33.2175L33.0112 52.3832H34.4825L34.2762 53.1188Z" fill="#EF65AB"/>
<path d="M33.0112 51.6757L33.0523 52.3551L34.412 52.3832L34.4825 51.6476L33.0112 51.6757Z" fill="#EF65AB"/>
<path d="M35.1773 49.746C35.0865 49.3681 34.8407 49.0488 34.5031 48.8701C34.1766 48.7092 33.807 48.6643 33.4529 48.7427C32.9161 48.8435 32.465 49.1116 32.3301 49.685C32.2383 50.0932 32.2635 50.52 32.4027 50.914C32.5453 51.2582 32.842 51.5105 33.1988 51.5908C33.6535 51.7075 34.1345 51.643 34.5446 51.4103C34.6838 51.3225 34.8118 51.2173 34.9257 51.0971C35.0705 50.92 35.1607 50.7029 35.185 50.4733C35.232 50.233 35.2294 49.9852 35.1773 49.746Z" fill="#A6C6FF"/>
<path d="M32.8991 50.9119L32.5977 50.5977L32.2759 50.581V50.5524L32.5364 50.5358L32.2759 50.2382L32.3346 50.1763L33.0115 50.731L32.8991 50.9119Z" fill="#133B53"/>
<path d="M33.7471 49.9965L34.2438 49.7153L34.3234 49.4407L34.35 49.4472L34.3424 49.6499L34.4524 49.578L34.4827 49.6336L33.8988 50.1763L33.7471 49.9965Z" fill="#133B53"/>
<path d="M44.0459 52.3832L44.2276 50.1763H44.5652L44.7815 52.3393L44.0459 52.3832Z" fill="#133B53"/>
<path d="M44.575 53.1188H43.5164L43.3101 52.3832H44.7813L44.575 53.1188Z" fill="#EF65AB"/>
<path d="M43.3101 51.6757L43.3512 52.3551L44.7108 52.3832L44.7813 51.6476L43.3101 51.6757Z" fill="#EF65AB"/>
<path d="M45.4689 49.7448C45.3779 49.3666 45.1317 49.0471 44.7933 48.8682C44.47 48.7102 44.1048 48.6654 43.7541 48.7407C43.2162 48.8417 42.7642 49.1099 42.629 49.6837C42.537 50.0922 42.5623 50.5192 42.7018 50.9135C42.8447 51.258 43.142 51.5104 43.4994 51.5908C43.9551 51.7075 44.4371 51.643 44.8479 51.4102C44.9874 51.3223 45.1157 51.217 45.2298 51.0967C45.3749 50.9195 45.4653 50.7023 45.4896 50.4725C45.5325 50.2311 45.5254 49.9832 45.4689 49.7448Z" fill="#A6C6FF"/>
<path d="M43.9333 50.9119L43.6319 50.5977L43.3101 50.581V50.5524L43.5706 50.5358L43.3101 50.2382L43.3688 50.1763L44.0457 50.731L43.9333 50.9119Z" fill="#133B53"/>
<path d="M58.7585 27.3717H49.1953V38.4062H58.7585V27.3717Z" fill="white"/>
<path d="M58.0229 28.1073H54.3447V37.6705H58.0229V28.1073Z" fill="#133B53"/>
<path d="M53.6091 28.1073H49.1953V37.6705H53.6091V28.1073Z" fill="#133B53"/>
<path d="M15.356 45.7626H13.8848V51.6476H15.356V45.7626Z" fill="#133B53"/>
<path d="M15.356 43.5557H13.8848V45.0269H15.356V43.5557Z" fill="#133B53"/>
<path d="M23.4481 45.7626H16.0918V51.6476H23.4481V45.7626Z" fill="#133B53"/>
<path d="M23.4481 43.5557H16.0918V45.0269H23.4481V43.5557Z" fill="#133B53"/>
<path d="M25.6551 45.7626H23.4482V51.6476H25.6551V45.7626Z" fill="#133B53"/>
<path d="M25.6551 43.5557H23.4482V45.0269H25.6551V43.5557Z" fill="#133B53"/>
<path d="M13.4624 42.8199H13.1494V52.3832H25.6552V52.0944H13.4624V42.8199Z" fill="#9BB8CC"/>
<path d="M15.356 30.3142H13.8848V36.1993H15.356V30.3142Z" fill="#133B53"/>
<path d="M15.356 28.1073H13.8848V30.3142H15.356V28.1073Z" fill="#133B53"/>
<path d="M23.4481 30.3142H16.0918V36.1993H23.4481V30.3142Z" fill="#133B53"/>
<path d="M23.4481 28.1073H16.0918V30.3142H23.4481V28.1073Z" fill="#133B53"/>
<path d="M25.6551 30.3142H23.4482V36.1993H25.6551V30.3142Z" fill="#133B53"/>
<path d="M25.6551 28.1073H23.4482V30.3142H25.6551V28.1073Z" fill="#133B53"/>
<path d="M13.4624 28.1073H13.1494V36.9349H25.6552V36.6706H13.4624V28.1073Z" fill="#9BB8CC"/>
<path d="M31.5401 30.3142H30.0688V36.1993H31.5401V30.3142Z" fill="#133B53"/>
<path d="M31.5401 28.1073H30.0688V30.3142H31.5401V28.1073Z" fill="#133B53"/>
<path d="M38.8966 30.3142H32.2759V36.1993H38.8966V30.3142Z" fill="#133B53"/>
<path d="M38.8966 28.1073H32.2759V30.3142H38.8966V28.1073Z" fill="#133B53"/>
<path d="M41.1036 30.3142H39.6323V36.1993H41.1036V30.3142Z" fill="#133B53"/>
<path d="M41.1036 28.1073H39.6323V30.3142H41.1036V28.1073Z" fill="#133B53"/>
<path d="M28.9475 28.1073H28.5977V36.9349H42.5747V36.6706H28.9475V28.1073Z" fill="#9BB8CC"/>
<path d="M54.3446 45.7626H52.1377V51.6476H54.3446V45.7626Z" fill="#133B53"/>
<path d="M54.3446 43.5557H52.1377V45.0269H54.3446V43.5557Z" fill="#133B53"/>
<path d="M61.701 45.7626H54.3447V51.6476H61.701V45.7626Z" fill="#133B53"/>
<path d="M61.701 43.5557H54.3447V45.0269H61.701V43.5557Z" fill="#133B53"/>
<path d="M51.7338 42.8199H51.4023V52.3832H64.6437V52.0944H51.7338V42.8199Z" fill="#9BB8CC"/>
<path d="M41.8392 42.8199H35.9541V53.1188H41.8392V42.8199Z" fill="#133B53"/>
<path d="M43.3102 42.0844H35.2183V42.82H43.3102V42.0844Z" fill="#005CE6"/>
</svg>
