<svg width="154" height="51" viewBox="0 0 154 51" fill="none" xmlns="http://www.w3.org/2000/svg">
<path d="M152.755 44.154C152.755 44.7841 152.643 45.408 152.424 45.9901C152.206 46.5722 151.885 47.101 151.482 47.5463C151.078 47.9916 150.599 48.3447 150.072 48.5854C149.544 48.8261 148.979 48.9496 148.409 48.9489H6.1823C5.02955 48.9503 3.92351 48.4459 3.10744 47.5467C2.29136 46.6475 1.83207 45.4271 1.83057 44.154V5.91552C1.83207 4.64179 2.29118 3.42078 3.10709 2.52059C3.92301 1.62039 5.02903 1.1146 6.1823 1.11427H148.408C148.979 1.11427 149.544 1.23847 150.071 1.47977C150.599 1.72107 151.078 2.07475 151.481 2.5206C151.885 2.96645 152.205 3.49575 152.423 4.07826C152.642 4.66076 152.754 5.28507 152.754 5.91552L152.755 44.154Z" fill="white"/>
<path d="M-nan -nanL148.409 50.0644H6.18189C4.76183 50.0641 3.39989 49.4416 2.39491 48.3335C1.38992 47.2254 0.823991 45.7223 0.821289 44.1539L0.821289 5.91674C0.82339 4.34758 1.38895 2.84342 2.3939 1.73421C3.39885 0.624999 4.76113 0.00132443 6.18189 0L148.407 0C149.828 0.00198528 151.19 0.625872 152.195 1.73494C153.2 2.844 153.765 4.34779 153.768 5.91674V44.1539C153.77 47.414 151.361 50.0644 148.409 50.0644L-nan -nanZ" fill="#A6A6A6"/>
<path d="M152.755 44.154C152.755 44.7841 152.643 45.408 152.424 45.9901C152.206 46.5722 151.885 47.101 151.482 47.5463C151.078 47.9916 150.599 48.3447 150.072 48.5854C149.544 48.8261 148.979 48.9496 148.409 48.9489H6.1823C5.02955 48.9503 3.92351 48.4459 3.10744 47.5467C2.29136 46.6475 1.83207 45.4271 1.83057 44.154V5.91552C1.83207 4.64179 2.29118 3.42078 3.10709 2.52059C3.92301 1.62039 5.02903 1.1146 6.1823 1.11427H148.408C148.979 1.11427 149.544 1.23847 150.071 1.47977C150.599 1.72107 151.078 2.07475 151.481 2.5206C151.885 2.96645 152.205 3.49575 152.423 4.07826C152.642 4.66076 152.754 5.28507 152.754 5.91552L152.755 44.154Z" fill="#0F2F66"/>
<path d="M43.5006 25.4251C43.4746 22.4434 45.8632 20.9927 45.9724 20.9252C44.6197 18.8871 42.5229 18.6087 41.7861 18.5864C40.0251 18.3949 38.3169 19.6753 37.4199 19.6753C36.5049 19.6753 35.1235 18.605 33.6346 18.6364C31.7187 18.6669 29.9264 19.8132 28.9434 21.5932C26.9147 25.2225 28.4277 30.5559 30.3714 33.4895C31.3436 34.9272 32.4797 36.5305 33.9668 36.474C35.4216 36.413 35.965 35.5165 37.7207 35.5165C39.4602 35.5165 39.9705 36.474 41.4871 36.438C43.0485 36.413 44.0315 34.9948 44.9697 33.5451C46.0933 31.8992 46.5445 30.2765 46.5624 30.1933C46.5266 30.1803 43.531 28.998 43.5006 25.4251V25.4251ZM40.6357 16.6566C41.4182 15.6454 41.9535 14.2697 41.8049 12.8737C40.6724 12.9255 39.2561 13.6832 38.4405 14.6722C37.7189 15.5437 37.0743 16.9721 37.2408 18.3154C38.513 18.4134 39.8192 17.6521 40.6357 16.6566V16.6566Z" fill="white"/>
<path d="M65.1809 36.2179H63.1511L62.0392 32.3592H58.1745L57.1153 36.2179H55.1392L58.9691 23.081H61.334L65.1809 36.2179ZM61.704 30.7403L60.6985 27.31C60.5922 26.9595 60.392 26.1343 60.0988 24.8352H60.063C59.9451 25.3939 59.7565 26.2192 59.4982 27.31L58.5096 30.7403H61.704ZM75.0108 31.3651C75.0108 32.9762 74.6148 34.2496 73.8221 35.1844C73.1124 36.0166 72.2302 36.4321 71.1782 36.4321C70.0422 36.4321 69.2253 35.985 68.7292 35.0886V40.0589H66.8237V29.8588C66.8237 28.8469 66.7995 27.8095 66.7531 26.7453H68.4289L68.5353 28.2468H68.571C69.2065 27.1155 70.1709 26.5499 71.4651 26.5499C72.4769 26.5499 73.3215 26.9911 73.9972 27.8746C74.672 28.7601 75.0108 29.9229 75.0108 31.3651ZM73.0695 31.4421C73.0695 30.5202 72.8818 29.76 72.5046 29.1609C72.0926 28.538 71.5393 28.226 70.8457 28.226C70.3756 28.226 69.9484 28.3998 69.5667 28.7423C69.1842 29.0878 68.9339 29.5389 68.8168 30.0977C68.7646 30.3066 68.7349 30.5216 68.7283 30.7383V32.3187C68.7283 33.0068 68.9196 33.5882 69.3022 34.064C69.6847 34.5378 70.1816 34.7757 70.793 34.7757C71.5107 34.7757 72.0693 34.4687 72.4689 33.8597C72.8693 33.2486 73.0695 32.4431 73.0695 31.4421ZM84.8756 31.3651C84.8756 32.9762 84.4796 34.2496 83.6868 35.1844C82.9763 36.0166 82.095 36.4321 81.0421 36.4321C79.9061 36.4321 79.0892 35.985 78.5931 35.0886V40.0589H76.6875V29.8588C76.6875 28.8469 76.6634 27.8095 76.6169 26.7453H78.2928L78.3992 28.2468H78.4349C79.0695 27.1155 80.0339 26.5499 81.329 26.5499C82.3399 26.5499 83.1845 26.9911 83.862 27.8746C84.5359 28.7601 84.8756 29.9229 84.8756 31.3651ZM82.9333 31.4421C82.9333 30.5202 82.7448 29.76 82.3676 29.1609C81.9555 28.538 81.4041 28.226 80.7105 28.226C80.2404 28.226 79.8131 28.3998 79.4297 28.7423C79.0472 29.0878 78.7978 29.5389 78.6807 30.0977C78.6226 30.3583 78.5913 30.5705 78.5913 30.7383V32.3187C78.5913 33.0068 78.7835 33.5882 79.1642 34.064C79.5468 34.5368 80.0437 34.7757 80.6569 34.7757C81.3755 34.7757 81.9341 34.4687 82.3327 33.8597C82.7331 33.2486 82.9333 32.4431 82.9333 31.4421ZM95.9049 32.5329C95.9049 33.6514 95.551 34.5605 94.8476 35.2624C94.0736 36.0284 92.993 36.4124 91.6076 36.4124C90.3277 36.4124 89.3016 36.1399 88.5276 35.5941L88.9682 33.8399C89.8039 34.3868 90.7218 34.6592 91.7211 34.6592C92.4397 34.6592 92.9983 34.4796 93.3969 34.1232C93.7965 33.7659 93.9985 33.2881 93.9985 32.6919C93.9985 32.1578 93.8313 31.7106 93.5033 31.3464C93.1735 30.9831 92.6283 30.6445 91.8623 30.3336C89.7798 29.4758 88.7376 28.2211 88.7376 26.5706C88.7376 25.4926 89.1059 24.6101 89.8406 23.9201C90.5753 23.2311 91.5495 22.8866 92.7615 22.8866C93.8438 22.8866 94.7457 23.0949 95.4616 23.5105L94.9834 25.2261C94.3095 24.8234 93.5489 24.622 92.698 24.622C92.0259 24.622 91.4985 24.8046 91.1214 25.1679C90.8041 25.4926 90.6432 25.8885 90.6432 26.3584C90.6432 26.8766 90.8264 27.307 91.1911 27.6446C91.5075 27.9556 92.0849 28.2941 92.9197 28.6574C93.9439 29.1135 94.6965 29.6446 95.1783 30.2546C95.6636 30.8647 95.9049 31.6257 95.9049 32.5329ZM102.221 28.3247H100.121V32.9238C100.121 34.0936 100.491 34.677 101.233 34.677C101.573 34.677 101.856 34.6454 102.079 34.5793L102.132 36.1775C101.757 36.3324 101.262 36.4104 100.65 36.4104C99.8975 36.4104 99.3094 36.1567 98.8848 35.6493C98.4621 35.1419 98.2493 34.292 98.2493 33.0956V28.3208H96.998V26.7414H98.2493V25.007L100.121 24.3831V26.7414H102.221V28.3247ZM111.679 31.4036C111.679 32.8597 111.302 34.0551 110.55 34.9899C109.762 35.9524 108.715 36.4321 107.409 36.4321C106.149 36.4321 105.147 35.9711 104.4 35.0501C103.652 34.1272 103.279 32.9643 103.279 31.5616C103.279 30.0937 103.665 28.8914 104.434 27.9565C105.206 27.0207 106.244 26.5528 107.55 26.5528C108.809 26.5528 109.819 27.0148 110.585 27.9368C111.316 28.8311 111.679 29.9861 111.679 31.4036ZM109.704 31.452C109.704 30.5843 109.534 29.84 109.194 29.2171C108.794 28.4649 108.222 28.0888 107.481 28.0888C106.718 28.0888 106.133 28.4649 105.734 29.2171C105.393 29.84 105.223 30.5971 105.223 31.4915C105.223 32.3602 105.393 33.1065 105.734 33.7274C106.146 34.4796 106.721 34.8557 107.465 34.8557C108.194 34.8557 108.765 34.4717 109.178 33.7086C109.528 33.0709 109.704 32.3217 109.704 31.452ZM117.876 28.5962C117.678 28.5567 117.477 28.5372 117.275 28.538C116.605 28.538 116.087 28.8163 115.722 29.377C115.406 29.8706 115.247 30.4945 115.247 31.2477V36.2179H113.341V29.7285C113.343 28.7341 113.324 27.7398 113.286 26.7463H114.945L115.015 28.5587H115.068C115.27 27.9358 115.586 27.4334 116.021 27.0573C116.418 26.7286 116.901 26.5506 117.398 26.5499C117.574 26.5499 117.733 26.5637 117.874 26.5884L117.876 28.5962ZM126.398 31.0335C126.403 31.3534 126.38 31.6731 126.329 31.988H120.612C120.633 32.9238 120.91 33.6405 121.441 34.1341C121.923 34.5743 122.546 34.7955 123.311 34.7955C124.158 34.7955 124.93 34.6474 125.624 34.3483L125.923 35.8083C125.111 36.1992 124.153 36.3936 123.048 36.3936C121.718 36.3936 120.674 35.9613 119.914 35.0985C119.156 34.2348 118.776 33.0739 118.776 31.6198C118.776 30.1924 119.129 29.0029 119.836 28.0543C120.576 27.0415 121.576 26.5351 122.835 26.5351C124.071 26.5351 125.007 27.0415 125.642 28.0543C126.145 28.8568 126.398 29.8519 126.398 31.0335ZM124.581 30.4876C124.595 29.8627 124.47 29.3247 124.211 28.8696C123.881 28.2833 123.374 27.9911 122.694 27.9911C122.071 27.9911 121.563 28.2764 121.177 28.8489C120.86 29.304 120.671 29.8509 120.613 30.4856L124.581 30.4876Z" fill="white"/>
<path d="M57.9164 18.096C57.3511 18.096 56.8658 17.976 56.4604 17.736C56.0551 17.4907 55.7431 17.152 55.5244 16.72C55.3058 16.2827 55.1964 15.7787 55.1964 15.208C55.1964 14.6373 55.3058 14.1333 55.5244 13.696C55.7431 13.2587 56.0551 12.9173 56.4604 12.672C56.8658 12.4267 57.3511 12.304 57.9164 12.304C58.5884 12.304 59.1378 12.472 59.5644 12.808C59.9964 13.1387 60.2658 13.6053 60.3724 14.208H59.2444C59.1751 13.904 59.0258 13.6667 58.7964 13.496C58.5724 13.32 58.2738 13.232 57.9004 13.232C57.3831 13.232 56.9778 13.408 56.6844 13.76C56.3911 14.112 56.2444 14.5947 56.2444 15.208C56.2444 15.8213 56.3911 16.304 56.6844 16.656C56.9778 17.0027 57.3831 17.176 57.9004 17.176C58.2738 17.176 58.5724 17.096 58.7964 16.936C59.0258 16.7707 59.1751 16.544 59.2444 16.256H60.3724C60.2658 16.832 59.9964 17.2827 59.5644 17.608C59.1378 17.9333 58.5884 18.096 57.9164 18.096ZM63.9029 18.096C63.3429 18.096 62.8522 17.9733 62.4309 17.728C62.0149 17.4827 61.6869 17.144 61.4469 16.712C61.2122 16.2747 61.0949 15.7707 61.0949 15.2C61.0949 14.6293 61.2122 14.128 61.4469 13.696C61.6869 13.2587 62.0149 12.9173 62.4309 12.672C62.8522 12.4267 63.3429 12.304 63.9029 12.304C64.4575 12.304 64.9455 12.4267 65.3669 12.672C65.7882 12.9173 66.1162 13.2587 66.3509 13.696C66.5855 14.128 66.7029 14.6293 66.7029 15.2C66.7029 15.7707 66.5855 16.2747 66.3509 16.712C66.1162 17.144 65.7882 17.4827 65.3669 17.728C64.9455 17.9733 64.4575 18.096 63.9029 18.096ZM63.9029 17.176C64.4362 17.176 64.8602 17 65.1749 16.648C65.4949 16.296 65.6549 15.8133 65.6549 15.2C65.6549 14.5867 65.4949 14.104 65.1749 13.752C64.8602 13.4 64.4362 13.224 63.9029 13.224C63.3695 13.224 62.9429 13.4 62.6229 13.752C62.3029 14.104 62.1429 14.5867 62.1429 15.2C62.1429 15.8133 62.3029 16.296 62.6229 16.648C62.9429 17 63.3695 17.176 63.9029 17.176ZM67.607 18V12.4H68.823L70.607 15.952L72.367 12.4H73.583V18H72.559V14.136L70.999 17.2H70.191L68.631 14.136V18H67.607ZM74.6695 18V12.4H75.6935V18H74.6695ZM76.7789 18V12.4H77.8029L80.4349 16.344V12.4H81.4589V18H80.4349L77.8029 14.064V18H76.7789ZM84.9925 18.096C84.4645 18.096 84.0032 17.976 83.6085 17.736C83.2138 17.496 82.9072 17.1627 82.6885 16.736C82.4698 16.304 82.3605 15.8027 82.3605 15.232C82.3605 14.656 82.4725 14.1493 82.6965 13.712C82.9258 13.2693 83.2485 12.9253 83.6645 12.68C84.0858 12.4293 84.5845 12.304 85.1605 12.304C85.8165 12.304 86.3605 12.4613 86.7925 12.776C87.2245 13.0907 87.5045 13.5253 87.6325 14.08H86.4885C86.4032 13.8187 86.2485 13.616 86.0245 13.472C85.8005 13.3227 85.5125 13.248 85.1605 13.248C84.6005 13.248 84.1685 13.4267 83.8645 13.784C83.5605 14.136 83.4085 14.6213 83.4085 15.24C83.4085 15.8587 83.5578 16.3387 83.8565 16.68C84.1605 17.016 84.5712 17.184 85.0885 17.184C85.5952 17.184 85.9765 17.048 86.2325 16.776C86.4938 16.4987 86.6512 16.136 86.7045 15.688H85.2885V14.92H87.7365V18H86.7925L86.7125 17.264C86.5312 17.5307 86.3045 17.736 86.0325 17.88C85.7605 18.024 85.4138 18.096 84.9925 18.096ZM92.5502 18.096C92.1396 18.096 91.7769 18.0267 91.4622 17.888C91.1476 17.744 90.8996 17.5413 90.7182 17.28C90.5369 17.0133 90.4436 16.6907 90.4382 16.312H91.5182C91.5289 16.5733 91.6222 16.7947 91.7982 16.976C91.9796 17.152 92.2276 17.24 92.5422 17.24C92.8142 17.24 93.0302 17.176 93.1902 17.048C93.3502 16.9147 93.4302 16.7387 93.4302 16.52C93.4302 16.2907 93.3582 16.112 93.2142 15.984C93.0756 15.856 92.8889 15.752 92.6542 15.672C92.4196 15.592 92.1689 15.5067 91.9022 15.416C91.4702 15.2667 91.1396 15.0747 90.9102 14.84C90.6862 14.6053 90.5742 14.2933 90.5742 13.904C90.5689 13.5733 90.6462 13.2907 90.8062 13.056C90.9716 12.816 91.1956 12.632 91.4782 12.504C91.7609 12.3707 92.0862 12.304 92.4542 12.304C92.8276 12.304 93.1556 12.3707 93.4382 12.504C93.7262 12.6373 93.9502 12.824 94.1102 13.064C94.2756 13.304 94.3636 13.5893 94.3742 13.92H93.2782C93.2729 13.7227 93.1956 13.5493 93.0462 13.4C92.9022 13.2453 92.6996 13.168 92.4382 13.168C92.2142 13.1627 92.0249 13.2187 91.8702 13.336C91.7209 13.448 91.6462 13.6133 91.6462 13.832C91.6462 14.0187 91.7049 14.168 91.8222 14.28C91.9396 14.3867 92.0996 14.4773 92.3022 14.552C92.5049 14.6267 92.7369 14.7067 92.9982 14.792C93.2756 14.888 93.5289 15 93.7582 15.128C93.9876 15.256 94.1716 15.4267 94.3102 15.64C94.4489 15.848 94.5182 16.1173 94.5182 16.448C94.5182 16.7413 94.4436 17.0133 94.2942 17.264C94.1449 17.5147 93.9236 17.7173 93.6302 17.872C93.3369 18.0213 92.9769 18.096 92.5502 18.096ZM98.0357 18.096C97.4757 18.096 96.985 17.9733 96.5637 17.728C96.1477 17.4827 95.8197 17.144 95.5797 16.712C95.345 16.2747 95.2277 15.7707 95.2277 15.2C95.2277 14.6293 95.345 14.128 95.5797 13.696C95.8197 13.2587 96.1477 12.9173 96.5637 12.672C96.985 12.4267 97.4757 12.304 98.0357 12.304C98.5903 12.304 99.0783 12.4267 99.4997 12.672C99.921 12.9173 100.249 13.2587 100.484 13.696C100.718 14.128 100.836 14.6293 100.836 15.2C100.836 15.7707 100.718 16.2747 100.484 16.712C100.249 17.144 99.921 17.4827 99.4997 17.728C99.0783 17.9733 98.5903 18.096 98.0357 18.096ZM98.0357 17.176C98.569 17.176 98.993 17 99.3077 16.648C99.6277 16.296 99.7877 15.8133 99.7877 15.2C99.7877 14.5867 99.6277 14.104 99.3077 13.752C98.993 13.4 98.569 13.224 98.0357 13.224C97.5023 13.224 97.0757 13.4 96.7557 13.752C96.4357 14.104 96.2757 14.5867 96.2757 15.2C96.2757 15.8133 96.4357 16.296 96.7557 16.648C97.0757 17 97.5023 17.176 98.0357 17.176ZM104.364 18.096C103.804 18.096 103.313 17.9733 102.892 17.728C102.476 17.4827 102.148 17.144 101.908 16.712C101.673 16.2747 101.556 15.7707 101.556 15.2C101.556 14.6293 101.673 14.128 101.908 13.696C102.148 13.2587 102.476 12.9173 102.892 12.672C103.313 12.4267 103.804 12.304 104.364 12.304C104.918 12.304 105.406 12.4267 105.828 12.672C106.249 12.9173 106.577 13.2587 106.812 13.696C107.046 14.128 107.164 14.6293 107.164 15.2C107.164 15.7707 107.046 16.2747 106.812 16.712C106.577 17.144 106.249 17.4827 105.828 17.728C105.406 17.9733 104.918 18.096 104.364 18.096ZM104.364 17.176C104.897 17.176 105.321 17 105.636 16.648C105.956 16.296 106.116 15.8133 106.116 15.2C106.116 14.5867 105.956 14.104 105.636 13.752C105.321 13.4 104.897 13.224 104.364 13.224C103.83 13.224 103.404 13.4 103.084 13.752C102.764 14.104 102.604 14.5867 102.604 15.2C102.604 15.8133 102.764 16.296 103.084 16.648C103.404 17 103.83 17.176 104.364 17.176ZM108.068 18V12.4H109.092L111.724 16.344V12.4H112.748V18H111.724L109.092 14.064V18H108.068ZM118.364 18.096C117.804 18.096 117.313 17.9733 116.892 17.728C116.476 17.4827 116.148 17.144 115.908 16.712C115.673 16.2747 115.556 15.7707 115.556 15.2C115.556 14.6293 115.673 14.128 115.908 13.696C116.148 13.2587 116.476 12.9173 116.892 12.672C117.313 12.4267 117.804 12.304 118.364 12.304C118.918 12.304 119.406 12.4267 119.828 12.672C120.249 12.9173 120.577 13.2587 120.812 13.696C121.046 14.128 121.164 14.6293 121.164 15.2C121.164 15.7707 121.046 16.2747 120.812 16.712C120.577 17.144 120.249 17.4827 119.828 17.728C119.406 17.9733 118.918 18.096 118.364 18.096ZM118.364 17.176C118.897 17.176 119.321 17 119.636 16.648C119.956 16.296 120.116 15.8133 120.116 15.2C120.116 14.5867 119.956 14.104 119.636 13.752C119.321 13.4 118.897 13.224 118.364 13.224C117.83 13.224 117.404 13.4 117.084 13.752C116.764 14.104 116.604 14.5867 116.604 15.2C116.604 15.8133 116.764 16.296 117.084 16.648C117.404 17 117.83 17.176 118.364 17.176ZM122.068 18V12.4H123.092L125.724 16.344V12.4H126.748V18H125.724L123.092 14.064V18H122.068Z" fill="white"/>
</svg>
