<svg width="80" height="80" viewBox="0 0 80 80" fill="none" xmlns="http://www.w3.org/2000/svg">
<ellipse opacity="0.35" cx="39.5604" cy="40" rx="39.5604" ry="40" fill="#E5F1FF"/>
<g clip-path="url(#clip0)">
<path d="M76.3158 33.2012C76.311 33.2489 76.3058 33.2968 76.3007 33.3444C76.1883 34.3589 76.0041 35.3641 75.7494 36.3523C75.7461 36.3659 75.7425 36.3794 75.7392 36.393C75.72 36.4672 75.7016 36.5407 75.6836 36.614H45.8311V16.1606C46.2511 15.8787 46.6853 15.6186 47.1318 15.3812C50.1379 13.7786 53.7374 13.1439 57.3693 13.3842C59.4266 13.5224 61.4569 13.9302 63.4085 14.5974C63.8558 14.7499 64.2981 14.9163 64.7354 15.0966C65.1122 15.2514 65.4843 15.4162 65.8519 15.5911C66.1705 15.7426 66.4853 15.9017 66.7961 16.0683C70.5648 18.0882 73.69 21.1811 75.2805 25.2032C75.7981 26.5163 76.1411 27.892 76.3007 29.2949C76.447 30.5926 76.4521 31.9024 76.3158 33.2012Z" fill="#F8FBFF"/>
<path d="M71.986 32.7042V36.6139H45.8313V24.3686H48.1631V28.0898H50.8223V22.0258H53.7562V25.9625H54.4254V21.2633H57.359V30.0741H61.0694V35.2123H62.4555V32.9246H65.6405V34.2777H67.4688V28.2212H69.7275V32.7042H71.986Z" fill="#E7F1FB"/>
<path d="M75.6793 36.6316C75.6724 36.6617 75.6658 36.6888 75.6592 36.7175C75.6115 36.9211 75.5688 37.1208 75.5311 37.3165C75.5248 37.3467 75.5191 37.3768 75.5137 37.4085C75.4975 37.4941 75.4836 37.5785 75.4689 37.6626C75.4224 37.944 75.386 38.2165 75.3598 38.4802H42.3909V36.6138H75.4211C75.5075 36.6137 75.5938 36.6197 75.6793 36.6316Z" fill="#F9DDBF"/>
<path d="M45.831 16.1603C46.2511 15.8785 46.6852 15.6184 47.1318 15.381V36.7205H45.8052V16.1778L45.831 16.1603Z" fill="#F9DDBF"/>
<path d="M64.7353 15.0955V36.7193H63.4084V14.5972C63.8558 14.7491 64.2981 14.9152 64.7353 15.0955Z" fill="#F9DDBF"/>
<path d="M51.4928 46.4677C51.359 46.7737 50.073 47.0574 48.1645 47.3085C47.8281 47.3528 47.4731 47.3959 47.1006 47.4382C40.6051 48.1747 22.8151 48.5856 21.7185 48.3685C20.2031 48.067 17.188 33.4015 17.188 33.4015C17.188 33.4015 26.0659 33.2534 33.1163 33.1814C35.5284 33.157 43.9184 33.0955 45.474 33.0955C47.8837 33.0955 51.709 45.9723 51.4928 46.4677Z" fill="#EFCBAB"/>
<path d="M65.2107 53.1178C64.7567 55.8613 61.7885 57.6072 58.7443 57.6072H52.7144L53.186 41.6208C53.186 41.6208 58.9394 39.8798 60.3841 41.5361C61.6503 42.9871 65.0832 48.7316 65.2639 52.1317C65.2819 52.4614 65.2641 52.792 65.2107 53.1178Z" fill="#F9DDBF"/>
<path d="M65.2107 53.1178C64.7568 55.8613 61.7886 57.6072 58.7443 57.6072H55.7866C57.7589 56.3464 59.5424 52.4615 65.2107 53.1178Z" fill="#EAC3A0"/>
<path d="M49.2041 43.3136C49.2041 43.3136 57.3383 39.3986 58.8789 41.957C59.6968 43.3136 61.9481 48.7325 62.1143 52.1323C62.2757 55.4359 59.2408 57.6078 56.1187 57.6078H50.5743L49.2041 43.3136Z" fill="#C6916D"/>
<path d="M51.5985 25.4183C51.5985 25.4183 52.972 26.705 51.5967 28.0496C51.5967 28.0496 52.684 28.2076 53.0679 27.9212C53.0679 27.9212 52.9882 28.0656 52.9176 28.1292C52.9176 28.1292 54.1366 28.2296 54.6584 27.8708C55.1803 27.5121 55.1436 21.2313 51.7221 21.7752C51.7221 21.7752 48.8594 21.4252 48.9742 24.771C49.089 28.1169 48.0042 28.0671 48.0042 28.0671C48.0042 28.0671 48.299 28.2302 48.4445 28.2368C48.4445 28.2368 48.6613 28.1654 48.7085 28.0493C48.7085 28.0493 48.658 28.2326 48.6009 28.2905C48.6009 28.2905 49.7663 28.4557 50.3714 28.0394C50.9766 27.623 51.7338 26.1138 51.5985 25.4183Z" fill="#233862"/>
<path d="M39.9756 32.9237C39.9756 32.9237 39.5346 32.6524 39.4726 32.644C39.4203 32.6373 39.3338 32.8456 39.7793 33.051C40.1054 33.2011 39.9756 32.9237 39.9756 32.9237Z" fill="#FFB27D"/>
<path d="M49.0172 29.8697C49.0172 29.8697 46.6028 33.186 45.973 33.4106C45.3432 33.6352 40.9609 33.8025 40.9609 33.8025L41.3983 34.5816C41.3983 34.5816 45.2049 35.4718 46.2781 35.1637C47.3347 34.8604 50.5419 31.8242 50.7644 31.4202C50.9868 31.0162 50.0952 29.7334 49.0172 29.8697Z" fill="#FFB27D"/>
<path d="M46.1525 34.1489C46.1525 34.1489 45.4695 33.1491 45.373 33.1063C45.2765 33.0635 44.6128 32.9131 44.6128 32.9131C44.6128 32.9131 44.7932 33.3997 44.9627 33.4533C45.1322 33.507 45.1731 33.5953 45.1731 33.5953C45.1731 33.5953 45.2753 33.9303 45.2333 33.901C45.1431 33.8371 44.9534 33.5197 44.9477 33.6538C44.942 33.788 45.098 34.0551 45.1653 34.327C45.2327 34.599 45.9331 34.7838 45.9331 34.7838L46.1525 34.1489Z" fill="#FFB27D"/>
<path d="M39.5556 29.7264L43.9117 29.8521C43.9734 29.8539 44.0329 29.876 44.0807 29.9152C44.1286 29.9543 44.1622 30.0083 44.1762 30.0686L45.1658 34.3267C45.1759 34.3701 45.1756 34.4152 45.1648 34.4583C45.1541 34.5015 45.1332 34.5415 45.1041 34.575C45.0749 34.6084 45.0381 34.6345 44.9969 34.6509C44.9557 34.6674 44.9112 34.6738 44.867 34.6695L40.5825 34.2631C40.5257 34.2578 40.4719 34.2352 40.4283 34.1982C40.3847 34.1613 40.3534 34.1119 40.3387 34.0566L39.2772 30.0792C39.266 30.037 39.2648 29.9927 39.2737 29.9499C39.2825 29.9072 39.3012 29.8671 39.3282 29.8328C39.3553 29.7986 39.3899 29.7711 39.4294 29.7526C39.4688 29.7342 39.5121 29.7252 39.5556 29.7264Z" fill="#173E77"/>
<path d="M39.177 29.715L43.5334 29.8407C43.5951 29.8426 43.6545 29.8648 43.7023 29.904C43.75 29.9432 43.7836 29.9972 43.7977 30.0574L44.7876 34.3141C44.7976 34.3574 44.7973 34.4025 44.7865 34.4457C44.7758 34.4888 44.755 34.5288 44.7258 34.5623C44.6966 34.5959 44.6599 34.6219 44.6187 34.6384C44.5775 34.6549 44.5329 34.6613 44.4888 34.6571L40.2033 34.252C40.1465 34.2466 40.0926 34.2239 40.0491 34.1869C40.0055 34.1499 39.9742 34.1005 39.9595 34.0451L38.8986 30.068C38.8874 30.0258 38.8861 29.9815 38.895 29.9387C38.9038 29.8959 38.9225 29.8557 38.9495 29.8214C38.9765 29.7871 39.0112 29.7597 39.0507 29.7412C39.0902 29.7227 39.1334 29.7137 39.177 29.715Z" fill="#005CE6"/>
<path d="M41.3021 31.929C41.2694 31.7783 41.3595 31.6701 41.5035 31.6897C41.6475 31.7093 41.7912 31.8482 41.8243 31.9999C41.8574 32.1515 41.7669 32.2586 41.6229 32.239C41.4789 32.2194 41.3352 32.0807 41.3021 31.929Z" fill="#173E77"/>
<path d="M39.2541 30.1151C39.2379 30.0406 39.282 29.9878 39.353 29.9975C39.3909 30.0054 39.4259 30.0239 39.4538 30.0509C39.4816 30.0779 39.5013 30.1123 39.5105 30.15C39.5264 30.2245 39.4822 30.277 39.4116 30.2673C39.3737 30.2595 39.3387 30.241 39.3109 30.2141C39.283 30.1871 39.2633 30.1528 39.2541 30.1151Z" fill="#173E77"/>
<path d="M38.1186 39.3446C36.4286 39.9991 30.9972 42.2506 27.8153 42.7441C26.7893 42.9033 27.359 43.9802 27.3674 43.985C27.5778 44.1357 34.1632 44.3142 38.0062 42.884C39.2498 42.4212 40.8019 41.9862 40.6816 40.8207C40.6074 40.1025 39.061 38.9795 38.1186 39.3446Z" fill="#B8C8DD"/>
<path d="M54.9866 44.6634C54.2525 46.0647 52.6019 47.0451 51.1268 46.4822C38.4992 41.6585 36.5019 43.2244 37.8847 41.2467C39.6559 38.7142 51.3363 40.177 52.3289 40.5035C53.2214 40.7975 56.5351 41.7073 54.9866 44.6634Z" fill="#B8C8DD"/>
<path d="M48.9351 31.466C49.3319 31.7702 49.8369 32.0292 50.4742 32.2083C52.8679 32.8809 53.8894 30.8727 54.3021 29.4808C53.9811 29.2761 53.6709 29.22 53.4941 29.1904C53.3173 29.1609 53.137 29.1392 52.9849 29.1247C52.7227 28.9034 52.3572 28.0306 52.3283 26.7002L52.2132 26.7255L50.2821 27.1609C50.2821 27.1609 50.3422 27.7729 50.3581 28.3496C50.3705 28.8018 50.356 29.2305 50.2662 29.3318C50.1159 29.3575 50.0257 29.3743 50.0257 29.3743C50.0258 29.3749 50.0258 29.3756 50.0257 29.3761C49.5963 30.0362 49.2311 30.736 48.9351 31.466Z" fill="#FFB27D"/>
<path d="M50.2822 27.1615C50.2822 27.1615 50.3423 27.7729 50.358 28.3499C51.4435 28.2911 51.9921 27.2827 52.2133 26.7258L50.2822 27.1615Z" fill="#E09868"/>
<path d="M49.9335 27.7171C49.9335 27.7171 52.5043 27.6936 52.4649 26.0891C52.4256 24.4847 52.7313 23.3993 51.0881 23.3457C49.445 23.292 49.1411 23.913 49.0242 24.4524C48.9072 24.9917 49.2638 27.6816 49.9335 27.7171Z" fill="#FFB27D"/>
<path d="M49.0779 23.5576C49.4626 23.0647 49.7657 23.1629 49.9376 23.3037C51.3222 22.493 52.2568 23.6149 52.2568 23.6149C52.4579 24.7623 53.3032 25.4008 53.3032 25.4008C53.3032 25.4008 52.8421 25.7023 51.7551 25.4524C51.4244 25.3758 51.1238 25.1482 50.865 24.8696C51.3207 25.5932 51.9291 26.1057 51.9291 26.1057C50.6242 25.541 50.0602 23.7541 50.0052 23.5663C49.8519 23.7116 49.5504 24.0264 49.4641 24.3297C49.3466 24.7418 48.893 25.3734 48.6462 25.3511C48.6444 25.3523 48.5001 24.2971 49.0779 23.5576Z" fill="#233862"/>
<path d="M56.1974 36.8267C56.0556 35.5632 55.797 31.4247 55.1119 29.8625C54.866 29.3014 53.9564 28.8646 52.7867 28.8585C52.4128 29.0771 50.9876 29.9019 50.4239 29.7648L50.3939 29.756C50.1291 29.6764 50.0368 29.4829 50.2673 29.3306C50.2673 29.3306 50.0593 29.3026 49.3354 29.4051C48.9263 29.463 47.7161 30.4268 47.7161 30.4268C47.7161 30.4268 48.1225 31.4666 48.9185 31.8489C48.7234 33.0817 48.8085 32.8375 49.4966 35.9017C49.7091 36.8487 49.0781 38.8165 49.0781 38.8165C49.0781 38.8165 54.0457 46.4792 55.6663 44.424C56.6502 43.1747 56.37 38.3648 56.1974 36.8267Z" fill="#005CE6"/>
<path d="M49.4954 26.7747C49.4954 26.7747 49.9451 26.5486 50.6248 26.6355C50.6248 26.6355 50.3734 27.0418 49.869 27.0451C49.5822 27.0485 49.4954 26.7747 49.4954 26.7747Z" fill="white"/>
<path d="M54.3019 46.0661C52.9558 46.8928 51.2236 46.7137 50.0579 45.6462C46.661 42.5358 39.1593 35.3376 41.3565 34.3488C44.1714 33.0825 53.4572 40.338 54.1432 41.1285C54.7603 41.8391 57.142 44.3233 54.3019 46.0661Z" fill="#C9D9EE"/>
<path d="M31.2061 45.8494L35.0776 45.8084C35.0776 45.8084 35.2204 45.2215 34.9826 44.8187C34.7722 44.4626 34.8557 44.2615 35.0169 43.97C34.8207 44.0528 34.6087 44.0908 34.3961 44.0812C34.213 44.0689 34.02 43.9839 33.8511 43.8832C33.6912 44.0641 33.0061 44.8271 32.793 44.9776C32.551 45.1488 31.2866 45.1521 31.2061 45.8494Z" fill="#005CE6"/>
<path d="M40.8425 34.8354C39.8595 36.3615 36.021 41.4077 33.737 43.6851C33.0005 44.4189 35.0596 44.9067 35.0696 44.9067C35.3293 44.9067 37.4717 43.3468 37.6849 43.196C40.3413 41.3061 42.8854 40.1888 43.1635 38.6811C43.4069 37.3633 44.5628 35.3895 43.7824 34.5176C43.2996 33.9807 41.3905 33.9843 40.8425 34.8354Z" fill="#C9D9EE"/>
<path d="M53.1658 30.425C53.1658 30.425 50.6708 34.9729 50.2887 35.1152C49.9067 35.2575 45.8418 34.0579 45.8418 34.0579L45.8118 34.7194C45.8118 34.7194 49.2667 37.1614 51.052 36.9805C51.7581 36.9087 54.904 32.9777 54.7296 32.1758C54.5553 31.3738 53.1658 30.425 53.1658 30.425Z" fill="#FFB27D"/>
<path d="M51.8254 32.0931C51.8254 32.0931 52.9678 33.3123 54.591 32.9038C54.591 32.9038 55.9483 30.5893 53.9709 29.4892C53.9712 29.4904 52.8752 29.4129 51.8254 32.0931Z" fill="#005CE6"/>
<path d="M39.6794 32.9927C39.6794 32.9927 39.2676 32.936 39.4991 33.5197C39.6632 33.9312 40.262 34.0428 40.3107 33.917C40.3783 33.7413 40.4102 33.476 39.6794 32.9927Z" fill="#FFB27D"/>
<path d="M58.0479 55.4052C57.9667 55.4655 57.8833 55.5242 57.7978 55.5813C56.736 56.2991 55.3511 56.8698 53.7672 57.224C52.4938 57.5035 51.1929 57.6376 49.8894 57.6238H47.5064H47.4743L36.1958 57.6265H29.7312H29.6356V57.6241L29.4113 56.5481L27.1709 45.8006C27.1709 45.8006 55.6986 44.8961 58.0025 46.1021C59.0721 46.6619 59.6727 49.1971 60.0093 51.7527C60.1882 53.1148 59.4292 54.3928 58.0479 55.4052Z" fill="#E2B796"/>
<path d="M58.0478 55.4051C57.9666 55.4654 57.8833 55.5241 57.7977 55.5812C56.7359 56.299 55.351 56.8697 53.7671 57.224C52.4937 57.5034 51.1928 57.6375 49.8893 57.6237H47.5064H47.4742L36.1957 57.6264H29.7311L29.6349 57.624L29.4106 56.548C33.373 55.8459 38.8561 55.1311 44.5757 55.1877C50.0381 55.2432 54.6118 55.2369 58.0478 55.4051Z" fill="#D3A281"/>
<path d="M33.1025 53.6153C32.7282 56.06 30.6742 57.6096 28.5699 57.6096H24.3259L24.6566 42.916C24.6566 42.916 28.7058 41.3154 29.7228 42.8379C30.6141 44.1717 33.0295 49.4518 33.1575 52.5758C33.1728 52.9232 33.1544 53.2714 33.1025 53.6153Z" fill="#F9DDBF"/>
<path d="M33.1023 53.6153C32.728 56.06 30.674 57.6096 28.5697 57.6096H25.1729C26.7631 56.3895 28.9037 53.0181 33.1023 53.6153Z" fill="#EAC3A0"/>
<path d="M26.5232 57.5987C26.4917 57.6014 26.4598 57.6038 26.4282 57.6056C26.3609 57.6098 26.2939 57.6126 26.2262 57.6135H26.1589H21.9149V57.6114L21.6699 57.6147C21.2328 57.6207 20.7765 57.6267 20.3532 57.6307L20.1428 57.6328H20.0668C19.6483 57.6358 19.2786 57.6373 19.0146 57.6352C18.6628 57.6349 18.3116 57.6046 17.9649 57.5447C17.559 57.4754 17.1652 57.3477 16.7955 57.1658C16.4936 57.0146 16.2136 56.823 15.9631 56.5963C15.5868 56.2556 15.2609 55.8251 14.9841 55.2945C14.7775 54.892 14.6073 54.4717 14.4754 54.0388C14.2912 53.4506 14.143 52.7813 14.029 52.0243C13.8658 50.9441 13.7726 49.6857 13.7447 48.2311C13.7332 47.6454 13.7323 47.0273 13.7419 46.3769C13.757 45.3374 13.798 44.2119 13.8649 43.0003C13.9581 41.2967 14.1006 39.4172 14.2891 37.3485C14.4607 35.4591 14.6591 34.1383 14.9471 33.8374C15.3724 33.3933 16.2592 33.2149 16.8761 33.144C17.2591 33.0994 17.5374 33.0961 17.5374 33.0961C18.2911 33.0961 18.9611 33.709 19.2028 34.6195C19.6955 36.4736 20.5748 39.7887 21.4898 43.256C21.4943 43.2735 21.4992 43.2907 21.5037 43.3082C21.5564 43.5075 21.609 43.7072 21.6615 43.9072L21.6858 43.9976L21.8461 43.9166C21.8479 43.9155 21.8498 43.9146 21.8518 43.9138C22.0712 43.8035 22.3195 43.6829 22.5874 43.5602C22.7264 43.4963 22.8702 43.432 23.0187 43.3673C23.4375 43.1864 23.8905 43.0055 24.3477 42.8511C24.5512 42.7821 24.7559 42.7179 24.9595 42.6612C25.2207 42.5876 25.4801 42.5258 25.7326 42.4803L25.7549 42.4761L25.845 42.4607C26.9348 42.2798 27.8802 42.4055 28.2716 43.187C28.8977 44.4387 30.6202 49.4328 30.7477 52.567C30.8652 55.4564 28.7802 57.4076 26.5232 57.5987Z" fill="#D39E7A"/>
<path d="M19.7157 44.5852C19.7157 44.5852 17.5374 34.5353 17.3802 33.6906C17.3102 33.3143 17.0943 33.1781 16.8767 33.1431C17.2597 33.0988 17.538 33.0955 17.538 33.0955C18.292 33.0955 18.9617 33.7063 19.2034 34.6143C19.731 36.5948 20.7026 40.2466 21.6864 43.966C21.6365 43.9645 19.7157 44.5852 19.7157 44.5852Z" fill="#F9DDBF"/>
<path d="M13.1219 49.1823C13.1219 49.1823 14.4777 47.2889 13.2053 46.0859C13.2053 46.0859 12.2761 45.4122 11.5183 45.4685C11.5183 45.4685 12.5922 47.624 12.2446 47.8384C11.8971 48.0528 11.1928 45.3344 11.1928 45.3344C11.1928 45.3344 9.07827 45.0888 8.39778 45.4802C8.39778 45.4802 10.2057 47.2515 9.82494 47.3568C9.44415 47.4621 7.49152 45.724 7.49152 45.724C7.49152 45.724 5.52312 46.125 5.62913 47.5623C5.73515 48.9995 6.41248 49.4437 6.71046 49.4056C7.00844 49.3676 8.75221 48.5704 8.79031 48.8626C8.82842 49.1549 7.77861 50.1109 7.04254 50.1555C7.04254 50.1555 8.43016 51.9875 9.35247 51.4589C10.2748 50.9303 10.3533 50.092 10.9283 49.7782C11.5034 49.4643 11.9939 49.4646 11.7567 49.7854C11.5194 50.1061 10.4788 50.4175 10.1501 51.1139C9.8215 51.8102 9.52638 52.2801 10.4805 52.1086C11.4346 51.9371 12.9855 51.1008 13.0537 50.1438L13.1219 49.1823Z" fill="#599DAD"/>
<path d="M6.27832 47.3538C6.27832 47.3538 11.8871 47.137 13.1259 48.7457C13.1259 48.7457 13.3997 49.5688 14.2426 50.3179L14.374 50.677C14.374 50.677 13.4021 49.6493 13.0543 49.5872C13.0543 49.5872 13.5996 47.594 6.27832 47.3538Z" fill="#599DAD"/>
<path d="M14.2426 50.3179C14.2426 50.3179 15.4465 51.2109 15.5301 52.8064L15.3131 52.8251C15.3131 52.8251 14.9286 51.1754 14.2336 50.5302C13.5386 49.885 14.2426 50.3179 14.2426 50.3179Z" fill="#599DAD"/>
<path d="M18.2847 47.3051C18.2847 47.3051 15.6905 47.3378 15.744 45.3153C15.744 45.3153 15.9471 43.9749 16.5951 43.2859C16.5951 43.2859 17.4609 45.755 17.9093 45.5657C18.3576 45.3764 16.7454 42.8842 16.7454 42.8842C16.7454 42.8842 18.2355 40.6948 19.0907 40.3051C19.0907 40.3051 19.0643 43.2206 19.4521 42.9263C19.84 42.6321 20.0082 39.6001 20.0082 39.6001C20.0082 39.6001 21.8981 37.983 22.963 39.0445C24.0278 40.106 23.8423 41.0516 23.5733 41.3119C23.3044 41.5722 21.2779 42.7089 21.4804 42.9398C21.683 43.1708 23.2841 42.8051 23.9061 42.1311C23.9061 42.1311 24.2632 44.6848 23.1056 45.2147C21.9479 45.7445 21.2153 45.2595 20.5056 45.5999C19.7959 45.9404 19.4049 46.4105 19.85 46.3968C20.2951 46.3831 21.3742 45.5958 22.1927 45.7464C23.0111 45.8969 23.622 45.9294 22.7235 46.7275C21.8249 47.5256 19.9203 48.4529 19.1017 47.8787L18.2847 47.3051Z" fill="#86D1CD"/>
<path d="M23.1503 40.6458C23.1503 40.6458 17.5622 44.2763 17.4568 46.6848C17.4568 46.6848 17.7517 47.6709 17.4449 48.9749L17.5622 49.4134C17.5622 49.4134 17.8045 47.7507 18.0994 47.4524C18.0994 47.4524 16.2136 45.8907 23.1503 40.6458Z" fill="#6BB7BF"/>
<path d="M17.496 48.8615C17.496 48.8615 16.5187 50.3496 17.0751 52.1612L17.3264 52.0934C17.3264 52.0934 17.0826 50.0982 17.5936 49.0949C18.1047 48.0915 17.496 48.8615 17.496 48.8615Z" fill="#6BB7BF"/>
<path d="M15.5681 45.3869C15.5681 45.3869 18.7945 44.2511 17.8142 41.7709C17.8142 41.7709 16.9585 40.204 15.8438 39.6444C15.8438 39.6444 15.8874 43.0939 15.2471 43.0629C14.6068 43.0319 15.4742 39.2158 15.4742 39.2158C15.4742 39.2158 12.6386 37.1805 11.404 37.0858C11.404 37.0858 12.7545 40.683 12.1414 40.4946C11.5283 40.3061 9.94941 36.6285 9.94941 36.6285C9.94941 36.6285 6.87875 35.4837 6.04029 37.2804C5.20183 39.077 5.86201 40.164 6.31033 40.3649C6.75865 40.5658 9.78368 41.0541 9.63663 41.4333C9.48959 41.8125 7.34257 42.0845 6.26839 41.5319C6.26839 41.5319 6.98011 44.8554 8.65306 44.9864C10.326 45.1174 11.0136 44.1849 12.046 44.2846C13.0784 44.3842 13.7748 44.7899 13.2175 44.9757C12.6601 45.1615 10.9686 44.6738 10.0234 45.2321C9.0782 45.7904 8.33662 46.1053 9.80975 46.687C11.2829 47.2687 14.0593 47.5534 14.8139 46.4699L15.5681 45.3869Z" fill="#86D1CD"/>
<path d="M7.38794 38.1239C7.38794 38.1239 15.1488 42.2371 15.568 45.387C15.568 45.387 15.2956 46.7165 15.8509 48.3924L15.748 48.9819C15.748 48.9819 15.2358 46.8269 14.8132 46.4696C14.8138 46.4697 17.1077 44.1988 7.38794 38.1239Z" fill="#6BB7BF"/>
<path d="M15.2946 47.8118C15.2946 47.8118 16.5827 49.7735 15.8483 52.1613L15.5176 52.0708C15.5176 52.0708 15.8393 49.4407 15.1653 48.1178C14.4914 46.7949 15.2946 47.8118 15.2946 47.8118Z" fill="#6BB7BF"/>
<path d="M8.75684 51.4792C8.75684 54.7157 11.3721 57.3391 14.5998 57.3391C15.3673 57.3399 16.1275 57.1889 16.8367 56.8947C17.546 56.6005 18.1905 56.1689 18.7332 55.6246C19.276 55.0803 19.7063 54.434 19.9997 53.7227C20.2931 53.0114 20.4437 52.249 20.443 51.4792H8.75684Z" fill="#EF65AB"/>
<path d="M12.603 51.4792C12.603 53.6749 13.1273 55.911 14.9093 56.9147C15.2054 57.0814 16.1974 56.9008 16.5227 57.0145C17.668 56.6138 18.6607 55.8657 19.3631 54.8739C20.0655 53.8822 20.4429 52.6958 20.4429 51.4792H12.603Z" fill="#F484C1"/>
<path d="M14.5996 57.3392C14.8374 57.3693 13.6419 57.3392 13.8878 57.3392C17.1148 57.3392 19.7307 54.7163 19.7307 51.479H18.2791C18.2791 54.4694 17.4843 56.9807 14.5996 57.3392Z" fill="#FFE5F3"/>
<path d="M8.67603 57.6376H20.5233C20.5233 57.4457 20.4473 57.2617 20.312 57.126C20.1767 56.9903 19.9932 56.9141 19.8018 56.9141H9.39658C9.2054 56.9143 9.02212 56.9906 8.88702 57.1263C8.75191 57.262 8.67603 57.4459 8.67603 57.6376Z" fill="#EF65AB"/>
<path d="M14.2273 57.6376H20.5235C20.5235 57.4457 20.4475 57.2617 20.3122 57.126C20.1769 56.9903 19.9934 56.9141 19.8021 56.9141H14.9479C14.7567 56.9143 14.5734 56.9906 14.4383 57.1263C14.3032 57.262 14.2273 57.4459 14.2273 57.6376Z" fill="#F484C1"/>
<path d="M8.6239 51.6589H20.635V51.4793H8.6239V51.6589Z" fill="#EF65AB"/>
</g>
<defs>
<clipPath id="clip0">
<rect width="80" height="44.4444" fill="white" transform="translate(0 13.3334)"/>
</clipPath>
</defs>
</svg>
