<svg width="414" height="11" viewBox="0 0 414 11" fill="none" xmlns="http://www.w3.org/2000/svg">
<path opacity="0.2" d="M3.50196 6.9951C4.33039 6.99347 5.00064 6.32058 4.99902 5.49216C4.9974 4.66373 4.32451 3.99348 3.49608 3.9951L3.50196 6.9951ZM13.4961 3.97549C12.6677 3.97712 11.9974 4.65001 11.999 5.47843C12.0006 6.30686 12.6735 6.97711 13.502 6.97549L13.4961 3.97549ZM18.502 6.96568C19.3304 6.96406 20.0006 6.29117 19.999 5.46275C19.9974 4.63432 19.3245 3.96406 18.4961 3.96569L18.502 6.96568ZM28.4961 3.94608C27.6677 3.94771 26.9974 4.62059 26.999 5.44902C27.0006 6.27745 27.6735 6.9477 28.502 6.94608L28.4961 3.94608ZM33.502 6.93627C34.3304 6.93465 35.0006 6.26176 34.999 5.43333C34.9974 4.60491 34.3245 3.93465 33.4961 3.93628L33.502 6.93627ZM43.4961 3.91667C42.6677 3.91829 41.9974 4.59118 41.999 5.41961C42.0006 6.24803 42.6735 6.91829 43.502 6.91666L43.4961 3.91667ZM48.502 6.90686C49.3304 6.90524 50.0006 6.23235 49.999 5.40392C49.9974 4.5755 49.3245 3.90524 48.4961 3.90687L48.502 6.90686ZM58.4961 3.88726C57.6677 3.88888 56.9974 4.56177 56.999 5.3902C57.0006 6.21862 57.6735 6.88888 58.502 6.88725L58.4961 3.88726ZM63.502 6.87745C64.3304 6.87582 65.0006 6.20294 64.999 5.37451C64.9974 4.54608 64.3245 3.87583 63.4961 3.87745L63.502 6.87745ZM73.4961 3.85785C72.6677 3.85947 71.9974 4.53236 71.999 5.36078C72.0006 6.18921 72.6735 6.85946 73.502 6.85784L73.4961 3.85785ZM78.502 6.84804C79.3304 6.84641 80.0006 6.17352 79.999 5.3451C79.9974 4.51667 79.3245 3.84642 78.4961 3.84804L78.502 6.84804ZM88.4961 3.82843C87.6676 3.83006 86.9974 4.50295 86.999 5.33137C87.0006 6.1598 87.6735 6.83005 88.502 6.82843L88.4961 3.82843ZM93.5019 6.81862C94.3304 6.817 95.0006 6.14411 94.999 5.31569C94.9974 4.48726 94.3245 3.81701 93.4961 3.81863L93.5019 6.81862ZM103.496 3.79902C102.668 3.80065 101.997 4.47354 101.999 5.30196C102.001 6.13039 102.674 6.80064 103.502 6.79902L103.496 3.79902ZM108.502 6.78921C109.33 6.78759 110.001 6.1147 109.999 5.28627C109.997 4.45785 109.324 3.78759 108.496 3.78922L108.502 6.78921ZM118.496 3.76961C117.668 3.77124 116.997 4.44412 116.999 5.27255C117.001 6.10097 117.674 6.77123 118.502 6.76961L118.496 3.76961ZM123.502 6.7598C124.33 6.75818 125.001 6.08529 124.999 5.25686C124.997 4.42844 124.324 3.75818 123.496 3.75981L123.502 6.7598ZM133.496 3.7402C132.668 3.74182 131.997 4.41471 131.999 5.24314C132.001 6.07156 132.674 6.74182 133.502 6.74019L133.496 3.7402ZM138.502 6.73039C139.33 6.72876 140.001 6.05588 139.999 5.22745C139.997 4.39903 139.324 3.72877 138.496 3.7304L138.502 6.73039ZM148.496 3.71079C147.668 3.71241 146.997 4.3853 146.999 5.21373C147.001 6.04215 147.674 6.71241 148.502 6.71078L148.496 3.71079ZM153.502 6.70098C154.33 6.69935 155.001 6.02646 154.999 5.19804C154.997 4.36961 154.324 3.69936 153.496 3.70098L153.502 6.70098ZM163.496 3.68138C162.668 3.683 161.997 4.35589 161.999 5.18431C162.001 6.01274 162.674 6.68299 163.502 6.68137L163.496 3.68138ZM168.502 6.67157C169.33 6.66994 170.001 5.99705 169.999 5.16863C169.997 4.3402 169.324 3.66995 168.496 3.67157L168.502 6.67157ZM178.496 3.65196C177.668 3.65359 176.997 4.32648 176.999 5.1549C177.001 5.98333 177.674 6.65358 178.502 6.65196L178.496 3.65196ZM183.502 6.64215C184.33 6.64053 185.001 5.96764 184.999 5.13922C184.997 4.31079 184.324 3.64054 183.496 3.64216L183.502 6.64215ZM193.496 3.62255C192.668 3.62418 191.997 4.29706 191.999 5.12549C192.001 5.95392 192.674 6.62417 193.502 6.62255L193.496 3.62255ZM198.502 6.61274C199.33 6.61112 200.001 5.93823 199.999 5.1098C199.997 4.28138 199.325 3.61112 198.496 3.61275L198.502 6.61274ZM208.496 3.59314C207.668 3.59476 206.997 4.26765 206.999 5.09608C207.001 5.9245 207.674 6.59476 208.502 6.59313L208.496 3.59314ZM213.502 6.58333C214.33 6.58171 215.001 5.90882 214.999 5.08039C214.997 4.25197 214.325 3.58171 213.496 3.58334L213.502 6.58333ZM223.496 3.56373C222.668 3.56535 221.997 4.23824 221.999 5.06667C222.001 5.89509 222.674 6.56535 223.502 6.56372L223.496 3.56373ZM228.502 6.55392C229.33 6.55229 230.001 5.87941 229.999 5.05098C229.997 4.22255 229.325 3.5523 228.496 3.55392L228.502 6.55392ZM238.496 3.53432C237.668 3.53594 236.997 4.20883 236.999 5.03725C237.001 5.86568 237.674 6.53594 238.502 6.53431L238.496 3.53432ZM243.502 6.52451C244.33 6.52288 245.001 5.84999 244.999 5.02157C244.997 4.19314 244.325 3.52289 243.496 3.52451L243.502 6.52451ZM253.496 3.5049C252.668 3.50653 251.997 4.17942 251.999 5.00784C252.001 5.83627 252.674 6.50652 253.502 6.5049L253.496 3.5049ZM1.00196 7L3.50196 6.9951L3.49608 3.9951L0.996082 4L1.00196 7ZM13.502 6.97549L18.502 6.96568L18.4961 3.96569L13.4961 3.97549L13.502 6.97549ZM28.502 6.94608L33.502 6.93627L33.4961 3.93628L28.4961 3.94608L28.502 6.94608ZM43.502 6.91666L48.502 6.90686L48.4961 3.90687L43.4961 3.91667L43.502 6.91666ZM58.502 6.88725L63.502 6.87745L63.4961 3.87745L58.4961 3.88726L58.502 6.88725ZM73.502 6.85784L78.502 6.84804L78.4961 3.84804L73.4961 3.85785L73.502 6.85784ZM88.502 6.82843L93.5019 6.81862L93.4961 3.81863L88.4961 3.82843L88.502 6.82843ZM103.502 6.79902L108.502 6.78921L108.496 3.78922L103.496 3.79902L103.502 6.79902ZM118.502 6.76961L123.502 6.7598L123.496 3.75981L118.496 3.76961L118.502 6.76961ZM133.502 6.74019L138.502 6.73039L138.496 3.7304L133.496 3.7402L133.502 6.74019ZM148.502 6.71078L153.502 6.70098L153.496 3.70098L148.496 3.71079L148.502 6.71078ZM163.502 6.68137L168.502 6.67157L168.496 3.67157L163.496 3.68138L163.502 6.68137ZM178.502 6.65196L183.502 6.64215L183.496 3.64216L178.496 3.65196L178.502 6.65196ZM193.502 6.62255L198.502 6.61274L198.496 3.61275L193.496 3.62255L193.502 6.62255ZM208.502 6.59313L213.502 6.58333L213.496 3.58334L208.496 3.59314L208.502 6.59313ZM223.502 6.56372L228.502 6.55392L228.496 3.55392L223.496 3.56373L223.502 6.56372ZM238.502 6.53431L243.502 6.52451L243.496 3.52451L238.496 3.53432L238.502 6.53431ZM253.502 6.5049L256.002 6.5L255.996 3.5L253.496 3.5049L253.502 6.5049Z" fill="url(#paint0_linear_1499_7191)"/>
<path opacity="0.2" d="M146.538 7.5C147.367 7.5 148.038 6.82843 148.038 6C148.038 5.17157 147.367 4.5 146.538 4.5V7.5ZM156.695 4.5C155.867 4.5 155.195 5.17157 155.195 6C155.195 6.82843 155.867 7.5 156.695 7.5V4.5ZM161.774 7.5C162.602 7.5 163.274 6.82843 163.274 6C163.274 5.17157 162.602 4.5 161.774 4.5V7.5ZM171.93 4.5C171.102 4.5 170.43 5.17157 170.43 6C170.43 6.82843 171.102 7.5 171.93 7.5V4.5ZM177.009 7.5C177.837 7.5 178.509 6.82843 178.509 6C178.509 5.17157 177.837 4.5 177.009 4.5V7.5ZM187.166 4.5C186.337 4.5 185.666 5.17157 185.666 6C185.666 6.82843 186.337 7.5 187.166 7.5V4.5ZM192.244 7.5C193.073 7.5 193.744 6.82843 193.744 6C193.744 5.17157 193.073 4.5 192.244 4.5V7.5ZM202.401 4.5C201.573 4.5 200.901 5.17157 200.901 6C200.901 6.82843 201.573 7.5 202.401 7.5V4.5ZM207.479 7.5C208.308 7.5 208.979 6.82843 208.979 6C208.979 5.17157 208.308 4.5 207.479 4.5V7.5ZM217.636 4.5C216.808 4.5 216.136 5.17157 216.136 6C216.136 6.82843 216.808 7.5 217.636 7.5V4.5ZM222.715 7.5C223.543 7.5 224.215 6.82843 224.215 6C224.215 5.17157 223.543 4.5 222.715 4.5V7.5ZM232.872 4.5C232.043 4.5 231.372 5.17157 231.372 6C231.372 6.82843 232.043 7.5 232.872 7.5V4.5ZM237.95 7.5C238.778 7.5 239.45 6.82843 239.45 6C239.45 5.17157 238.778 4.5 237.95 4.5V7.5ZM248.107 4.5C247.278 4.5 246.607 5.17157 246.607 6C246.607 6.82843 247.278 7.5 248.107 7.5V4.5ZM253.185 7.5C254.014 7.5 254.685 6.82843 254.685 6C254.685 5.17157 254.014 4.5 253.185 4.5V7.5ZM263.342 4.5C262.514 4.5 261.842 5.17157 261.842 6C261.842 6.82843 262.514 7.5 263.342 7.5V4.5ZM268.421 7.5C269.249 7.5 269.921 6.82843 269.921 6C269.921 5.17157 269.249 4.5 268.421 4.5V7.5ZM278.577 4.5C277.749 4.5 277.077 5.17157 277.077 6C277.077 6.82843 277.749 7.5 278.577 7.5V4.5ZM283.656 7.5C284.484 7.5 285.156 6.82843 285.156 6C285.156 5.17157 284.484 4.5 283.656 4.5V7.5ZM293.813 4.5C292.984 4.5 292.313 5.17157 292.313 6C292.313 6.82843 292.984 7.5 293.813 7.5V4.5ZM298.891 7.5C299.72 7.5 300.391 6.82843 300.391 6C300.391 5.17157 299.72 4.5 298.891 4.5V7.5ZM309.048 4.5C308.22 4.5 307.548 5.17157 307.548 6C307.548 6.82843 308.22 7.5 309.048 7.5V4.5ZM314.126 7.5C314.955 7.5 315.626 6.82843 315.626 6C315.626 5.17157 314.955 4.5 314.126 4.5V7.5ZM324.283 4.5C323.455 4.5 322.783 5.17157 322.783 6C322.783 6.82843 323.455 7.5 324.283 7.5V4.5ZM329.362 7.5C330.19 7.5 330.862 6.82843 330.862 6C330.862 5.17157 330.19 4.5 329.362 4.5V7.5ZM339.519 4.5C338.69 4.5 338.019 5.17157 338.019 6C338.019 6.82843 338.69 7.5 339.519 7.5V4.5ZM344.597 7.5C345.425 7.5 346.097 6.82843 346.097 6C346.097 5.17157 345.425 4.5 344.597 4.5V7.5ZM354.754 4.5C353.925 4.5 353.254 5.17157 353.254 6C353.254 6.82843 353.925 7.5 354.754 7.5V4.5ZM359.832 7.5C360.661 7.5 361.332 6.82843 361.332 6C361.332 5.17157 360.661 4.5 359.832 4.5V7.5ZM369.989 4.5C369.161 4.5 368.489 5.17157 368.489 6C368.489 6.82843 369.161 7.5 369.989 7.5V4.5ZM375.068 7.5C375.896 7.5 376.568 6.82843 376.568 6C376.568 5.17157 375.896 4.5 375.068 4.5V7.5ZM385.224 4.5C384.396 4.5 383.724 5.17157 383.724 6C383.724 6.82843 384.396 7.5 385.224 7.5V4.5ZM390.303 7.5C391.131 7.5 391.803 6.82843 391.803 6C391.803 5.17157 391.131 4.5 390.303 4.5V7.5ZM400.46 4.5C399.631 4.5 398.96 5.17157 398.96 6C398.96 6.82843 399.631 7.5 400.46 7.5V4.5ZM143.999 7.5H146.538V4.5H143.999V7.5ZM156.695 7.5H161.774V4.5H156.695V7.5ZM171.93 7.5H177.009V4.5H171.93V7.5ZM187.166 7.5H192.244V4.5H187.166V7.5ZM202.401 7.5H207.479V4.5H202.401V7.5ZM217.636 7.5H222.715V4.5H217.636V7.5ZM232.872 7.5H237.95V4.5H232.872V7.5ZM248.107 7.5H253.185V4.5H248.107V7.5ZM263.342 7.5H268.421V4.5H263.342V7.5ZM278.577 7.5H283.656V4.5H278.577V7.5ZM293.813 7.5H298.891V4.5H293.813V7.5ZM309.048 7.5H314.126V4.5H309.048V7.5ZM324.283 7.5H329.362V4.5H324.283V7.5ZM339.519 7.5H344.597V4.5H339.519V7.5ZM354.754 7.5H359.832V4.5H354.754V7.5ZM369.989 7.5H375.068V4.5H369.989V7.5ZM385.224 7.5H390.303V4.5H385.224V7.5ZM400.46 7.5H402.999V4.5H400.46V7.5Z" fill="url(#paint1_linear_1499_7191)"/>
<circle cx="5.49902" cy="5.5" r="5.5" fill="#9672FF"/>
<circle r="5.5" transform="matrix(-1 0 0 1 408.499 5.5)" fill="#9672FF"/>
<defs>
<linearGradient id="paint0_linear_1499_7191" x1="7.65993" y1="6.98638" x2="262.66" y2="7.37321" gradientUnits="userSpaceOnUse">
<stop stop-color="#9672FF"/>
<stop offset="1" stop-color="#4DDFFD"/>
</linearGradient>
<linearGradient id="paint1_linear_1499_7191" x1="150.761" y1="7.49944" x2="409.76" y2="8.4143" gradientUnits="userSpaceOnUse">
<stop stop-color="#9672FF"/>
<stop offset="1" stop-color="#4DDFFD"/>
</linearGradient>
</defs>
</svg>
