<svg width="41" height="40" viewBox="0 0 41 40" fill="none" xmlns="http://www.w3.org/2000/svg">
<ellipse cx="20.7976" cy="20" rx="19.9861" ry="20" fill="#005CE6"/>
<path d="M17.8623 21.5105C17.7858 21.5105 16.1025 21.5105 15.3373 21.5105C14.9293 21.5105 14.8018 21.3573 14.8018 20.9745C14.8018 19.9536 14.8018 18.9072 14.8018 17.8863C14.8018 17.478 14.9548 17.3504 15.3373 17.3504H17.8623C17.8623 17.2738 17.8623 15.7935 17.8623 15.1044C17.8623 14.0835 18.0408 13.1137 18.5509 12.2204C19.0865 11.3016 19.8516 10.6891 20.8208 10.3318C21.4584 10.1021 22.096 10 22.7846 10H25.284C25.6411 10 25.7941 10.1531 25.7941 10.5104V13.42C25.7941 13.7773 25.6411 13.9304 25.284 13.9304C24.5954 13.9304 23.9068 13.9304 23.2182 13.9559C22.5296 13.9559 22.1725 14.2877 22.1725 15.0023C22.147 15.768 22.1725 16.5081 22.1725 17.2993H25.131C25.5391 17.2993 25.6921 17.4524 25.6921 17.8608V20.949C25.6921 21.3573 25.5646 21.4849 25.131 21.4849C24.2129 21.4849 22.249 21.4849 22.1725 21.4849V29.8051C22.1725 30.239 22.045 30.3921 21.5859 30.3921C20.5147 30.3921 19.4691 30.3921 18.3979 30.3921C18.0153 30.3921 17.8623 30.239 17.8623 29.8562C17.8623 27.1764 17.8623 21.587 17.8623 21.5105Z" fill="white"/>
</svg>
