<svg width="201" height="128" viewBox="0 0 201 128" fill="none" xmlns="http://www.w3.org/2000/svg">
<rect x="4.59229" y="4" width="191.861" height="120" rx="6" fill="#F9FBFF" stroke="white" stroke-width="8"/>
<path fill-rule="evenodd" clip-rule="evenodd" d="M134.276 77.4024L114.788 87.4837L113.419 84.9024L127.347 77.7093L127.528 77.6227C127.85 77.4539 128.135 77.2228 128.367 76.9429C128.599 76.663 128.773 76.3398 128.879 75.9921C128.985 75.6443 129.021 75.279 128.985 74.9172C128.949 74.5554 128.841 74.2044 128.668 73.8845L128.008 72.6411H128.055L124.854 66.7229L112.42 43.2786L115.354 41.7518L134.276 77.4024ZM139.922 84.2177H148.369C148.475 84.2176 148.581 84.2391 148.679 84.2811C148.777 84.3231 148.866 84.3846 148.939 84.4619C149.013 84.5392 149.07 84.6307 149.107 84.7308C149.144 84.8308 149.16 84.9374 149.155 85.044V105.553C149.154 105.766 149.072 105.97 148.926 106.125C148.78 106.279 148.581 106.373 148.369 106.387H139.922C139.702 106.385 139.491 106.297 139.335 106.141C139.179 105.985 139.091 105.774 139.089 105.553V85.044C139.091 84.8242 139.179 84.614 139.336 84.4592C139.492 84.3045 139.703 84.2177 139.922 84.2177ZM136.383 104.577V86.0592H128.055C124.524 86.6967 120.977 88.6091 117.461 90.8363H110.997C108.063 91.0094 106.53 93.9842 109.377 95.9359C111.65 97.5965 114.638 97.5099 117.705 97.2266C119.821 97.1243 119.915 99.9653 117.705 99.9732C116.919 100.036 116.132 99.8551 115.346 99.8551C111.516 99.8551 108.37 99.1154 106.443 96.0933L105.468 93.8268L95.8815 89.0577C91.0685 87.4837 87.6474 92.5126 91.1628 96.0146C97.8726 100.907 105.048 105.124 112.586 108.606C117.894 111.841 123.21 111.754 128.511 108.606L136.375 104.553L136.383 104.577ZM63.9519 25.4848C63.929 25.1568 64.0147 24.8304 64.1957 24.5561C64.7069 23.8714 65.9259 24.0682 66.7124 24.0682C67.5242 24.0918 68.3362 24.0285 69.1346 23.8793C70.3117 23.5716 71.4675 23.1878 72.5949 22.7303C75.5284 21.6757 78.163 20.8966 80.9627 19.8814C87.2542 17.6227 85.3668 17.1348 91.8235 19.8814C94.611 21.0613 97.3194 22.4204 99.9317 23.9501C100.305 24.1526 100.651 24.4012 100.962 24.6899C101.269 24.9994 101.534 25.3488 101.748 25.7287C104.218 29.3253 106.333 32.969 108.362 36.6128C109.047 37.8956 109.33 39.1075 108.866 39.8709C106.955 43.0189 103.518 38.5409 99.8216 35.5739C98.2487 34.3226 96.1489 33.213 94.3165 31.9459C91.9571 30.9701 90.8876 30.0414 88.3788 29.5141C84.5331 29.1836 84.2186 34.7083 89.2754 34.9129C92.6649 35.0467 99.7429 38.1631 101.756 41.0278C103.612 43.7035 102.59 46.3321 98.8149 46.2376L95.6692 45.6474C90.6438 44.703 90.7853 44.5141 85.5555 45.49C82.7479 46.0094 79.8066 46.5524 76.9046 46.0094C75.143 45.6867 74.215 44.9785 72.6421 43.7744C71.8745 43.1026 71.0359 42.5168 70.1412 42.0273C69.4223 41.6017 68.6501 41.2735 67.8448 41.0514C66.6416 40.7602 64.9429 41.1694 64.2429 40.1306C64.0485 39.8223 63.9475 39.4642 63.9519 39.0997V25.4848ZM53.3428 22.0692H61.2073C61.4158 22.0692 61.6159 22.1521 61.7634 22.2997C61.9108 22.4473 61.9937 22.6475 61.9937 22.8562V41.9643C61.9937 42.173 61.9108 42.3732 61.7634 42.5208C61.6159 42.6684 61.4158 42.7513 61.2073 42.7513H53.3428C53.1343 42.7513 52.9342 42.6684 52.7867 42.5208C52.6393 42.3732 52.5564 42.173 52.5564 41.9643V22.8484C52.5564 22.6396 52.6393 22.4395 52.7867 22.2919C52.9342 22.1443 53.1343 22.0614 53.3428 22.0614V22.0692ZM106.821 57.948C107.878 57.9465 108.911 58.2587 109.791 58.8453C110.67 59.4319 111.356 60.2664 111.761 61.2431C112.166 62.2199 112.272 63.2949 112.066 64.3322C111.861 65.3695 111.352 66.3224 110.605 67.0702C109.857 67.818 108.905 68.3271 107.869 68.533C106.832 68.739 105.758 68.6325 104.782 68.2271C103.806 67.8216 102.972 67.1355 102.385 66.2555C101.799 65.3756 101.487 64.3413 101.489 63.2838C101.491 61.8693 102.053 60.5133 103.053 59.5131C104.052 58.5129 105.407 57.9501 106.821 57.948ZM109.275 42.9952L126.482 75.4585L105.72 86.2088L87.0733 51.117L93.6244 47.725L93.8525 47.7723L98.3745 48.6143C98.5027 48.6263 98.6317 48.6263 98.7599 48.6143C99.587 48.6465 100.414 48.5536 101.214 48.3389L95.2681 51.4554C95.6902 52.2705 95.7716 53.22 95.4943 54.0951C95.2171 54.9702 94.6039 55.6994 93.7896 56.1222L105.515 77.8195C106.33 77.3971 107.279 77.3156 108.153 77.5931C109.028 77.8705 109.756 78.4841 110.179 79.299L118.389 75.0414C118.181 74.6384 118.053 74.1981 118.014 73.7458C117.976 73.2935 118.027 72.838 118.164 72.4053C118.301 71.9726 118.522 71.5713 118.815 71.2242C119.107 70.8771 119.465 70.591 119.868 70.3824L108.15 48.7009C107.746 48.9098 107.305 49.037 106.852 49.0753C106.399 49.1136 105.943 49.0622 105.51 48.924C105.077 48.7859 104.676 48.5638 104.328 48.2703C103.981 47.9768 103.695 47.6177 103.486 47.2135L103.376 47.2765C103.844 46.885 104.231 46.4066 104.517 45.8678C104.868 45.1881 105.059 44.437 105.075 43.6721C105.094 43.4101 105.094 43.1471 105.075 42.8851C106.648 43.6721 108.024 43.8137 109.282 43.0031L109.275 42.9952Z" fill="#0F2F66"/>
</svg>
