<svg width="201" height="128" viewBox="0 0 201 128" fill="none" xmlns="http://www.w3.org/2000/svg">
<rect x="4.49219" y="4" width="191.861" height="120" rx="6" fill="#F9FBFF" stroke="white" stroke-width="8"/>
<path d="M141.891 45.2323H129.362C128.779 30.1189 116.316 18 101.072 18C85.827 18 73.3646 30.1178 72.7826 45.2323H58.4217C55.1326 45.2323 52.4561 47.9106 52.4561 51.2021V104.753C52.4561 108.046 55.1326 110.723 58.4217 110.723H141.891C145.182 110.723 147.857 108.046 147.857 104.753V88.4944V67.4611V51.2021C147.856 47.9106 145.181 45.2323 141.891 45.2323ZM101.072 21.1822C114.563 21.1822 125.601 31.8734 126.181 45.2323H93.6572V40.076C93.6572 38.625 94.6016 37.3987 95.7178 37.3987H106.427C107.544 37.3987 108.487 38.625 108.487 40.076C108.487 40.9554 109.199 41.6671 110.077 41.6671C110.954 41.6671 111.667 40.9554 111.667 40.076C111.667 36.845 109.316 34.2165 106.427 34.2165H102.663V31.4777C102.663 30.5984 101.951 29.8866 101.073 29.8866C100.195 29.8866 99.4829 30.5984 99.4829 31.4777V34.2165H95.7189C92.8283 34.2165 90.4782 36.845 90.4782 40.076V45.2323H75.9626C76.5424 31.8734 87.5813 21.1822 101.072 21.1822ZM144.676 85.3122H130.247C127.129 85.3122 124.59 82.7717 124.59 79.651V76.3044C124.59 73.1837 127.129 70.6433 130.247 70.6433H144.676V85.3122ZM144.676 67.4611H130.247C125.375 67.4611 121.41 71.4282 121.41 76.3044V79.651C121.41 84.5272 125.375 88.4944 130.247 88.4944H144.676V104.753C144.676 106.29 143.426 107.541 141.89 107.541H58.4217C56.8858 107.541 55.6361 106.29 55.6361 104.753V51.2021C55.6361 49.6651 56.8858 48.4155 58.4217 48.4155H141.891C143.427 48.4155 144.677 49.6662 144.677 51.2021V67.4611H144.676Z" fill="#0F2F66"/>
<path d="M137.242 79.5694H131.262C130.385 79.5694 129.672 78.8565 129.672 77.9783C129.672 77.1 130.385 76.3871 131.262 76.3871H137.242C138.12 76.3871 138.832 77.1 138.832 77.9783C138.832 78.8565 138.12 79.5694 137.242 79.5694Z" fill="#0F2F66"/>
<path d="M61.9356 57.9771H60.8756C59.9969 57.9771 59.2856 57.2653 59.2856 56.386C59.2856 55.5066 59.9969 54.7949 60.8756 54.7949H61.9356C62.8144 54.7949 63.5256 55.5066 63.5256 56.386C63.5256 57.2653 62.8133 57.9771 61.9356 57.9771Z" fill="#0F2F66"/>
<path d="M133.026 57.9771H130.995C130.117 57.9771 129.405 57.2653 129.405 56.386C129.405 55.5066 130.117 54.7949 130.995 54.7949H133.026C133.904 54.7949 134.616 55.5066 134.616 56.386C134.616 57.2653 133.904 57.9771 133.026 57.9771ZM125.918 57.9771H123.887C123.009 57.9771 122.297 57.2653 122.297 56.386C122.297 55.5066 123.009 54.7949 123.887 54.7949H125.918C126.795 54.7949 127.508 55.5066 127.508 56.386C127.508 57.2653 126.795 57.9771 125.918 57.9771ZM118.808 57.9771H116.777C115.899 57.9771 115.187 57.2653 115.187 56.386C115.187 55.5066 115.899 54.7949 116.777 54.7949H118.808C119.686 54.7949 120.398 55.5066 120.398 56.386C120.398 57.2653 119.686 57.9771 118.808 57.9771ZM111.699 57.9771H109.668C108.79 57.9771 108.078 57.2653 108.078 56.386C108.078 55.5066 108.79 54.7949 109.668 54.7949H111.699C112.576 54.7949 113.289 55.5066 113.289 56.386C113.289 57.2653 112.576 57.9771 111.699 57.9771ZM104.59 57.9771H102.559C101.682 57.9771 100.969 57.2653 100.969 56.386C100.969 55.5066 101.682 54.7949 102.559 54.7949H104.59C105.468 54.7949 106.18 55.5066 106.18 56.386C106.18 57.2653 105.468 57.9771 104.59 57.9771ZM97.4809 57.9771H95.45C94.5712 57.9771 93.86 57.2653 93.86 56.386C93.86 55.5066 94.5712 54.7949 95.45 54.7949H97.4809C98.3597 54.7949 99.0709 55.5066 99.0709 56.386C99.0709 57.2653 98.3597 57.9771 97.4809 57.9771ZM90.3726 57.9771H88.3416C87.4629 57.9771 86.7516 57.2653 86.7516 56.386C86.7516 55.5066 87.4629 54.7949 88.3416 54.7949H90.3726C91.2513 54.7949 91.9626 55.5066 91.9626 56.386C91.9626 57.2653 91.2502 57.9771 90.3726 57.9771ZM83.2631 57.9771H81.2322C80.3534 57.9771 79.6422 57.2653 79.6422 56.386C79.6422 55.5066 80.3534 54.7949 81.2322 54.7949H83.2631C84.1419 54.7949 84.8531 55.5066 84.8531 56.386C84.8531 57.2653 84.1419 57.9771 83.2631 57.9771ZM76.1537 57.9771H74.1228C73.244 57.9771 72.5328 57.2653 72.5328 56.386C72.5328 55.5066 73.244 54.7949 74.1228 54.7949H76.1548C77.0335 54.7949 77.7448 55.5066 77.7448 56.386C77.7448 57.2653 77.0325 57.9771 76.1537 57.9771ZM69.0443 57.9771H67.0133C66.1346 57.9771 65.4233 57.2653 65.4233 56.386C65.4233 55.5066 66.1346 54.7949 67.0133 54.7949H69.0443C69.923 54.7949 70.6343 55.5066 70.6343 56.386C70.6343 57.2653 69.923 57.9771 69.0443 57.9771Z" fill="#0F2F66"/>
<path d="M139.164 57.9771H138.104C137.226 57.9771 136.514 57.2653 136.514 56.386C136.514 55.5066 137.226 54.7949 138.104 54.7949H139.164C140.042 54.7949 140.754 55.5066 140.754 56.386C140.754 57.2653 140.042 57.9771 139.164 57.9771Z" fill="#0F2F66"/>
</svg>
