<svg width="153" height="51" viewBox="0 0 153 51" fill="none" xmlns="http://www.w3.org/2000/svg">
<path d="M147.283 50.0644H5.66474C2.54917 50.0644 0 47.2483 0 43.8064V6.25808C0 2.81612 2.54912 0 5.66474 0H147.283C150.399 0 152.948 2.81612 152.948 6.25808V43.8063C152.948 47.2483 150.399 50.0644 147.283 50.0644Z" fill="#0F2F66"/>
<path d="M147.283 0H5.66474C2.54917 0 0 2.81612 0 6.25808V43.8063C0 47.2483 2.54912 50.0644 5.66474 50.0644H147.283C150.399 50.0644 152.948 47.2483 152.948 43.8064V6.25808C152.948 2.81612 150.399 0 147.283 0H147.283ZM147.283 1.00126C149.907 1.00126 152.041 3.35984 152.041 6.25808V43.8063C152.041 46.7051 149.907 49.0637 147.283 49.0637H5.66474C3.04132 49.0637 0.906367 46.7051 0.906367 43.8064V6.25808C0.906367 3.35984 3.04127 1.00131 5.66474 1.00131H147.283" fill="#A6A6A6"/>
<path d="M52.0458 19.096C51.4805 19.096 50.9952 18.976 50.5898 18.736C50.1845 18.4907 49.8725 18.152 49.6538 17.72C49.4352 17.2827 49.3258 16.7787 49.3258 16.208C49.3258 15.6373 49.4352 15.1333 49.6538 14.696C49.8725 14.2587 50.1845 13.9173 50.5898 13.672C50.9952 13.4267 51.4805 13.304 52.0458 13.304C52.7178 13.304 53.2672 13.472 53.6938 13.808C54.1258 14.1387 54.3952 14.6053 54.5018 15.208H53.3738C53.3045 14.904 53.1552 14.6667 52.9258 14.496C52.7018 14.32 52.4032 14.232 52.0298 14.232C51.5125 14.232 51.1072 14.408 50.8138 14.76C50.5205 15.112 50.3738 15.5947 50.3738 16.208C50.3738 16.8213 50.5205 17.304 50.8138 17.656C51.1072 18.0027 51.5125 18.176 52.0298 18.176C52.4032 18.176 52.7018 18.096 52.9258 17.936C53.1552 17.7707 53.3045 17.544 53.3738 17.256H54.5018C54.3952 17.832 54.1258 18.2827 53.6938 18.608C53.2672 18.9333 52.7178 19.096 52.0458 19.096ZM58.0323 19.096C57.4723 19.096 56.9816 18.9733 56.5603 18.728C56.1443 18.4827 55.8163 18.144 55.5763 17.712C55.3416 17.2747 55.2243 16.7707 55.2243 16.2C55.2243 15.6293 55.3416 15.128 55.5763 14.696C55.8163 14.2587 56.1443 13.9173 56.5603 13.672C56.9816 13.4267 57.4723 13.304 58.0323 13.304C58.5869 13.304 59.0749 13.4267 59.4963 13.672C59.9176 13.9173 60.2456 14.2587 60.4803 14.696C60.7149 15.128 60.8323 15.6293 60.8323 16.2C60.8323 16.7707 60.7149 17.2747 60.4803 17.712C60.2456 18.144 59.9176 18.4827 59.4963 18.728C59.0749 18.9733 58.5869 19.096 58.0323 19.096ZM58.0323 18.176C58.5656 18.176 58.9896 18 59.3043 17.648C59.6243 17.296 59.7843 16.8133 59.7843 16.2C59.7843 15.5867 59.6243 15.104 59.3043 14.752C58.9896 14.4 58.5656 14.224 58.0323 14.224C57.4989 14.224 57.0723 14.4 56.7523 14.752C56.4323 15.104 56.2723 15.5867 56.2723 16.2C56.2723 16.8133 56.4323 17.296 56.7523 17.648C57.0723 18 57.4989 18.176 58.0323 18.176ZM61.7364 19V13.4H62.9524L64.7364 16.952L66.4964 13.4H67.7124V19H66.6884V15.136L65.1284 18.2H64.3204L62.7604 15.136V19H61.7364ZM68.7989 19V13.4H69.8229V19H68.7989ZM70.9083 19V13.4H71.9323L74.5643 17.344V13.4H75.5883V19H74.5643L71.9323 15.064V19H70.9083ZM79.1219 19.096C78.5939 19.096 78.1325 18.976 77.7379 18.736C77.3432 18.496 77.0365 18.1627 76.8179 17.736C76.5992 17.304 76.4899 16.8027 76.4899 16.232C76.4899 15.656 76.6019 15.1493 76.8259 14.712C77.0552 14.2693 77.3779 13.9253 77.7939 13.68C78.2152 13.4293 78.7139 13.304 79.2899 13.304C79.9459 13.304 80.4899 13.4613 80.9219 13.776C81.3539 14.0907 81.6339 14.5253 81.7619 15.08H80.6179C80.5325 14.8187 80.3779 14.616 80.1539 14.472C79.9299 14.3227 79.6419 14.248 79.2899 14.248C78.7299 14.248 78.2979 14.4267 77.9939 14.784C77.6899 15.136 77.5379 15.6213 77.5379 16.24C77.5379 16.8587 77.6872 17.3387 77.9859 17.68C78.2899 18.016 78.7005 18.184 79.2179 18.184C79.7245 18.184 80.1059 18.048 80.3619 17.776C80.6232 17.4987 80.7805 17.136 80.8339 16.688H79.4179V15.92H81.8659V19H80.9219L80.8419 18.264C80.6605 18.5307 80.4339 18.736 80.1619 18.88C79.8899 19.024 79.5432 19.096 79.1219 19.096ZM86.6796 19.096C86.269 19.096 85.9063 19.0267 85.5916 18.888C85.277 18.744 85.029 18.5413 84.8476 18.28C84.6663 18.0133 84.573 17.6907 84.5676 17.312H85.6476C85.6583 17.5733 85.7516 17.7947 85.9276 17.976C86.109 18.152 86.357 18.24 86.6716 18.24C86.9436 18.24 87.1596 18.176 87.3196 18.048C87.4796 17.9147 87.5596 17.7387 87.5596 17.52C87.5596 17.2907 87.4876 17.112 87.3436 16.984C87.205 16.856 87.0183 16.752 86.7836 16.672C86.549 16.592 86.2983 16.5067 86.0316 16.416C85.5996 16.2667 85.269 16.0747 85.0396 15.84C84.8156 15.6053 84.7036 15.2933 84.7036 14.904C84.6983 14.5733 84.7756 14.2907 84.9356 14.056C85.101 13.816 85.325 13.632 85.6076 13.504C85.8903 13.3707 86.2156 13.304 86.5836 13.304C86.957 13.304 87.285 13.3707 87.5676 13.504C87.8556 13.6373 88.0796 13.824 88.2396 14.064C88.405 14.304 88.493 14.5893 88.5036 14.92H87.4076C87.4023 14.7227 87.325 14.5493 87.1756 14.4C87.0316 14.2453 86.829 14.168 86.5676 14.168C86.3436 14.1627 86.1543 14.2187 85.9996 14.336C85.8503 14.448 85.7756 14.6133 85.7756 14.832C85.7756 15.0187 85.8343 15.168 85.9516 15.28C86.069 15.3867 86.229 15.4773 86.4316 15.552C86.6343 15.6267 86.8663 15.7067 87.1276 15.792C87.405 15.888 87.6583 16 87.8876 16.128C88.117 16.256 88.301 16.4267 88.4396 16.64C88.5783 16.848 88.6476 17.1173 88.6476 17.448C88.6476 17.7413 88.573 18.0133 88.4236 18.264C88.2743 18.5147 88.053 18.7173 87.7596 18.872C87.4663 19.0213 87.1063 19.096 86.6796 19.096ZM92.1651 19.096C91.6051 19.096 91.1144 18.9733 90.6931 18.728C90.2771 18.4827 89.9491 18.144 89.7091 17.712C89.4744 17.2747 89.3571 16.7707 89.3571 16.2C89.3571 15.6293 89.4744 15.128 89.7091 14.696C89.9491 14.2587 90.2771 13.9173 90.6931 13.672C91.1144 13.4267 91.6051 13.304 92.1651 13.304C92.7197 13.304 93.2077 13.4267 93.6291 13.672C94.0504 13.9173 94.3784 14.2587 94.6131 14.696C94.8477 15.128 94.9651 15.6293 94.9651 16.2C94.9651 16.7707 94.8477 17.2747 94.6131 17.712C94.3784 18.144 94.0504 18.4827 93.6291 18.728C93.2077 18.9733 92.7197 19.096 92.1651 19.096ZM92.1651 18.176C92.6984 18.176 93.1224 18 93.4371 17.648C93.7571 17.296 93.9171 16.8133 93.9171 16.2C93.9171 15.5867 93.7571 15.104 93.4371 14.752C93.1224 14.4 92.6984 14.224 92.1651 14.224C91.6317 14.224 91.2051 14.4 90.8851 14.752C90.5651 15.104 90.4051 15.5867 90.4051 16.2C90.4051 16.8133 90.5651 17.296 90.8851 17.648C91.2051 18 91.6317 18.176 92.1651 18.176ZM98.4932 19.096C97.9332 19.096 97.4425 18.9733 97.0212 18.728C96.6052 18.4827 96.2772 18.144 96.0372 17.712C95.8025 17.2747 95.6852 16.7707 95.6852 16.2C95.6852 15.6293 95.8025 15.128 96.0372 14.696C96.2772 14.2587 96.6052 13.9173 97.0212 13.672C97.4425 13.4267 97.9332 13.304 98.4932 13.304C99.0479 13.304 99.5359 13.4267 99.9572 13.672C100.379 13.9173 100.707 14.2587 100.941 14.696C101.176 15.128 101.293 15.6293 101.293 16.2C101.293 16.7707 101.176 17.2747 100.941 17.712C100.707 18.144 100.379 18.4827 99.9572 18.728C99.5359 18.9733 99.0479 19.096 98.4932 19.096ZM98.4932 18.176C99.0265 18.176 99.4505 18 99.7652 17.648C100.085 17.296 100.245 16.8133 100.245 16.2C100.245 15.5867 100.085 15.104 99.7652 14.752C99.4505 14.4 99.0265 14.224 98.4932 14.224C97.9599 14.224 97.5332 14.4 97.2132 14.752C96.8932 15.104 96.7332 15.5867 96.7332 16.2C96.7332 16.8133 96.8932 17.296 97.2132 17.648C97.5332 18 97.9599 18.176 98.4932 18.176ZM102.197 19V13.4H103.221L105.853 17.344V13.4H106.877V19H105.853L103.221 15.064V19H102.197ZM112.493 19.096C111.933 19.096 111.443 18.9733 111.021 18.728C110.605 18.4827 110.277 18.144 110.037 17.712C109.803 17.2747 109.685 16.7707 109.685 16.2C109.685 15.6293 109.803 15.128 110.037 14.696C110.277 14.2587 110.605 13.9173 111.021 13.672C111.443 13.4267 111.933 13.304 112.493 13.304C113.048 13.304 113.536 13.4267 113.957 13.672C114.379 13.9173 114.707 14.2587 114.941 14.696C115.176 15.128 115.293 15.6293 115.293 16.2C115.293 16.7707 115.176 17.2747 114.941 17.712C114.707 18.144 114.379 18.4827 113.957 18.728C113.536 18.9733 113.048 19.096 112.493 19.096ZM112.493 18.176C113.027 18.176 113.451 18 113.765 17.648C114.085 17.296 114.245 16.8133 114.245 16.2C114.245 15.5867 114.085 15.104 113.765 14.752C113.451 14.4 113.027 14.224 112.493 14.224C111.96 14.224 111.533 14.4 111.213 14.752C110.893 15.104 110.733 15.5867 110.733 16.2C110.733 16.8133 110.893 17.296 111.213 17.648C111.533 18 111.96 18.176 112.493 18.176ZM116.197 19V13.4H117.221L119.853 17.344V13.4H120.877V19H119.853L117.221 15.064V19H116.197Z" fill="white"/>
<path d="M115.819 36.6579H117.722V24.0569H115.818L115.819 36.6579ZM132.963 28.5961L130.781 34.0593H130.716L128.451 28.596H126.401L129.797 36.2319L127.861 40.4792H129.847L135.08 28.596L132.963 28.5961ZM122.169 35.2267C121.544 35.2267 120.675 34.9188 120.675 34.1565C120.675 33.1839 121.759 32.8111 122.693 32.8111C123.53 32.8111 123.923 32.9894 124.432 33.2328C124.284 34.3998 123.267 35.2267 122.169 35.2267ZM122.398 28.3204C121.02 28.3204 119.593 28.9204 119.002 30.2498L120.691 30.9467C121.053 30.2498 121.725 30.0225 122.431 30.0225C123.415 30.0225 124.416 30.6065 124.432 31.644V31.7736C124.087 31.579 123.35 31.2873 122.447 31.2873C120.626 31.2873 118.772 32.2759 118.772 34.1242C118.772 35.8103 120.265 36.8965 121.938 36.8965C123.218 36.8965 123.923 36.3291 124.367 35.6646H124.432V36.6371H126.269V31.8058C126.269 29.569 124.58 28.3204 122.398 28.3204ZM110.634 30.13H107.927V25.8107H110.634C112.057 25.8107 112.865 26.9749 112.865 27.9703C112.865 28.9468 112.057 30.13 110.634 30.13ZM110.585 24.0569H106.025V36.6579H107.927V31.8838H110.585C112.695 31.8838 114.769 30.3745 114.769 27.9703C114.769 25.5662 112.695 24.0569 110.585 24.0569ZM85.7145 35.229C84.3994 35.229 83.2985 34.1411 83.2985 32.6469C83.2985 31.1369 84.3994 30.0324 85.7145 30.0324C87.0127 30.0324 88.0316 31.1369 88.0316 32.6469C88.0316 34.1411 87.0127 35.229 85.7145 35.229ZM87.9001 29.3017H87.8343C87.4072 28.7984 86.5851 28.3437 85.5499 28.3437C83.3806 28.3437 81.3922 30.2273 81.3922 32.6469C81.3922 35.0503 83.3805 36.9178 85.5499 36.9178C86.5851 36.9178 87.4072 36.463 87.8343 35.9437H87.9001V36.5607C87.9001 38.2011 87.0127 39.0779 85.583 39.0779C84.4162 39.0779 83.693 38.2495 83.3969 37.5513L81.7373 38.2333C82.2139 39.37 83.4794 40.7667 85.583 40.7667C87.818 40.7667 89.708 39.4673 89.708 36.3008V28.6035H87.9001V29.3017ZM91.0225 36.6579H92.9289V24.0564H91.0225V36.6579ZM95.7392 32.5008C95.6899 30.8443 97.0375 30.0001 98.007 30.0001C98.7635 30.0001 99.4041 30.3734 99.6173 30.9097L95.7392 32.5008ZM101.656 31.0719C101.294 30.1135 100.193 28.3437 97.9412 28.3437C95.7062 28.3437 93.8493 30.0812 93.8493 32.6307C93.8493 35.0342 95.6899 36.9178 98.1548 36.9178C100.144 36.9178 101.294 35.7161 101.771 35.0179L100.292 34.0434C99.7989 34.7581 99.1247 35.229 98.1548 35.229C97.1853 35.229 96.4952 34.7904 96.0512 33.93L101.852 31.5589L101.656 31.0719ZM55.4368 29.6591V31.4778H59.8411C59.7096 32.5008 59.3645 33.2477 58.8385 33.7674C58.1978 34.401 57.1952 35.0991 55.4368 35.0991C52.7251 35.0991 50.6052 32.9394 50.6052 30.2599C50.6052 27.5805 52.7251 25.4205 55.4368 25.4205C56.8995 25.4205 57.9674 25.989 58.7564 26.7198L60.0547 25.437C58.9537 24.3975 57.4909 23.6018 55.4368 23.6018C51.7225 23.6018 48.6001 26.5899 48.6001 30.2599C48.6001 33.93 51.7225 36.9178 55.4368 36.9178C57.4419 36.9178 58.9537 36.2686 60.1368 35.0503C61.353 33.8486 61.7311 32.1598 61.7311 30.7959C61.7311 30.3734 61.6984 29.9839 61.6322 29.6591H55.4368ZM66.7383 35.229C65.4233 35.229 64.2893 34.1572 64.2893 32.6307C64.2893 31.088 65.4233 30.0324 66.7383 30.0324C68.0528 30.0324 69.1869 31.088 69.1869 32.6307C69.1869 34.1573 68.0528 35.229 66.7383 35.229ZM66.7383 28.3437C64.3387 28.3437 62.3829 30.1461 62.3829 32.6307C62.3829 35.0991 64.3387 36.9178 66.7383 36.9178C69.1375 36.9178 71.0932 35.0991 71.0932 32.6307C71.0932 30.1461 69.1375 28.3437 66.7383 28.3437ZM76.2387 35.229C74.9242 35.229 73.79 34.1572 73.79 32.6307C73.79 31.088 74.9242 30.0324 76.2387 30.0324C77.5533 30.0324 78.6873 31.088 78.6873 32.6307C78.6873 34.1573 77.5532 35.229 76.2387 35.229ZM76.2387 28.3437C73.8391 28.3437 71.8838 30.1461 71.8838 32.6307C71.8838 35.0991 73.8391 36.9178 76.2387 36.9178C78.638 36.9178 80.5937 35.0991 80.5937 32.6307C80.5937 30.1461 78.6379 28.3437 76.2387 28.3437Z" fill="white"/>
<path d="M17.6384 14.0159C17.3346 14.2907 17.1533 14.7489 17.1533 15.3571V15.2196V35.2899V35.1577C17.1533 35.7194 17.3089 36.1532 17.5722 36.4326L17.6395 36.4971V36.4974C17.8527 36.6902 18.1261 36.7926 18.4394 36.7923C18.7455 36.7923 19.0899 36.6944 19.4534 36.4879L32.5926 29.0051L37.1059 26.4346C37.6791 26.1082 38.0008 25.6871 38.0546 25.2583V25.2565C38.0008 24.8267 37.6791 24.4059 37.1059 24.0795L32.5923 21.5093L19.4535 14.0265C19.0892 13.8196 18.7445 13.7214 18.4376 13.7214C18.1246 13.7214 17.8516 13.8235 17.6385 14.0159H17.6384Z" fill="#00C1FF"/>
<path d="M17.6395 36.4971L17.5722 36.4326C17.3089 36.1533 17.1533 35.7194 17.1533 35.1578V35.29V15.2246V15.3571C17.1533 14.7489 17.3346 14.2907 17.6384 14.016L28.8537 25.2569L17.6395 36.4971Z" fill="url(#paint0_linear_1484_7271)"/>
<path d="M32.5924 29.0052L28.8535 25.2569L32.5921 21.5093L37.1057 24.0795C37.6789 24.406 38.0006 24.8267 38.0544 25.2566V25.2583C38.0006 25.6872 37.6789 26.1083 37.1057 26.4346L32.5925 29.0051" fill="url(#paint1_linear_1484_7271)"/>
<path d="M18.439 36.7923C18.1257 36.7926 17.8523 36.6902 17.6392 36.4974V36.4971L28.8533 25.2569L32.5923 29.0051L19.453 36.4879C19.0895 36.6945 18.7451 36.7923 18.439 36.7923Z" fill="url(#paint2_linear_1484_7271)"/>
<path d="M28.8535 25.257L17.6382 14.016C17.8514 13.8236 18.1244 13.7215 18.4373 13.7215C18.7442 13.7215 19.089 13.8196 19.4532 14.0266L32.5921 21.5094L28.8535 25.257" fill="url(#paint3_linear_1484_7271)"/>
<path d="M18.4392 36.9252C18.1259 36.9252 17.8522 36.8227 17.639 36.6299L17.6386 36.6303C17.6377 36.6294 17.6368 36.6286 17.6358 36.6278L17.5775 36.5707C17.5756 36.5689 17.5739 36.5669 17.5718 36.5648L17.639 36.4974C17.8522 36.6902 18.1255 36.7926 18.4389 36.7922C18.745 36.7922 19.0894 36.6944 19.4529 36.4878L32.5921 29.0051L32.6763 29.0895L32.5911 29.138L19.4529 36.6204C19.1216 36.8086 18.8065 36.9067 18.5219 36.9231C18.4943 36.9244 18.4668 36.9251 18.4392 36.9251" fill="url(#paint4_linear_1484_7271)"/>
<path d="M17.5725 36.5648C17.309 36.2855 17.1533 35.852 17.1533 35.29V35.1578C17.1533 35.7195 17.309 36.1532 17.5725 36.4326L17.6398 36.4971L17.5725 36.5648Z" fill="url(#paint5_linear_1484_7271)"/>
<path d="M32.677 29.0895L32.5928 29.0051L37.106 26.4346C37.6792 26.1082 38.001 25.6871 38.0548 25.2583C38.0548 25.4157 38.0197 25.573 37.9501 25.7262C37.8097 26.0348 37.5283 26.3265 37.106 26.5671L32.677 29.0895" fill="url(#paint6_linear_1484_7271)"/>
<path d="M38.0546 25.2566C38.0009 24.8267 37.6791 24.406 37.1059 24.0795L32.5923 21.5093L32.6765 21.4249H32.6768L37.1059 23.9473C37.7378 24.3074 38.0543 24.7819 38.0546 25.2566Z" fill="url(#paint7_linear_1484_7271)"/>
<path d="M17.1533 15.3571V15.2184C17.1533 15.1685 17.1547 15.1196 17.1572 15.0721V15.0699C17.1572 15.0693 17.1572 15.0686 17.1575 15.0679V15.0625C17.1848 14.5787 17.3348 14.2013 17.5725 13.9493L17.6388 14.0159C17.3348 14.2907 17.1533 14.7489 17.1533 15.3571Z" fill="url(#paint8_linear_1484_7271)"/>
<path d="M32.5918 21.5094L19.4529 14.0266C19.0887 13.8196 18.744 13.7215 18.4371 13.7215C18.1241 13.7215 17.8511 13.8235 17.638 14.016L17.5718 13.9494C17.5924 13.9274 17.6139 13.9063 17.6362 13.886C17.6369 13.8852 17.638 13.8845 17.6386 13.8838C17.8501 13.6928 18.1202 13.5907 18.4304 13.5889H18.4371C18.744 13.5889 19.0887 13.6871 19.4529 13.8941L32.6763 21.4247L32.6759 21.425L32.5918 21.5094Z" fill="url(#paint9_linear_1484_7271)"/>
<defs>
<linearGradient id="paint0_linear_1484_7271" x1="24.3206" y1="15.0125" x2="14.6488" y2="24.6931" gradientUnits="userSpaceOnUse">
<stop stop-color="#00A0FF"/>
<stop offset="0.00657" stop-color="#00A1FF"/>
<stop offset="0.2601" stop-color="#00BEFF"/>
<stop offset="0.5122" stop-color="#00D2FF"/>
<stop offset="0.7604" stop-color="#00DFFF"/>
<stop offset="1" stop-color="#00E3FF"/>
</linearGradient>
<linearGradient id="paint1_linear_1484_7271" x1="38.7528" y1="25.1922" x2="16.8496" y2="25.1922" gradientUnits="userSpaceOnUse">
<stop stop-color="#FFE000"/>
<stop offset="0.4087" stop-color="#FFBD00"/>
<stop offset="0.7754" stop-color="#FFA500"/>
<stop offset="1" stop-color="#FF9C00"/>
</linearGradient>
<linearGradient id="paint2_linear_1484_7271" x1="30.6072" y1="28.8206" x2="14.2178" y2="45.1052" gradientUnits="userSpaceOnUse">
<stop stop-color="#FF3A44"/>
<stop offset="1" stop-color="#C31162"/>
</linearGradient>
<linearGradient id="paint3_linear_1484_7271" x1="14.7477" y1="12.3495" x2="22.0521" y2="19.6184" gradientUnits="userSpaceOnUse">
<stop stop-color="#32A071"/>
<stop offset="0.0685" stop-color="#2DA771"/>
<stop offset="0.4762" stop-color="#15CF74"/>
<stop offset="0.8009" stop-color="#06E775"/>
<stop offset="1" stop-color="#00F076"/>
</linearGradient>
<linearGradient id="paint4_linear_1484_7271" x1="30.5989" y1="31.4205" x2="17.4734" y2="44.5582" gradientUnits="userSpaceOnUse">
<stop stop-color="#CC2E36"/>
<stop offset="1" stop-color="#9C0E4E"/>
</linearGradient>
<linearGradient id="paint5_linear_1484_7271" x1="18.6484" y1="15.0125" x2="10.1277" y2="23.547" gradientUnits="userSpaceOnUse">
<stop stop-color="#008DE0"/>
<stop offset="0.00657" stop-color="#008DE0"/>
<stop offset="0.2601" stop-color="#00A7E0"/>
<stop offset="0.5122" stop-color="#00B8E0"/>
<stop offset="0.7604" stop-color="#00C4E0"/>
<stop offset="1" stop-color="#00C7E0"/>
</linearGradient>
<linearGradient id="paint6_linear_1484_7271" x1="38.7531" y1="25.2574" x2="16.8499" y2="25.2574" gradientUnits="userSpaceOnUse">
<stop stop-color="#E0C500"/>
<stop offset="0.4087" stop-color="#E0A600"/>
<stop offset="0.7754" stop-color="#E09100"/>
<stop offset="1" stop-color="#E08900"/>
</linearGradient>
<linearGradient id="paint7_linear_1484_7271" x1="38.753" y1="25.2575" x2="16.8499" y2="25.2575" gradientUnits="userSpaceOnUse">
<stop stop-color="#FFE840"/>
<stop offset="0.4087" stop-color="#FFCE40"/>
<stop offset="0.7754" stop-color="#FFBC40"/>
<stop offset="1" stop-color="#FFB540"/>
</linearGradient>
<linearGradient id="paint8_linear_1484_7271" x1="18.6392" y1="15.0279" x2="10.4322" y2="22.892" gradientUnits="userSpaceOnUse">
<stop stop-color="#40B8FF"/>
<stop offset="0.00657" stop-color="#40B9FF"/>
<stop offset="0.2601" stop-color="#40CEFF"/>
<stop offset="0.5122" stop-color="#40DDFF"/>
<stop offset="0.7604" stop-color="#40E7FF"/>
<stop offset="1" stop-color="#40EAFF"/>
</linearGradient>
<linearGradient id="paint9_linear_1484_7271" x1="14.7311" y1="14.7267" x2="20.5922" y2="20.5933" gradientUnits="userSpaceOnUse">
<stop stop-color="#65B895"/>
<stop offset="0.0685" stop-color="#62BD95"/>
<stop offset="0.4762" stop-color="#50DB97"/>
<stop offset="0.8009" stop-color="#44ED98"/>
<stop offset="1" stop-color="#40F498"/>
</linearGradient>
</defs>
</svg>
