<svg width="250" height="272" viewBox="0 0 250 272" fill="none" xmlns="http://www.w3.org/2000/svg">
<g filter="url(#filter0_dddddd_1484_7388)">
<rect x="80" y="2" width="90" height="90" rx="10" fill="#4DDFFD"/>
</g>
<mask id="path-2-inside-1_1484_7388" fill="white">
<path d="M120.075 58.4931C119.669 58.4926 119.28 58.653 118.992 58.9391C118.399 59.5283 117.443 59.5345 116.842 58.953L115.274 57.4346C113.757 55.9663 113.746 53.5375 115.249 52.0551L116.388 50.9311C117.174 50.1505 118.166 49.6059 119.249 49.3599C120.332 49.114 121.463 49.1767 122.512 49.5408C123.076 49.7367 123.67 49.8367 124.267 49.8367H128.595C128.816 49.8366 129.035 49.8807 129.239 49.9663C129.442 50.0519 129.627 50.1773 129.781 50.3351C129.935 50.4928 130.055 50.6797 130.135 50.8847C130.215 51.0896 130.253 51.3084 130.246 51.5281C130.221 51.9623 130.028 52.37 129.707 52.6662C129.387 52.9623 128.963 53.124 128.525 53.1173H125.388C125.218 53.1173 125.054 53.1845 124.934 53.3041C124.814 53.4237 124.746 53.586 124.746 53.7551C124.746 53.9242 124.814 54.0865 124.934 54.2061C125.054 54.3257 125.218 54.3929 125.388 54.3929H128.536C129.304 54.3966 130.043 54.1068 130.602 53.5835C131.161 53.0602 131.496 52.3434 131.537 51.5816C131.537 51.5553 131.547 51.53 131.564 51.5104L134.449 48.2832C134.745 47.9422 135.161 47.7275 135.612 47.6838C136.063 47.6401 136.514 47.7707 136.87 48.0485C137.047 48.1936 137.192 48.3724 137.298 48.5743C137.403 48.7762 137.467 48.997 137.486 49.2239C137.504 49.4507 137.477 49.6789 137.405 49.895C137.333 50.1111 137.219 50.3108 137.068 50.4821L131.255 57.1148C130.871 57.5517 130.398 57.9017 129.866 58.1411C129.334 58.3806 128.757 58.5038 128.174 58.5026L120.075 58.4931ZM-nan -nanL131.445 44.0714C131.445 43.7501 131.316 43.4418 131.088 43.2146C130.859 42.9874 130.549 42.8597 130.225 42.8597C129.239 42.8597 128.428 42.0602 128.428 41.074C128.414 40.7626 128.279 40.4686 128.052 40.2533C127.825 40.038 127.523 39.9178 127.21 39.9178C126.896 39.9178 126.594 40.038 126.367 40.2533C126.14 40.4686 126.006 40.7626 125.991 41.074C125.991 42.0602 125.18 42.8597 124.194 42.8597C124.029 42.8522 123.865 42.8779 123.71 42.9354C123.556 42.9928 123.415 43.0808 123.296 43.1939C123.176 43.307 123.081 43.443 123.017 43.5936C122.952 43.7442 122.918 43.9063 122.918 44.0702C122.918 44.234 122.952 44.3961 123.017 44.5467C123.081 44.6973 123.176 44.8333 123.296 44.9464C123.415 45.0596 123.556 45.1475 123.71 45.2049C123.865 45.2624 124.029 45.2881 124.194 45.2806C125.18 45.2806 125.991 46.0801 125.991 47.0663C126.006 47.3777 126.14 47.6717 126.367 47.887C126.594 48.1023 126.896 48.2225 127.21 48.2225C127.523 48.2225 127.825 48.1023 128.052 47.887C128.279 47.6717 128.414 47.3777 128.428 47.0663C128.428 46.0801 129.239 45.2806 130.225 45.2806C130.548 45.2806 130.858 45.1533 131.087 44.9266C131.315 44.6999 131.444 44.3924 131.445 44.0714L-nan -nanZM119.749 37.3571C119.751 37.3571 119.752 37.3583 119.752 37.3597V38.0153C119.752 38.3788 119.457 38.6735 119.094 38.6735H118.43C118.191 38.6735 117.963 38.7675 117.794 38.935C117.626 39.1024 117.531 39.3295 117.531 39.5663C117.531 39.8031 117.626 40.0302 117.794 40.1977C117.963 40.3651 118.191 40.4592 118.43 40.4592C119.157 40.4592 119.755 41.0485 119.755 41.7755C119.755 42.0123 119.849 42.2394 120.018 42.4069C120.186 42.5743 120.415 42.6684 120.653 42.6684C120.892 42.6684 121.12 42.5743 121.289 42.4069C121.457 42.2394 121.552 42.0123 121.552 41.7755C121.552 41.0481 122.142 40.4541 122.869 40.4541C123.107 40.4541 123.336 40.36 123.504 40.1926C123.673 40.0251 123.768 39.798 123.768 39.5612C123.768 39.3244 123.673 39.0973 123.504 38.9299C123.336 38.7624 123.107 38.6684 122.869 38.6684H122.855C122.131 38.6684 121.544 38.0813 121.544 37.3571C121.544 37.1203 121.449 36.8932 121.281 36.7258C121.112 36.5584 120.884 36.4643 120.646 36.4643C120.407 36.4643 120.179 36.5584 120.01 36.7258C119.842 36.8926 119.748 37.1187 119.747 37.3546C119.747 37.356 119.748 37.3571 119.749 37.3571ZM-nan -nanL131.088 35C130.884 35 130.688 35.0806 130.543 35.2242C130.399 35.3677 130.318 35.5623 130.318 35.7653C130.318 36.3909 129.803 36.898 129.178 36.898C128.973 36.898 128.777 36.9786 128.633 37.1221C128.489 37.2656 128.407 37.4603 128.407 37.6633C128.407 37.8662 128.489 38.0609 128.633 38.2044C128.777 38.3479 128.973 38.4286 129.178 38.4286C129.803 38.4286 130.318 38.9357 130.318 39.5612C130.318 39.7642 130.399 39.9589 130.543 40.1024C130.688 40.2459 130.884 40.3265 131.088 40.3265C131.292 40.3265 131.488 40.2459 131.633 40.1024C131.777 39.9589 131.858 39.7642 131.858 39.5612C131.858 38.9357 132.373 38.4286 132.998 38.4286C133.099 38.4286 133.2 38.4088 133.293 38.3703C133.386 38.3319 133.471 38.2755 133.543 38.2044C133.614 38.1334 133.671 38.049 133.71 37.9561C133.749 37.8633 133.769 37.7638 133.769 37.6633C133.769 37.5628 133.749 37.4632 133.71 37.3704C133.671 37.2775 133.614 37.1932 133.543 37.1221C133.471 37.051 133.386 36.9947 133.293 36.9562C133.2 36.9178 133.099 36.898 132.998 36.898C132.373 36.898 131.858 36.3909 131.858 35.7653C131.858 35.5623 131.777 35.3677 131.633 35.2242C131.488 35.0806 131.292 35 131.088 35L-nan -nanZ"/>
</mask>
<path d="M120.075 58.4931C119.669 58.4926 119.28 58.653 118.992 58.9391C118.399 59.5283 117.443 59.5345 116.842 58.953L115.274 57.4346C113.757 55.9663 113.746 53.5375 115.249 52.0551L116.388 50.9311C117.174 50.1505 118.166 49.6059 119.249 49.3599C120.332 49.114 121.463 49.1767 122.512 49.5408C123.076 49.7367 123.67 49.8367 124.267 49.8367H128.595C128.816 49.8366 129.035 49.8807 129.239 49.9663C129.442 50.0519 129.627 50.1773 129.781 50.3351C129.935 50.4928 130.055 50.6797 130.135 50.8847C130.215 51.0896 130.253 51.3084 130.246 51.5281C130.221 51.9623 130.028 52.37 129.707 52.6662C129.387 52.9623 128.963 53.124 128.525 53.1173H125.388C125.218 53.1173 125.054 53.1845 124.934 53.3041C124.814 53.4237 124.746 53.586 124.746 53.7551C124.746 53.9242 124.814 54.0865 124.934 54.2061C125.054 54.3257 125.218 54.3929 125.388 54.3929H128.536C129.304 54.3966 130.043 54.1068 130.602 53.5835C131.161 53.0602 131.496 52.3434 131.537 51.5816C131.537 51.5553 131.547 51.53 131.564 51.5104L134.449 48.2832C134.745 47.9422 135.161 47.7275 135.612 47.6838C136.063 47.6401 136.514 47.7707 136.87 48.0485C137.047 48.1936 137.192 48.3724 137.298 48.5743C137.403 48.7762 137.467 48.997 137.486 49.2239C137.504 49.4507 137.477 49.6789 137.405 49.895C137.333 50.1111 137.219 50.3108 137.068 50.4821L131.255 57.1148C130.871 57.5517 130.398 57.9017 129.866 58.1411C129.334 58.3806 128.757 58.5038 128.174 58.5026L120.075 58.4931ZM-nan -nanL131.445 44.0714C131.445 43.7501 131.316 43.4418 131.088 43.2146C130.859 42.9874 130.549 42.8597 130.225 42.8597C129.239 42.8597 128.428 42.0602 128.428 41.074C128.414 40.7626 128.279 40.4686 128.052 40.2533C127.825 40.038 127.523 39.9178 127.21 39.9178C126.896 39.9178 126.594 40.038 126.367 40.2533C126.14 40.4686 126.006 40.7626 125.991 41.074C125.991 42.0602 125.18 42.8597 124.194 42.8597C124.029 42.8522 123.865 42.8779 123.71 42.9354C123.556 42.9928 123.415 43.0808 123.296 43.1939C123.176 43.307 123.081 43.443 123.017 43.5936C122.952 43.7442 122.918 43.9063 122.918 44.0702C122.918 44.234 122.952 44.3961 123.017 44.5467C123.081 44.6973 123.176 44.8333 123.296 44.9464C123.415 45.0596 123.556 45.1475 123.71 45.2049C123.865 45.2624 124.029 45.2881 124.194 45.2806C125.18 45.2806 125.991 46.0801 125.991 47.0663C126.006 47.3777 126.14 47.6717 126.367 47.887C126.594 48.1023 126.896 48.2225 127.21 48.2225C127.523 48.2225 127.825 48.1023 128.052 47.887C128.279 47.6717 128.414 47.3777 128.428 47.0663C128.428 46.0801 129.239 45.2806 130.225 45.2806C130.548 45.2806 130.858 45.1533 131.087 44.9266C131.315 44.6999 131.444 44.3924 131.445 44.0714L-nan -nanZM119.749 37.3571C119.751 37.3571 119.752 37.3583 119.752 37.3597V38.0153C119.752 38.3788 119.457 38.6735 119.094 38.6735H118.43C118.191 38.6735 117.963 38.7675 117.794 38.935C117.626 39.1024 117.531 39.3295 117.531 39.5663C117.531 39.8031 117.626 40.0302 117.794 40.1977C117.963 40.3651 118.191 40.4592 118.43 40.4592C119.157 40.4592 119.755 41.0485 119.755 41.7755C119.755 42.0123 119.849 42.2394 120.018 42.4069C120.186 42.5743 120.415 42.6684 120.653 42.6684C120.892 42.6684 121.12 42.5743 121.289 42.4069C121.457 42.2394 121.552 42.0123 121.552 41.7755C121.552 41.0481 122.142 40.4541 122.869 40.4541C123.107 40.4541 123.336 40.36 123.504 40.1926C123.673 40.0251 123.768 39.798 123.768 39.5612C123.768 39.3244 123.673 39.0973 123.504 38.9299C123.336 38.7624 123.107 38.6684 122.869 38.6684H122.855C122.131 38.6684 121.544 38.0813 121.544 37.3571C121.544 37.1203 121.449 36.8932 121.281 36.7258C121.112 36.5584 120.884 36.4643 120.646 36.4643C120.407 36.4643 120.179 36.5584 120.01 36.7258C119.842 36.8926 119.748 37.1187 119.747 37.3546C119.747 37.356 119.748 37.3571 119.749 37.3571ZM-nan -nanL131.088 35C130.884 35 130.688 35.0806 130.543 35.2242C130.399 35.3677 130.318 35.5623 130.318 35.7653C130.318 36.3909 129.803 36.898 129.178 36.898C128.973 36.898 128.777 36.9786 128.633 37.1221C128.489 37.2656 128.407 37.4603 128.407 37.6633C128.407 37.8662 128.489 38.0609 128.633 38.2044C128.777 38.3479 128.973 38.4286 129.178 38.4286C129.803 38.4286 130.318 38.9357 130.318 39.5612C130.318 39.7642 130.399 39.9589 130.543 40.1024C130.688 40.2459 130.884 40.3265 131.088 40.3265C131.292 40.3265 131.488 40.2459 131.633 40.1024C131.777 39.9589 131.858 39.7642 131.858 39.5612C131.858 38.9357 132.373 38.4286 132.998 38.4286C133.099 38.4286 133.2 38.4088 133.293 38.3703C133.386 38.3319 133.471 38.2755 133.543 38.2044C133.614 38.1334 133.671 38.049 133.71 37.9561C133.749 37.8633 133.769 37.7638 133.769 37.6633C133.769 37.5628 133.749 37.4632 133.71 37.3704C133.671 37.2775 133.614 37.1932 133.543 37.1221C133.471 37.051 133.386 36.9947 133.293 36.9562C133.2 36.9178 133.099 36.898 132.998 36.898C132.373 36.898 131.858 36.3909 131.858 35.7653C131.858 35.5623 131.777 35.3677 131.633 35.2242C131.488 35.0806 131.292 35 131.088 35L-nan -nanZ" fill="white" stroke="white" stroke-width="2" mask="url(#path-2-inside-1_1484_7388)"/>
<defs>
<filter id="filter0_dddddd_1484_7388" x="0" y="0.703704" width="250" height="271.296" filterUnits="userSpaceOnUse" color-interpolation-filters="sRGB">
<feFlood flood-opacity="0" result="BackgroundImageFix"/>
<feColorMatrix in="SourceAlpha" type="matrix" values="0 0 0 0 0 0 0 0 0 0 0 0 0 0 0 0 0 0 127 0" result="hardAlpha"/>
<feOffset dy="1.85185"/>
<feGaussianBlur stdDeviation="1.57407"/>
<feColorMatrix type="matrix" values="0 0 0 0 0.301961 0 0 0 0 0.87451 0 0 0 0 0.992157 0 0 0 0.0168519 0"/>
<feBlend mode="normal" in2="BackgroundImageFix" result="effect1_dropShadow_1484_7388"/>
<feColorMatrix in="SourceAlpha" type="matrix" values="0 0 0 0 0 0 0 0 0 0 0 0 0 0 0 0 0 0 127 0" result="hardAlpha"/>
<feOffset dy="8.14815"/>
<feGaussianBlur stdDeviation="3.25926"/>
<feColorMatrix type="matrix" values="0 0 0 0 0.301961 0 0 0 0 0.87451 0 0 0 0 0.992157 0 0 0 0.0274815 0"/>
<feBlend mode="normal" in2="effect1_dropShadow_1484_7388" result="effect2_dropShadow_1484_7388"/>
<feColorMatrix in="SourceAlpha" type="matrix" values="0 0 0 0 0 0 0 0 0 0 0 0 0 0 0 0 0 0 127 0" result="hardAlpha"/>
<feOffset dy="20"/>
<feGaussianBlur stdDeviation="6.5"/>
<feColorMatrix type="matrix" values="0 0 0 0 0.301961 0 0 0 0 0.87451 0 0 0 0 0.992157 0 0 0 0.035 0"/>
<feBlend mode="normal" in2="effect2_dropShadow_1484_7388" result="effect3_dropShadow_1484_7388"/>
<feColorMatrix in="SourceAlpha" type="matrix" values="0 0 0 0 0 0 0 0 0 0 0 0 0 0 0 0 0 0 127 0" result="hardAlpha"/>
<feOffset dy="38.5185"/>
<feGaussianBlur stdDeviation="12.7407"/>
<feColorMatrix type="matrix" values="0 0 0 0 0.301961 0 0 0 0 0.87451 0 0 0 0 0.992157 0 0 0 0.0425185 0"/>
<feBlend mode="normal" in2="effect3_dropShadow_1484_7388" result="effect4_dropShadow_1484_7388"/>
<feColorMatrix in="SourceAlpha" type="matrix" values="0 0 0 0 0 0 0 0 0 0 0 0 0 0 0 0 0 0 127 0" result="hardAlpha"/>
<feOffset dy="64.8148"/>
<feGaussianBlur stdDeviation="23.4259"/>
<feColorMatrix type="matrix" values="0 0 0 0 0.301961 0 0 0 0 0.87451 0 0 0 0 0.992157 0 0 0 0.0531481 0"/>
<feBlend mode="normal" in2="effect4_dropShadow_1484_7388" result="effect5_dropShadow_1484_7388"/>
<feColorMatrix in="SourceAlpha" type="matrix" values="0 0 0 0 0 0 0 0 0 0 0 0 0 0 0 0 0 0 127 0" result="hardAlpha"/>
<feOffset dy="100"/>
<feGaussianBlur stdDeviation="40"/>
<feColorMatrix type="matrix" values="0 0 0 0 0.301961 0 0 0 0 0.87451 0 0 0 0 0.992157 0 0 0 0.07 0"/>
<feBlend mode="normal" in2="effect5_dropShadow_1484_7388" result="effect6_dropShadow_1484_7388"/>
<feBlend mode="normal" in="SourceGraphic" in2="effect6_dropShadow_1484_7388" result="shape"/>
</filter>
</defs>
</svg>
