<svg width="40" height="40" viewBox="0 0 40 40" fill="none" xmlns="http://www.w3.org/2000/svg">
<circle opacity="0.15" cx="20" cy="20" r="20" fill="white"/>
<path d="M19.9999 8.33325C23.1698 8.33325 23.5653 8.34492 24.8089 8.40325C26.0514 8.46159 26.8973 8.65642 27.6416 8.94575C28.4116 9.24209 29.0603 9.64342 29.7089 10.2909C30.3022 10.8741 30.7612 11.5796 31.0541 12.3583C31.3423 13.1014 31.5383 13.9484 31.5966 15.1909C31.6514 16.4346 31.6666 16.8301 31.6666 19.9999C31.6666 23.1698 31.6549 23.5653 31.5966 24.8089C31.5383 26.0514 31.3423 26.8973 31.0541 27.6416C30.762 28.4207 30.3029 29.1263 29.7089 29.7089C29.1255 30.302 28.4201 30.761 27.6416 31.0541C26.8984 31.3423 26.0514 31.5383 24.8089 31.5966C23.5653 31.6514 23.1698 31.6666 19.9999 31.6666C16.8301 31.6666 16.4346 31.6549 15.1909 31.5966C13.9484 31.5383 13.1026 31.3423 12.3583 31.0541C11.5793 30.7618 10.8737 30.3027 10.2909 29.7089C9.69756 29.1258 9.23851 28.4203 8.94575 27.6416C8.65642 26.8984 8.46159 26.0514 8.40325 24.8089C8.34842 23.5653 8.33325 23.1698 8.33325 19.9999C8.33325 16.8301 8.34492 16.4346 8.40325 15.1909C8.46159 13.9473 8.65642 13.1026 8.94575 12.3583C9.23769 11.5791 9.69686 10.8735 10.2909 10.2909C10.8739 9.69736 11.5794 9.23827 12.3583 8.94575C13.1026 8.65642 13.9473 8.46159 15.1909 8.40325C16.4346 8.34842 16.8301 8.33325 19.9999 8.33325ZM19.9999 14.1666C18.4528 14.1666 16.9691 14.7812 15.8751 15.8751C14.7812 16.9691 14.1666 18.4528 14.1666 19.9999C14.1666 21.547 14.7812 23.0307 15.8751 24.1247C16.9691 25.2187 18.4528 25.8333 19.9999 25.8333C21.547 25.8333 23.0307 25.2187 24.1247 24.1247C25.2187 23.0307 25.8333 21.547 25.8333 19.9999C25.8333 18.4528 25.2187 16.9691 24.1247 15.8751C23.0307 14.7812 21.547 14.1666 19.9999 14.1666ZM27.5833 13.8749C27.5833 13.4881 27.4296 13.1172 27.1561 12.8437C26.8826 12.5702 26.5117 12.4166 26.1249 12.4166C25.7381 12.4166 25.3672 12.5702 25.0937 12.8437C24.8202 13.1172 24.6666 13.4881 24.6666 13.8749C24.6666 14.2617 24.8202 14.6326 25.0937 14.9061C25.3672 15.1796 25.7381 15.3333 26.1249 15.3333C26.5117 15.3333 26.8826 15.1796 27.1561 14.9061C27.4296 14.6326 27.5833 14.2617 27.5833 13.8749ZM19.9999 16.4999C20.9282 16.4999 21.8184 16.8687 22.4748 17.525C23.1312 18.1814 23.4999 19.0717 23.4999 19.9999C23.4999 20.9282 23.1312 21.8184 22.4748 22.4748C21.8184 23.1312 20.9282 23.4999 19.9999 23.4999C19.0717 23.4999 18.1814 23.1312 17.525 22.4748C16.8687 21.8184 16.4999 20.9282 16.4999 19.9999C16.4999 19.0717 16.8687 18.1814 17.525 17.525C18.1814 16.8687 19.0717 16.4999 19.9999 16.4999Z" fill="white"/>
</svg>
