<svg width="41" height="40" viewBox="0 0 41 40" fill="none" xmlns="http://www.w3.org/2000/svg">
<ellipse cx="20.6975" cy="20" rx="19.9861" ry="20" fill="#005CE6"/>
<path d="M20.3646 8C23.5323 8 23.9275 8.01167 25.1703 8.07C26.4119 8.12833 27.2572 8.32317 28.001 8.6125C28.7705 8.90883 29.4187 9.31017 30.0669 9.95767C30.6597 10.5409 31.1184 11.2464 31.4111 12.025C31.6991 12.7682 31.895 13.6152 31.9532 14.8577C32.008 16.1013 32.0232 16.4968 32.0232 19.6667C32.0232 22.8365 32.0115 23.232 31.9532 24.4757C31.895 25.7182 31.6991 26.564 31.4111 27.3083C31.1193 28.0874 30.6604 28.7931 30.0669 29.3757C29.4839 29.9687 28.779 30.4277 28.001 30.7208C27.2583 31.009 26.4119 31.205 25.1703 31.2633C23.9275 31.3182 23.5323 31.3333 20.3646 31.3333C17.197 31.3333 16.8018 31.3217 15.559 31.2633C14.3173 31.205 13.4721 31.009 12.7283 30.7208C11.9498 30.4286 11.2447 29.9694 10.6624 29.3757C10.0694 28.7926 9.61068 28.087 9.31813 27.3083C9.029 26.5652 8.8343 25.7182 8.77601 24.4757C8.72121 23.232 8.70605 22.8365 8.70605 19.6667C8.70605 16.4968 8.71771 16.1013 8.77601 14.8577C8.8343 13.614 9.029 12.7693 9.31813 12.025C9.60987 11.2459 10.0687 10.5402 10.6624 9.95767C11.2449 9.3641 11.95 8.90502 12.7283 8.6125C13.4721 8.32317 14.3162 8.12833 15.559 8.07C16.8018 8.01517 17.197 8 20.3646 8ZM20.3646 13.8333C18.8186 13.8333 17.3359 14.4479 16.2427 15.5419C15.1495 16.6358 14.5353 18.1196 14.5353 19.6667C14.5353 21.2138 15.1495 22.6975 16.2427 23.7915C17.3359 24.8854 18.8186 25.5 20.3646 25.5C21.9106 25.5 23.3933 24.8854 24.4866 23.7915C25.5798 22.6975 26.1939 21.2138 26.1939 19.6667C26.1939 18.1196 25.5798 16.6358 24.4866 15.5419C23.3933 14.4479 21.9106 13.8333 20.3646 13.8333ZM27.9427 13.5417C27.9427 13.1549 27.7892 12.784 27.5159 12.5105C27.2426 12.237 26.8719 12.0833 26.4854 12.0833C26.0989 12.0833 25.7282 12.237 25.4549 12.5105C25.1816 12.784 25.0281 13.1549 25.0281 13.5417C25.0281 13.9284 25.1816 14.2994 25.4549 14.5729C25.7282 14.8464 26.0989 15 26.4854 15C26.8719 15 27.2426 14.8464 27.5159 14.5729C27.7892 14.2994 27.9427 13.9284 27.9427 13.5417ZM20.3646 16.1667C21.2922 16.1667 22.1819 16.5354 22.8378 17.1918C23.4937 17.8482 23.8622 18.7384 23.8622 19.6667C23.8622 20.5949 23.4937 21.4852 22.8378 22.1415C22.1819 22.7979 21.2922 23.1667 20.3646 23.1667C19.437 23.1667 18.5474 22.7979 17.8915 22.1415C17.2355 21.4852 16.8671 20.5949 16.8671 19.6667C16.8671 18.7384 17.2355 17.8482 17.8915 17.1918C18.5474 16.5354 19.437 16.1667 20.3646 16.1667Z" fill="white"/>
</svg>
