<svg width="40" height="40" viewBox="0 0 40 40" fill="none" xmlns="http://www.w3.org/2000/svg">
<circle opacity="0.15" cx="20" cy="20" r="20" fill="white"/>
<path d="M15.0805 13.1944C15.0803 13.7101 14.8752 14.2046 14.5103 14.5691C14.1455 14.9336 13.6508 15.1382 13.1351 15.1379C12.6194 15.1377 12.1249 14.9325 11.7605 14.5677C11.396 14.2029 11.1914 13.7082 11.1917 13.1925C11.1919 12.6768 11.397 12.1823 11.7619 11.8179C12.1267 11.4534 12.6214 11.2488 13.1371 11.249C13.6528 11.2493 14.1472 11.4544 14.5117 11.8192C14.8762 12.1841 15.0808 12.6787 15.0805 13.1944ZM15.1389 16.5778H11.25V28.75H15.1389V16.5778ZM21.2833 16.5778H17.4139V28.75H21.2444V22.3625C21.2444 18.8042 25.8819 18.4736 25.8819 22.3625V28.75H29.7222V21.0403C29.7222 15.0417 22.8583 15.2653 21.2444 18.2111L21.2833 16.5778Z" fill="white"/>
</svg>
