<svg width="201" height="128" viewBox="0 0 201 128" fill="none" xmlns="http://www.w3.org/2000/svg">
<rect x="4.92773" y="4" width="191.861" height="120" rx="6" fill="#F9FBFF" stroke="white" stroke-width="8"/>
<path d="M104.893 83.2685C100.399 83.2685 96.7441 78.3364 96.7441 72.2722C96.7441 66.208 100.399 61.2759 104.893 61.2759C109.385 61.2759 113.041 66.2097 113.041 72.2722C113.041 78.3348 109.385 83.2685 104.893 83.2685ZM104.893 64.5861C101.752 64.5861 99.197 68.0336 99.197 72.2722C99.197 76.5109 101.752 79.9584 104.893 79.9584C108.034 79.9584 110.588 76.5109 110.588 72.2722C110.588 68.0336 108.032 64.5861 104.893 64.5861Z" fill="#0F2F66"/>
<path d="M139.249 92.335H70.5338C69.8568 92.335 69.3073 91.5952 69.3073 90.6799C69.3073 86.4413 66.7526 82.9938 63.6117 82.9938C62.9347 82.9938 62.3853 82.254 62.3853 81.3387V63.2041C62.3853 62.2905 62.9347 61.549 63.6117 61.549C66.7526 61.549 69.3073 58.1015 69.3073 53.8645C69.3073 52.9509 69.8568 52.2095 70.5338 52.2095H139.249C139.928 52.2095 140.476 52.9509 140.476 53.8645C140.476 58.1015 143.031 61.549 146.171 61.549C146.85 61.549 147.398 62.2905 147.398 63.2041V81.3404C147.398 82.2556 146.85 82.9954 146.171 82.9954C143.031 82.9954 140.476 86.443 140.476 90.6816C140.476 91.5952 139.928 92.335 139.249 92.335ZM71.6683 89.0249H138.115C138.648 84.2847 141.431 80.5277 144.944 79.8094V64.7351C141.431 64.0167 138.647 60.2597 138.115 55.5196H71.6683C71.136 60.2597 68.3519 64.0167 64.8394 64.7351V79.8094C68.3519 80.5294 71.136 84.2847 71.6683 89.0249Z" fill="#0F2F66"/>
<path d="M155.051 42.3403H149.311L148.273 26.5095C148.245 26.0726 148.089 25.6688 147.839 25.3857C147.59 25.1044 147.264 24.967 146.945 25.0067L47.015 36.9365C46.3405 37.0176 45.8413 37.8203 45.9014 38.7306L49.5942 95.0642C49.6506 95.9265 50.1854 96.5736 50.8145 96.5736C50.8501 96.5736 50.8869 96.572 50.9237 96.567L53.5054 96.2592V100.549C53.5054 101.464 54.0548 102.204 54.7318 102.204H155.051C155.729 102.204 156.277 101.464 156.277 100.549V43.9954C156.277 43.0818 155.729 42.3403 155.051 42.3403ZM51.9294 93.1245L48.4524 40.0877L145.937 28.4493L146.848 42.3403H54.7331C54.0561 42.3403 53.5066 43.0818 53.5066 43.9954V92.9358L51.9294 93.1245ZM153.824 98.8941H55.9595V45.6504H153.824V98.8941Z" fill="#0F2F66"/>
</svg>
