<svg width="201" height="128" viewBox="0 0 201 128" fill="none" xmlns="http://www.w3.org/2000/svg">
<rect x="4.26318" y="4" width="191.861" height="120" rx="6" fill="#F9FBFF" stroke="white" stroke-width="8"/>
<path d="M77.7951 53.3512C78.2701 52.0069 78.9383 51.347 79.7917 51.1107C79.4858 45.2448 80.4358 36.0223 74.5102 34.2055C86.2648 19.5408 99.8066 11.524 109.975 24.592C121.657 25.2111 126.665 43.1592 118.662 52.0151C119.289 51.9807 119.913 52.1127 120.474 52.398C120.806 52.5774 121.101 52.8216 121.34 53.1167C121.579 53.4117 121.758 53.7517 121.867 54.117C122.12 55.1 122.084 56.1366 121.762 57.0989L120.272 61.4412C120.121 62.0728 119.781 62.6418 119.298 63.0707C118.701 63.5092 117.959 63.6934 117.229 63.5839C117.086 63.5757 116.944 63.5594 116.802 63.5351C116.706 68.4233 114.339 70.6719 111.247 73.613L110.064 74.7536C106.932 77.8088 103.51 79.2915 100.032 79.2915C96.554 79.2915 92.8988 77.7354 89.6301 74.7699L88.4627 73.7515C85.4355 71.1118 82.9075 68.904 82.4244 63.5269H82.1507C81.5271 63.5208 80.915 63.3555 80.3714 63.0462C79.471 62.4719 78.7832 61.6127 78.415 60.6021C77.9473 59.4508 77.6751 58.2278 77.6099 56.9848C77.6099 56.61 77.6099 55.8605 77.6099 55.1435C77.6099 54.4266 77.6582 53.9296 77.7065 53.5875C77.7183 53.4896 77.7427 53.3938 77.779 53.3023L77.7951 53.3512ZM86.297 79.1775L93.7039 98.8853L97.4396 88.1393L95.612 86.1188C94.7908 84.9022 94.6083 83.8376 95.0646 82.9251C96.0548 80.9454 98.0998 81.2957 100.016 81.2957C101.932 81.2957 104.5 80.9128 105.128 83.4465C105.21 83.9102 105.194 84.386 105.084 84.8434C104.973 85.3007 104.769 85.7296 104.484 86.1025L102.657 88.1393L106.384 98.8853L113.091 79.1775C117.922 83.585 134.974 84.4731 140.303 87.4793C142.03 88.4313 143.542 89.7384 144.74 91.3166C147.791 95.3902 148.049 101.166 149.16 106.161C148.886 109.077 147.251 110.756 144.039 111H55.3487C52.1283 110.756 50.5181 109.069 50.2283 106.161C51.3393 101.093 51.605 95.3902 54.6483 91.3166C55.8399 89.7323 57.3524 88.424 59.0844 87.4793C65.638 83.7887 80.935 84.0657 86.297 79.1775ZM108.405 35.5905C102.463 41.6927 95.0243 39.8107 89.7831 42.2141C89.4771 42.4015 89.1631 42.6133 88.8411 42.8333C87.2937 43.8445 86.1126 45.337 85.4758 47.0861C84.8994 48.975 84.8521 50.9886 85.3389 52.9031C85.407 53.1316 85.407 53.3753 85.3389 53.6037C85.2867 53.7499 85.2066 53.8842 85.1031 53.999C84.9995 54.1138 84.8746 54.2068 84.7355 54.2726C84.5964 54.3384 84.4458 54.3759 84.2924 54.3827C84.139 54.3896 83.9857 54.3657 83.8414 54.3125L83.5033 54.1822V54.3614L82.9075 53.9622H82.7948C81.41 53.4734 80.4358 53.2453 80.0655 54.1252C80.0655 54.4103 80.0091 54.8421 80.0011 55.2983C80.0011 55.942 80.0011 56.6182 80.0011 56.9278C80.0446 57.8924 80.2487 58.8427 80.6049 59.7385C80.7879 60.2582 81.1254 60.7079 81.571 61.0257C81.7743 61.1357 82.0007 61.1944 82.2312 61.1968C82.5541 61.1904 82.8743 61.1355 83.1812 61.0339C83.293 60.9958 83.4096 60.9739 83.5274 60.9687C83.8351 60.9643 84.1322 61.0821 84.355 61.2969C84.5778 61.5116 84.7085 61.8063 84.719 62.1175C84.8478 67.4619 87.1906 69.4987 90.0407 71.9836L91.2242 73.0264C94.0823 75.6009 97.0934 76.9289 100.08 76.9289C103.067 76.9289 105.781 75.6498 108.413 73.0346C108.84 72.6109 109.218 72.2198 109.621 71.8777C112.608 69.0343 114.806 66.9405 114.387 61.8486C114.366 61.6271 114.408 61.4042 114.507 61.2058C114.607 61.0074 114.76 60.8418 114.949 60.7282C115.138 60.6146 115.355 60.5577 115.575 60.5643C115.795 60.5708 116.008 60.6404 116.191 60.765C116.373 60.887 116.568 60.9907 116.77 61.0746C116.933 61.1379 117.104 61.1763 117.277 61.1887C117.47 61.2112 117.666 61.2057 117.857 61.1724C117.954 61.0006 118.03 60.8172 118.083 60.6265L119.564 56.3738C119.736 55.8678 119.766 55.3238 119.652 54.8014C119.634 54.7266 119.602 54.6562 119.556 54.5946C119.51 54.533 119.453 54.4814 119.387 54.4429C119.155 54.3461 118.903 54.3123 118.654 54.3451C117.891 54.4381 117.168 54.7458 116.569 55.2332C116.441 55.3298 116.295 55.3991 116.14 55.437C115.985 55.4748 115.824 55.4803 115.667 55.4531C115.363 55.3994 115.093 55.2261 114.915 54.9712C114.737 54.7162 114.666 54.4004 114.717 54.0926C115.812 47.5749 115.313 43.3792 113.912 40.5032C112.796 38.2461 110.981 36.4206 108.743 35.3054L108.413 35.5579L108.405 35.5905ZM96.1193 48.2348C97.2867 48.6748 97.5362 49.6687 96.8841 50.0435C96.232 50.4182 95.137 49.8316 94.3883 49.5872C92.4238 48.9518 90.089 48.8784 88.3983 49.9457C87.9062 50.2707 87.4453 50.6417 87.0216 51.0537C87.1736 50.437 87.4475 49.8577 87.8267 49.351C89.5254 47.1757 93.8086 47.0535 96.0871 48.2348H96.1193ZM103.518 48.2348C102.351 48.6748 102.101 49.6687 102.713 50.0435C103.325 50.4182 104.46 49.8316 105.209 49.5872C107.173 48.9518 109.5 48.8784 111.199 49.9457C111.691 50.2707 112.152 50.6417 112.576 51.0537C112.424 50.437 112.15 49.8577 111.77 49.351C110.072 47.1757 105.789 47.0535 103.51 48.2348H103.518ZM90.0005 52.4876C89.9377 52.51 89.8709 52.5188 89.8045 52.5133C89.7382 52.5079 89.6736 52.4885 89.6152 52.4562C89.5567 52.4239 89.5056 52.3796 89.4652 52.3261C89.4248 52.2725 89.3959 52.211 89.3805 52.1454C89.3361 52.0099 89.3427 51.8625 89.3992 51.7317C89.4557 51.6008 89.558 51.4957 89.6865 51.4366C91.566 50.6957 93.652 50.6957 95.5315 51.4366C95.6602 51.4911 95.764 51.5925 95.8221 51.7208C95.8803 51.8491 95.8887 51.9949 95.8455 52.1291C95.8339 52.1946 95.8084 52.2567 95.771 52.3114C95.7335 52.366 95.6849 52.4119 95.6284 52.4459C95.5719 52.4799 95.5089 52.5012 95.4436 52.5084C95.3782 52.5156 95.3121 52.5085 95.2497 52.4876C94.9277 52.3735 94.6057 52.2758 94.2836 52.1943C94.3155 52.3139 94.3317 52.4371 94.3319 52.5609C94.3463 52.7501 94.322 52.9402 94.2603 53.1194C94.1987 53.2986 94.1011 53.463 93.9737 53.6022C93.8463 53.7414 93.6919 53.8525 93.5201 53.9284C93.3483 54.0044 93.1628 54.0436 92.9753 54.0436C92.7878 54.0436 92.6024 54.0044 92.4305 53.9284C92.2587 53.8525 92.1043 53.7414 91.9769 53.6022C91.8495 53.463 91.752 53.2986 91.6903 53.1194C91.6287 52.9402 91.6043 52.7501 91.6187 52.5609C91.6191 52.3818 91.6547 52.2046 91.7234 52.0395C91.1327 52.1147 90.5538 52.2652 90.0005 52.4876ZM105.708 52.0802C105.653 52.2346 105.623 52.3969 105.619 52.5609C105.605 52.7501 105.629 52.9402 105.691 53.1194C105.753 53.2986 105.85 53.463 105.978 53.6022C106.105 53.7414 106.26 53.8525 106.431 53.9284C106.603 54.0044 106.789 54.0436 106.976 54.0436C107.164 54.0436 107.349 54.0044 107.521 53.9284C107.693 53.8525 107.847 53.7414 107.974 53.6022C108.102 53.463 108.199 53.2986 108.261 53.1194C108.323 52.9402 108.347 52.7501 108.333 52.5609C108.334 52.3509 108.285 52.1438 108.188 51.958C108.796 52.0247 109.396 52.1585 109.975 52.3572C110.039 52.3753 110.106 52.3795 110.172 52.3697C110.238 52.3598 110.301 52.336 110.357 52.2999C110.413 52.2638 110.461 52.2162 110.498 52.1601C110.535 52.104 110.56 52.0407 110.571 51.9743C110.609 51.838 110.597 51.6922 110.536 51.5646C110.475 51.4369 110.37 51.3363 110.241 51.2818C109.297 50.9684 108.311 50.8062 107.318 50.8012C106.335 50.8025 105.358 50.9676 104.428 51.29C104.299 51.3444 104.194 51.445 104.133 51.5727C104.072 51.7004 104.059 51.8462 104.098 51.9825C104.111 52.0476 104.137 52.1092 104.175 52.1638C104.212 52.2183 104.26 52.2645 104.316 52.2996C104.372 52.3346 104.434 52.3578 104.499 52.3678C104.564 52.3777 104.63 52.3741 104.694 52.3572C105.026 52.2432 105.364 52.1507 105.708 52.0802ZM97.979 63.9668C97.8282 63.8371 97.7336 63.6527 97.7155 63.4532C97.6974 63.2536 97.7574 63.0549 97.8824 62.8996C97.9453 62.8231 98.0225 62.7598 98.1096 62.7135C98.1966 62.6672 98.2918 62.6387 98.3898 62.6296C98.4877 62.6205 98.5865 62.6311 98.6804 62.6606C98.7743 62.6902 98.8615 62.7381 98.9371 62.8018C99.226 63.086 99.6058 63.2565 100.008 63.2825C100.427 63.2615 100.824 63.0879 101.127 62.7937C101.201 62.7305 101.287 62.6828 101.38 62.6535C101.472 62.6241 101.57 62.6137 101.667 62.6228C101.763 62.6319 101.857 62.6603 101.943 62.7064C102.028 62.7526 102.104 62.8154 102.166 62.8914C102.228 62.9673 102.276 63.0549 102.305 63.1492C102.334 63.2436 102.344 63.3429 102.335 63.4413C102.326 63.5398 102.298 63.6355 102.252 63.7228C102.207 63.8102 102.144 63.8876 102.069 63.9506C101.492 64.4653 100.753 64.7543 99.9838 64.7653C99.2397 64.7502 98.5267 64.4604 97.979 63.9506V63.9668ZM95.6523 69.4661C95.4745 69.3631 95.3422 69.1953 95.2824 68.9971C95.2225 68.7988 95.2396 68.5848 95.3303 68.3989C95.4321 68.2189 95.5978 68.0851 95.7938 68.0245C95.9898 67.964 96.2012 67.9813 96.3849 68.073C97.4726 68.6927 98.6955 69.0287 99.9435 69.0506C101.176 69.0349 102.384 68.7012 103.454 68.0811C103.543 67.9974 103.651 67.9354 103.768 67.8997C103.884 67.8641 104.008 67.8559 104.128 67.8756C104.249 67.8953 104.363 67.9424 104.463 68.0134C104.563 68.0845 104.645 68.1775 104.704 68.2856C104.763 68.3937 104.797 68.5139 104.804 68.6372C104.81 68.7605 104.789 68.8837 104.741 68.9974C104.694 69.1111 104.621 69.2124 104.529 69.2936C104.437 69.3748 104.328 69.4338 104.211 69.4661C102.916 70.2241 101.447 70.6258 99.9516 70.6312C98.4462 70.6023 96.9704 70.2024 95.6523 69.4661Z" fill="#0F2F66"/>
</svg>
