<svg width="80" height="80" viewBox="0 0 80 80" fill="none" xmlns="http://www.w3.org/2000/svg">
<circle opacity="0.35" cx="40" cy="40" r="40" fill="#E5F1FF"/>
<g clip-path="url(#clip0)">
<path d="M58.9859 60.7526H21.014C18.9902 60.7526 17.3496 59.112 17.3496 57.0882V25.4696C17.3496 23.4458 18.9902 21.8052 21.014 21.8052H58.9859C61.0097 21.8052 62.6503 23.4458 62.6503 25.4696V57.0882C62.6503 59.112 61.0097 60.7526 58.9859 60.7526Z" fill="url(#paint0_linear)"/>
<path d="M58.1392 59.884H21.8609C19.9274 59.884 18.3599 58.3165 18.3599 56.383V26.1747C18.3599 24.2411 19.9273 22.6736 21.8609 22.6736H58.1391C60.0727 22.6736 61.6402 24.241 61.6402 26.1747V56.383C61.6403 58.3166 60.0728 59.884 58.1392 59.884Z" fill="url(#paint1_linear)"/>
<path d="M60.1952 32.0327L51.0616 16.2131C50.4533 15.1593 49.1057 14.7982 48.0519 15.4067L19.2549 32.0327H60.1952Z" fill="url(#paint2_linear)"/>
<path d="M17.3496 44.7647H62.6503V32.7663C62.6503 31.2519 61.4227 30.0243 59.9082 30.0243H20.0917C18.5772 30.0243 17.3496 31.2519 17.3496 32.7663V44.7647Z" fill="url(#paint3_linear)"/>
<path d="M17.3496 40.2522V57.0882C17.3496 59.112 18.9902 60.7527 21.0141 60.7527H58.9859C61.0097 60.7527 62.6503 59.1121 62.6503 57.0883V40.2522C62.6503 39.0022 61.637 37.9889 60.387 37.9889H19.6129C18.363 37.9889 17.3496 39.0021 17.3496 40.2522Z" fill="url(#paint4_linear)"/>
<path d="M55.8159 31.5686V60.7529H58.9858C61.0096 60.7529 62.6502 59.1122 62.6502 57.0885V38.4029L55.8159 31.5686Z" fill="url(#paint5_linear)"/>
<path d="M52.7261 64.8613L20.9259 61.168C18.8874 60.9312 17.3496 59.2046 17.3496 57.1524V25.1964C17.3496 25.8832 17.8642 26.4609 18.5462 26.5401L53.6587 30.6182C55.6973 30.855 57.235 32.5816 57.235 34.6339V60.8457C57.235 63.2632 55.1273 65.1403 52.7261 64.8613Z" fill="url(#paint6_linear)"/>
<path d="M52.726 58.4784L20.9259 54.7851C18.8874 54.5482 17.3496 52.8217 17.3496 50.7694V57.1524C17.3496 59.2047 18.8874 60.9314 20.9259 61.1681L52.726 64.8614C55.1273 65.1403 57.2351 63.2632 57.2351 60.8457V54.4627C57.235 56.8802 55.1273 58.7572 52.726 58.4784Z" fill="url(#paint7_linear)"/>
<path d="M20.2006 30.1772C20.174 30.1772 20.147 30.1757 20.1198 30.1727L18.6646 30.0127C18.2627 29.9685 17.9727 29.607 18.0169 29.2052C18.0611 28.8034 18.4229 28.5136 18.8244 28.5575L20.2797 28.7175C20.6816 28.7618 20.9716 29.1232 20.9274 29.525C20.8861 29.8998 20.569 30.1772 20.2006 30.1772Z" fill="url(#paint8_linear)"/>
<path d="M50.1029 62.4497C50.0722 62.4497 50.0409 62.4477 50.0096 62.4438L47.1813 62.0841C46.7803 62.0332 46.4965 61.6667 46.5475 61.2655C46.5985 60.8646 46.965 60.5824 47.3661 60.6317L50.1944 60.9914C50.5953 61.0423 50.8793 61.4088 50.8282 61.81C50.781 62.1796 50.466 62.4497 50.1029 62.4497ZM52.8868 62.0874C52.6122 62.0874 52.3488 61.9321 52.2241 61.6671C52.0517 61.3014 52.2085 60.8652 52.5743 60.693C53.317 60.343 53.8755 59.7626 54.1068 59.1003C54.2401 58.7188 54.6578 58.5176 55.0393 58.6506C55.4209 58.7838 55.6223 59.2013 55.489 59.583C55.1238 60.6289 54.3103 61.4935 53.1983 62.0174C53.0974 62.0648 52.9914 62.0874 52.8868 62.0874ZM44.4464 61.7305C44.4157 61.7305 44.3844 61.7284 44.3531 61.7245L41.5248 61.3649C41.1239 61.314 40.8399 60.9474 40.891 60.5463C40.9421 60.1453 41.3085 59.863 41.7096 59.9125L44.5379 60.2721C44.9389 60.3231 45.2228 60.6896 45.1717 61.0907C45.1246 61.4603 44.8094 61.7305 44.4464 61.7305ZM38.7899 61.0111C38.7592 61.0111 38.728 61.0091 38.6966 61.0052L35.8683 60.6456C35.4674 60.5946 35.1834 60.2281 35.2345 59.8269C35.2856 59.426 35.6521 59.1423 36.0531 59.1931L38.8814 59.5528C39.2824 59.6037 39.5664 59.9702 39.5152 60.3714C39.4681 60.7409 39.1529 61.0111 38.7899 61.0111ZM33.1333 60.2918C33.1025 60.2918 33.0713 60.2897 33.0399 60.2858L30.2115 59.9261C29.8105 59.8751 29.5266 59.5086 29.5778 59.1075C29.6288 58.7065 29.9954 58.4241 30.3964 58.4737L33.2248 58.8334C33.6258 58.8845 33.9097 59.2509 33.8585 59.652C33.8116 60.0218 33.4964 60.2918 33.1333 60.2918ZM27.4768 59.5724C27.4461 59.5724 27.4149 59.5704 27.3834 59.5665L24.5551 59.2068C24.154 59.1557 23.8701 58.7893 23.9213 58.3882C23.9723 57.9871 24.3389 57.7047 24.7399 57.7544L27.5683 58.1141C27.9693 58.1651 28.2532 58.5316 28.2021 58.9327C28.155 59.3024 27.8399 59.5724 27.4768 59.5724ZM54.9622 57.2415C54.5578 57.2415 54.2302 56.9139 54.2302 56.5095V53.6585C54.2302 53.2541 54.5578 52.9265 54.9622 52.9265C55.3665 52.9265 55.6942 53.2541 55.6942 53.6585V56.5095C55.6943 56.9139 55.3666 57.2415 54.9622 57.2415ZM54.9622 51.5395C54.5578 51.5395 54.2302 51.2119 54.2302 50.8075V47.9565C54.2302 47.5522 54.5578 47.2245 54.9622 47.2245C55.3665 47.2245 55.6942 47.5522 55.6942 47.9565V50.8075C55.6943 51.2118 55.3666 51.5395 54.9622 51.5395ZM54.9622 45.8374C54.5578 45.8374 54.2302 45.5098 54.2302 45.1055V42.2544C54.2302 41.8501 54.5578 41.5224 54.9622 41.5224C55.3665 41.5224 55.6942 41.8501 55.6942 42.2544V45.1055C55.6943 45.5097 55.3666 45.8374 54.9622 45.8374ZM54.9622 40.1354C54.5578 40.1354 54.2302 39.8077 54.2302 39.4034V36.5523C54.2302 36.148 54.5578 35.8203 54.9622 35.8203C55.3665 35.8203 55.6942 36.148 55.6942 36.5523V39.4034C55.6943 39.8076 55.3666 40.1354 54.9622 40.1354ZM53.9384 34.7254C53.7577 34.7254 53.5766 34.6588 53.4351 34.5248C52.8925 34.0107 52.1395 33.6831 51.3146 33.6023L51.2952 33.6003C50.8932 33.557 50.6024 33.196 50.6458 32.7941C50.6891 32.3921 51.0499 32.1012 51.452 32.1447L51.4644 32.146C52.6045 32.2577 53.6644 32.7254 54.4421 33.462C54.7356 33.7401 54.7481 34.2034 54.47 34.497C54.326 34.6487 54.1324 34.7254 53.9384 34.7254ZM48.5404 33.293C48.5137 33.293 48.4867 33.2914 48.4596 33.2885L45.6256 32.9769C45.2238 32.9327 44.9337 32.5712 44.9779 32.1694C45.0222 31.7675 45.3839 31.4783 45.7855 31.5217L48.6194 31.8333C49.0212 31.8775 49.3113 32.239 49.2671 32.6408C49.226 33.0155 48.9087 33.293 48.5404 33.293ZM42.8726 32.6698C42.846 32.6698 42.8189 32.6682 42.7918 32.6653L39.9578 32.3537C39.556 32.3095 39.2658 31.948 39.3101 31.5462C39.3542 31.1442 39.7166 30.8547 40.1176 30.8985L42.9516 31.2101C43.3535 31.2543 43.6436 31.6158 43.5993 32.0176C43.5581 32.3924 43.241 32.6698 42.8726 32.6698ZM37.2045 32.0467C37.1779 32.0467 37.1509 32.0451 37.1237 32.0422L34.2898 31.7306C33.888 31.6864 33.5979 31.3249 33.6421 30.9231C33.6863 30.5212 34.0478 30.2317 34.4497 30.2754L37.2836 30.587C37.6854 30.6312 37.9755 30.9927 37.9313 31.3945C37.8902 31.7692 37.573 32.0467 37.2045 32.0467ZM31.5366 31.4236C31.5099 31.4236 31.4829 31.422 31.4558 31.4191L28.6219 31.1075C28.2199 31.0633 27.9299 30.7018 27.9742 30.3C28.0183 29.8982 28.3795 29.6088 28.7817 29.6523L31.6156 29.9639C32.0174 30.0081 32.3076 30.3696 32.2633 30.7714C32.2223 31.1461 31.9051 31.4236 31.5366 31.4236ZM25.8686 30.8004C25.842 30.8004 25.815 30.7988 25.7878 30.7959L22.9539 30.4843C22.5521 30.4401 22.262 30.0786 22.3062 29.6768C22.3505 29.2751 22.7117 28.9857 23.1137 29.0291L25.9477 29.3407C26.3496 29.3849 26.6396 29.7464 26.5954 30.1482C26.5542 30.5229 26.237 30.8004 25.8686 30.8004Z" fill="url(#paint9_linear)"/>
<path d="M21.8134 58.852C21.7827 58.852 21.7516 58.85 21.7202 58.846L20.2678 58.6614C19.8667 58.6105 19.5827 58.244 19.6339 57.8429C19.6848 57.4419 20.0514 57.1582 20.4524 57.209L21.9048 57.3936C22.3058 57.4446 22.5898 57.8111 22.5387 58.2122C22.4916 58.5819 22.1764 58.852 21.8134 58.852Z" fill="url(#paint10_linear)"/>
<path d="M48.708 20.5622L44.023 23.1115C43.4128 23.4435 42.6489 23.2181 42.3168 22.6078C41.9848 21.9976 42.2102 21.2337 42.8205 20.9016L47.5055 18.3523C48.1158 18.0203 48.8797 18.2458 49.2118 18.856C49.5438 19.4662 49.3183 20.2302 48.708 20.5622Z" fill="#61DB99"/>
<path d="M57.2349 50.4826L52.5857 45.8333C51.9297 45.119 50.9884 44.671 49.9422 44.671C47.9602 44.671 46.3535 46.2778 46.3535 48.2597C46.3535 49.3059 46.8015 50.2473 47.5158 50.9032L57.235 60.6224V50.4826H57.2349Z" fill="url(#paint11_linear)"/>
<path d="M49.9419 51.8479C51.9239 51.8479 53.5306 50.2412 53.5306 48.2592C53.5306 46.2772 51.9239 44.6705 49.9419 44.6705C47.96 44.6705 46.3533 46.2772 46.3533 48.2592C46.3533 50.2412 47.96 51.8479 49.9419 51.8479Z" fill="url(#paint12_linear)"/>
<path d="M49.942 50.7357C51.3098 50.7357 52.4186 49.6269 52.4186 48.2591C52.4186 46.8913 51.3098 45.7825 49.942 45.7825C48.5742 45.7825 47.4653 46.8913 47.4653 48.2591C47.4653 49.6269 48.5742 50.7357 49.942 50.7357Z" fill="url(#paint13_linear)"/>
<path d="M49.001 47.8308C49.284 47.8308 49.5134 47.6014 49.5134 47.3184C49.5134 47.0353 49.284 46.8059 49.001 46.8059C48.718 46.8059 48.4885 47.0353 48.4885 47.3184C48.4885 47.6014 48.718 47.8308 49.001 47.8308Z" fill="url(#paint14_linear)"/>
<path d="M50.8828 47.8308C51.1658 47.8308 51.3953 47.6014 51.3953 47.3184C51.3953 47.0353 51.1658 46.8059 50.8828 46.8059C50.5998 46.8059 50.3704 47.0353 50.3704 47.3184C50.3704 47.6014 50.5998 47.8308 50.8828 47.8308Z" fill="url(#paint15_linear)"/>
<path d="M49.001 49.7135C49.284 49.7135 49.5134 49.4841 49.5134 49.2011C49.5134 48.918 49.284 48.6886 49.001 48.6886C48.718 48.6886 48.4885 48.918 48.4885 49.2011C48.4885 49.4841 48.718 49.7135 49.001 49.7135Z" fill="url(#paint16_linear)"/>
<path d="M50.8828 49.7135C51.1658 49.7135 51.3953 49.4841 51.3953 49.2011C51.3953 48.918 51.1658 48.6886 50.8828 48.6886C50.5998 48.6886 50.3704 48.918 50.3704 49.2011C50.3704 49.4841 50.5998 49.7135 50.8828 49.7135Z" fill="url(#paint17_linear)"/>
</g>
<defs>
<linearGradient id="paint0_linear" x1="40.7402" y1="19.5602" x2="40.4757" y2="27.3153" gradientUnits="userSpaceOnUse">
<stop stop-color="#FFB92D"/>
<stop offset="1" stop-color="#F59500"/>
</linearGradient>
<linearGradient id="paint1_linear" x1="42.0085" y1="24.7094" x2="41.2882" y2="30.6504" gradientUnits="userSpaceOnUse">
<stop stop-color="#FFB92D"/>
<stop offset="1" stop-color="#F59500"/>
</linearGradient>
<linearGradient id="paint2_linear" x1="39.7245" y1="24.885" x2="39.7245" y2="29.4108" gradientUnits="userSpaceOnUse">
<stop stop-color="#A7F3CE"/>
<stop offset="1" stop-color="#61DB99"/>
</linearGradient>
<linearGradient id="paint3_linear" x1="39.9994" y1="32.7195" x2="39.9994" y2="45.4194" gradientUnits="userSpaceOnUse">
<stop stop-color="#FF4C54"/>
<stop offset="1" stop-color="#BE3F45"/>
</linearGradient>
<linearGradient id="paint4_linear" x1="39.9994" y1="42.1497" x2="39.9994" y2="61.7637" gradientUnits="userSpaceOnUse">
<stop stop-color="#FF4C54"/>
<stop offset="1" stop-color="#BE3F45"/>
</linearGradient>
<linearGradient id="paint5_linear" x1="60.0731" y1="46.1611" x2="56.7683" y2="46.1611" gradientUnits="userSpaceOnUse">
<stop stop-color="#BE3F45" stop-opacity="0"/>
<stop offset="1" stop-color="#BE3F45"/>
</linearGradient>
<linearGradient id="paint6_linear" x1="30.5169" y1="42.7683" x2="47.3287" y2="50.5234" gradientUnits="userSpaceOnUse">
<stop stop-color="#FFB92D"/>
<stop offset="1" stop-color="#F59500"/>
</linearGradient>
<linearGradient id="paint7_linear" x1="36.7563" y1="60.0353" x2="36.0614" y2="65.3467" gradientUnits="userSpaceOnUse">
<stop stop-color="#BE3F45" stop-opacity="0"/>
<stop offset="1" stop-color="#BE3F45"/>
</linearGradient>
<linearGradient id="paint8_linear" x1="19.472" y1="28.5538" x2="19.472" y2="62.52" gradientUnits="userSpaceOnUse">
<stop stop-color="#FFF465"/>
<stop offset="1" stop-color="#FFE600"/>
</linearGradient>
<linearGradient id="paint9_linear" x1="38.9975" y1="28.5549" x2="38.9975" y2="62.4499" gradientUnits="userSpaceOnUse">
<stop stop-color="#FFF465"/>
<stop offset="1" stop-color="#FFE600"/>
</linearGradient>
<linearGradient id="paint10_linear" x1="21.0861" y1="28.5528" x2="21.0861" y2="62.5181" gradientUnits="userSpaceOnUse">
<stop stop-color="#FFF465"/>
<stop offset="1" stop-color="#FFE600"/>
</linearGradient>
<linearGradient id="paint11_linear" x1="54.7312" y1="53.0499" x2="44.6744" y2="42.9931" gradientUnits="userSpaceOnUse">
<stop stop-color="#BE3F45" stop-opacity="0"/>
<stop offset="1" stop-color="#BE3F45"/>
</linearGradient>
<linearGradient id="paint12_linear" x1="49.9412" y1="46.007" x2="49.9412" y2="51.1964" gradientUnits="userSpaceOnUse">
<stop stop-color="#FF4C54"/>
<stop offset="1" stop-color="#BE3F45"/>
</linearGradient>
<linearGradient id="paint13_linear" x1="49.9412" y1="49.8143" x2="49.9412" y2="46.2333" gradientUnits="userSpaceOnUse">
<stop stop-color="#FF4C54"/>
<stop offset="1" stop-color="#BE3F45"/>
</linearGradient>
<linearGradient id="paint14_linear" x1="44.1432" y1="25.8689" x2="45.168" y2="30.3946" gradientUnits="userSpaceOnUse">
<stop stop-color="#A7F3CE"/>
<stop offset="1" stop-color="#61DB99"/>
</linearGradient>
<linearGradient id="paint15_linear" x1="46.0249" y1="25.8691" x2="47.0497" y2="30.3948" gradientUnits="userSpaceOnUse">
<stop stop-color="#A7F3CE"/>
<stop offset="1" stop-color="#61DB99"/>
</linearGradient>
<linearGradient id="paint16_linear" x1="43.7376" y1="25.9606" x2="44.7625" y2="30.4864" gradientUnits="userSpaceOnUse">
<stop stop-color="#A7F3CE"/>
<stop offset="1" stop-color="#61DB99"/>
</linearGradient>
<linearGradient id="paint17_linear" x1="45.6194" y1="25.9608" x2="46.6442" y2="30.4866" gradientUnits="userSpaceOnUse">
<stop stop-color="#A7F3CE"/>
<stop offset="1" stop-color="#61DB99"/>
</linearGradient>
<clipPath id="clip0">
<rect width="49.7778" height="49.7778" fill="white" transform="translate(15.1111 15.1111)"/>
</clipPath>
</defs>
</svg>
