<svg width="250" height="272" viewBox="0 0 250 272" fill="none" xmlns="http://www.w3.org/2000/svg">
<g filter="url(#filter0_dddddd_1484_7378)">
<rect x="80" y="2" width="90" height="90" rx="10" fill="#9672FF"/>
</g>
<path d="M137.076 60.7069C137.466 61.0975 138.099 61.0977 138.49 60.7074C138.88 60.317 138.881 59.6838 138.49 59.2931L137.076 60.7069ZM138.49 59.2931L131.168 51.9656L129.753 53.3793L137.076 60.7069L138.49 59.2931ZM132.476 45.3448C132.476 50.5065 128.294 54.6897 123.138 54.6897V56.6897C129.4 56.6897 134.476 51.6097 134.476 45.3448H132.476ZM123.138 54.6897C117.982 54.6897 113.8 50.5065 113.8 45.3448H111.8C111.8 51.6097 116.876 56.6897 123.138 56.6897V54.6897ZM113.8 45.3448C113.8 40.1832 117.982 36 123.138 36V34C116.876 34 111.8 39.0799 111.8 45.3448H113.8ZM123.138 36C128.294 36 132.476 40.1832 132.476 45.3448H134.476C134.476 39.0799 129.4 34 123.138 34V36Z" fill="white"/>
<defs>
<filter id="filter0_dddddd_1484_7378" x="0" y="0.703704" width="250" height="271.296" filterUnits="userSpaceOnUse" color-interpolation-filters="sRGB">
<feFlood flood-opacity="0" result="BackgroundImageFix"/>
<feColorMatrix in="SourceAlpha" type="matrix" values="0 0 0 0 0 0 0 0 0 0 0 0 0 0 0 0 0 0 127 0" result="hardAlpha"/>
<feOffset dy="1.85185"/>
<feGaussianBlur stdDeviation="1.57407"/>
<feColorMatrix type="matrix" values="0 0 0 0 0.588235 0 0 0 0 0.447059 0 0 0 0 1 0 0 0 0.0168519 0"/>
<feBlend mode="normal" in2="BackgroundImageFix" result="effect1_dropShadow_1484_7378"/>
<feColorMatrix in="SourceAlpha" type="matrix" values="0 0 0 0 0 0 0 0 0 0 0 0 0 0 0 0 0 0 127 0" result="hardAlpha"/>
<feOffset dy="8.14815"/>
<feGaussianBlur stdDeviation="3.25926"/>
<feColorMatrix type="matrix" values="0 0 0 0 0.588235 0 0 0 0 0.447059 0 0 0 0 1 0 0 0 0.0274815 0"/>
<feBlend mode="normal" in2="effect1_dropShadow_1484_7378" result="effect2_dropShadow_1484_7378"/>
<feColorMatrix in="SourceAlpha" type="matrix" values="0 0 0 0 0 0 0 0 0 0 0 0 0 0 0 0 0 0 127 0" result="hardAlpha"/>
<feOffset dy="20"/>
<feGaussianBlur stdDeviation="6.5"/>
<feColorMatrix type="matrix" values="0 0 0 0 0.588235 0 0 0 0 0.447059 0 0 0 0 1 0 0 0 0.035 0"/>
<feBlend mode="normal" in2="effect2_dropShadow_1484_7378" result="effect3_dropShadow_1484_7378"/>
<feColorMatrix in="SourceAlpha" type="matrix" values="0 0 0 0 0 0 0 0 0 0 0 0 0 0 0 0 0 0 127 0" result="hardAlpha"/>
<feOffset dy="38.5185"/>
<feGaussianBlur stdDeviation="12.7407"/>
<feColorMatrix type="matrix" values="0 0 0 0 0.588235 0 0 0 0 0.447059 0 0 0 0 1 0 0 0 0.0425185 0"/>
<feBlend mode="normal" in2="effect3_dropShadow_1484_7378" result="effect4_dropShadow_1484_7378"/>
<feColorMatrix in="SourceAlpha" type="matrix" values="0 0 0 0 0 0 0 0 0 0 0 0 0 0 0 0 0 0 127 0" result="hardAlpha"/>
<feOffset dy="64.8148"/>
<feGaussianBlur stdDeviation="23.4259"/>
<feColorMatrix type="matrix" values="0 0 0 0 0.588235 0 0 0 0 0.447059 0 0 0 0 1 0 0 0 0.0531481 0"/>
<feBlend mode="normal" in2="effect4_dropShadow_1484_7378" result="effect5_dropShadow_1484_7378"/>
<feColorMatrix in="SourceAlpha" type="matrix" values="0 0 0 0 0 0 0 0 0 0 0 0 0 0 0 0 0 0 127 0" result="hardAlpha"/>
<feOffset dy="100"/>
<feGaussianBlur stdDeviation="40"/>
<feColorMatrix type="matrix" values="0 0 0 0 0.588235 0 0 0 0 0.447059 0 0 0 0 1 0 0 0 0.07 0"/>
<feBlend mode="normal" in2="effect5_dropShadow_1484_7378" result="effect6_dropShadow_1484_7378"/>
<feBlend mode="normal" in="SourceGraphic" in2="effect6_dropShadow_1484_7378" result="shape"/>
</filter>
</defs>
</svg>
