<svg width="40" height="40" viewBox="0 0 40 40" fill="none" xmlns="http://www.w3.org/2000/svg">
<circle opacity="0.15" cx="20" cy="20" r="20" fill="white"/>
<path d="M31.6654 13.0854C30.7915 13.4719 29.8648 13.7258 28.9159 13.8386C29.9161 13.2404 30.6646 12.299 31.0221 11.1898C30.0835 11.7484 29.0544 12.1399 27.9818 12.3516C27.2614 11.5808 26.3064 11.0695 25.2654 10.8974C24.2244 10.7253 23.1558 10.9019 22.2255 11.3998C21.2952 11.8977 20.5555 12.6889 20.1214 13.6506C19.6872 14.6123 19.583 15.6904 19.8248 16.7175C17.9213 16.6221 16.0591 16.1274 14.3592 15.2656C12.6593 14.4038 11.1596 13.1942 9.95756 11.7152C9.53207 12.446 9.30848 13.2768 9.30967 14.1225C9.30967 15.7823 10.1545 17.2486 11.4388 18.1071C10.6787 18.0832 9.9354 17.8779 9.27075 17.5084V17.568C9.27098 18.6734 9.6535 19.7447 10.3535 20.6003C11.0534 21.4559 12.0277 22.0431 13.1112 22.2623C12.4056 22.4535 11.6658 22.4817 10.9477 22.3448C11.2532 23.2963 11.8486 24.1284 12.6506 24.7247C13.4525 25.321 14.4209 25.6515 15.42 25.6701C14.427 26.45 13.29 27.0265 12.074 27.3667C10.858 27.7069 9.58683 27.8041 8.33325 27.6527C10.5216 29.06 13.0689 29.8071 15.6707 29.8047C24.4768 29.8047 29.2925 22.5096 29.2925 16.1829C29.2925 15.9769 29.2868 15.7685 29.2776 15.5648C30.215 14.8873 31.024 14.0481 31.6666 13.0865L31.6654 13.0854Z" fill="white"/>
</svg>
