<svg width="201" height="128" viewBox="0 0 201 128" fill="none" xmlns="http://www.w3.org/2000/svg">
<rect x="4.90259" y="4" width="191.861" height="120" rx="6" fill="#F9FBFF" stroke="white" stroke-width="8"/>
<path fill-rule="evenodd" clip-rule="evenodd" d="M45.2588 110.838V71.1415C43.1481 71.9537 41.1745 71.9721 39.5339 71.413C38.2532 70.9793 37.1713 70.2027 36.3791 69.2023C35.5847 68.2008 35.08 66.9819 34.9266 65.6387C34.692 63.5546 35.3146 61.2001 37.0903 58.9894C37.18 58.8823 37.2794 58.7731 37.3972 58.6823L88.8402 18.498C89.5071 17.8847 90.536 17.822 91.2741 18.3985L122.503 42.6929C117.513 44.8538 113.287 48.3655 110.761 53.2378C101.678 45.9559 92.3592 38.5961 90.4636 37.1198C86.3252 40.2692 50.3082 68.0202 50.3082 69.1915V110.855L45.2588 110.838ZM124.172 95.9086C127.382 105.361 140.792 105.706 143.802 95.9086C147.352 99.1023 157.85 99.7458 161.761 101.925C162.996 102.617 164.114 103.496 165.008 104.681C165.882 105.833 167.175 108.397 167.685 110.856H100.29C100.8 108.397 102.094 105.833 102.967 104.681C103.866 103.496 104.98 102.617 106.215 101.925C110.125 99.7458 120.624 99.1023 124.172 95.9086ZM121.715 76.3242C121.041 76.3523 120.536 76.4897 120.185 76.7254C119.987 76.8574 119.839 77.0272 119.747 77.2305C119.642 77.4566 119.593 77.7302 119.604 78.0428C119.631 78.9664 120.114 80.1734 121.052 81.5675L121.063 81.5902L124.096 86.4203C125.314 88.3584 126.593 90.3333 128.177 91.7825C129.701 93.1777 131.551 94.1219 133.996 94.1262C136.646 94.1316 138.582 93.1507 140.156 91.6787C141.791 90.1462 143.086 88.0448 144.352 85.9477L147.771 80.3096C148.406 78.855 148.642 77.8794 148.494 77.3084C148.406 76.9677 148.034 76.8033 147.39 76.7709C147.254 76.7644 147.117 76.759 146.974 76.7644C146.82 76.7709 146.661 76.7817 146.497 76.7925C146.404 76.7979 146.317 76.7925 146.234 76.7752C145.932 76.7925 145.615 76.7698 145.296 76.7254L146.47 71.5384C137.781 72.912 131.282 66.4509 122.094 70.2492L122.757 76.3631C122.39 76.3848 122.04 76.375 121.715 76.3242ZM148.564 75.2319C149.402 75.4893 149.945 76.0225 150.165 76.8898C150.412 77.8459 150.142 79.1957 149.332 81.0397C149.315 81.0721 149.299 81.1067 149.282 81.1381L145.821 86.841C144.489 89.0354 143.134 91.2428 141.329 92.9333C139.46 94.6843 137.155 95.8545 134.001 95.8426C131.056 95.8372 128.841 94.7113 127.024 93.049C125.27 91.4418 123.927 89.3653 122.647 87.3342L119.609 82.5041C118.501 80.8472 117.919 79.3319 117.886 78.0914C117.869 77.5042 117.967 76.9774 118.181 76.5113C118.406 76.0224 118.757 75.6169 119.224 75.2978C119.443 75.1497 119.69 75.0231 119.959 74.9247C119.761 72.3063 119.69 69.0012 119.816 66.2411C119.883 65.5878 120.009 64.9292 120.189 64.277C120.963 61.5051 122.911 59.2717 125.318 57.7348C126.646 56.8891 128.099 56.2477 129.618 55.8194C130.579 55.5458 128.796 52.4602 129.794 52.3618C134.616 51.8686 142.41 56.2704 145.778 59.9152C147.462 61.743 148.52 64.157 148.75 67.3572L148.564 75.2319ZM98.1403 76.5849C97.4984 76.9342 96.6975 76.6973 96.3517 76.0592C96.0026 75.4157 96.2393 74.6143 96.8812 74.2704C99.9161 72.6221 101.33 70.4915 101.614 68.4063C101.766 67.2945 101.592 66.1762 101.175 65.1412C100.747 64.0932 100.072 63.1403 99.2146 62.3724C97.5459 60.881 95.2049 60.0947 92.7602 60.7036C91.7691 60.9502 90.9121 61.4456 90.1609 62.1453C89.3633 62.8873 88.6749 63.8574 88.0707 65.0038C87.7303 65.6516 86.9326 65.8972 86.2917 65.5608C85.6444 65.2212 85.399 64.4219 85.7351 63.7806C86.4766 62.3735 87.3433 61.1665 88.369 60.2083C89.4433 59.2122 90.6884 58.4962 92.1366 58.1372C95.4989 57.3044 98.7024 58.3665 100.977 60.4019C102.134 61.4369 103.05 62.7272 103.63 64.1505C104.211 65.5868 104.449 67.1658 104.229 68.7654C103.835 71.6206 102.006 74.4845 98.1403 76.5849ZM88.0275 87.0119C83.0289 80.2902 82.9067 73.9232 88.9764 68.0061L84.6057 65.59C81.1051 64.2284 74.6831 74.2736 77.1646 76.958L80.5701 82.0131L79.8676 83.4796C79.6741 83.9144 79.8633 84.2205 80.3377 84.4324L80.7992 84.5568L71.9411 102.1L73.7341 105.927L77.3213 104.869L78.2443 103.076L77.3613 101.419L79.3088 101L79.7627 100.121L78.7447 98.567L79.4137 97.2691L81.358 97.0226L81.9902 95.7939L80.904 94.3739L81.599 93.0285L83.5801 92.7051L86.2799 87.5505L86.737 87.8003C87.5271 88.2838 87.9367 87.9723 88.0275 87.0119ZM97.4378 91.2245L96.1182 96.1519L94.2863 96.8765L93.9026 98.3117L95.2384 99.4463L94.8904 100.754L93.0801 101.393L92.7094 102.772L94.0064 104.045L93.7567 104.982L91.9767 105.787L93.1666 107.19L92.6532 109.101L89.4422 110.856L86.9326 107.565L91.7173 89.6952L90.5587 89.3837C90.322 89.3199 90.175 89.0744 90.2398 88.831L90.7262 87.0162C87.218 84.3535 85.4801 79.7472 86.6873 75.2319C88.2393 69.4305 94.0939 65.9264 99.8955 67.2307C99.9215 67.5411 99.9172 67.8558 99.8739 68.1705C99.7648 68.9557 99.4243 69.7626 98.7953 70.5423C98.7099 70.6472 98.6191 70.7532 98.5251 70.8581C96.6716 70.7381 94.9347 71.9353 94.4343 73.7999C94.2182 74.6024 94.2657 75.4125 94.5197 76.1425C94.5813 76.401 94.6797 76.6519 94.8105 76.8963C95.1152 77.4587 95.5648 77.8838 96.0901 78.1563C96.4349 78.3856 96.8229 78.5565 97.2411 78.6744C99.3227 79.2303 101.456 78.0319 102.077 75.9835C102.707 75.4265 103.254 74.8393 103.724 74.2358C104.637 73.058 105.262 71.8077 105.633 70.5358C108.151 73.2527 109.258 77.1656 108.228 81.0137C107.021 85.5291 103.206 88.6526 98.8428 89.1998L98.3565 91.0157C98.2927 91.2537 98.0452 91.3997 97.8042 91.3359L97.4378 91.2245ZM119.413 21.205L134.892 21.8366V40.2562L134.216 40.2476V40.2919C133.266 40.293 132.311 40.3384 131.361 40.4271L119.413 32.5362V21.205Z" fill="#0F2F66"/>
</svg>
