<svg width="201" height="128" viewBox="0 0 201 128" fill="none" xmlns="http://www.w3.org/2000/svg">
<rect x="4.49219" y="4" width="191.861" height="120" rx="6" fill="#F9FBFF" stroke="white" stroke-width="8"/>
<path d="M147.678 110.501L130.677 97.9259L65.4696 97.8889C58.2957 97.8889 52.4561 93.009 52.4561 87.0087V28.8802C52.4561 22.881 58.2945 18 65.4709 18H134.662C141.838 18 147.678 22.881 147.678 28.8802V110.501ZM122.944 86.4301L135.796 96.3585L142.817 101.524V28.8802C142.817 25.1123 139.158 22.0464 134.662 22.0464H65.4709C60.9742 22.0464 57.3156 25.1123 57.3156 28.8802V87.0087C57.3156 90.7766 60.9742 93.8425 65.4709 93.8425L125.425 93.8764L119.633 89.3942L122.944 86.4301Z" fill="#0F2F66"/>
<path d="M87.4423 51.619C89.9046 51.619 91.9007 49.1939 91.9007 46.2025C91.9007 43.2111 89.9046 40.7861 87.4423 40.7861C84.98 40.7861 82.9839 43.2111 82.9839 46.2025C82.9839 49.1939 84.98 51.619 87.4423 51.619Z" fill="#0F2F66"/>
<path d="M112.684 51.619C115.146 51.619 117.142 49.1939 117.142 46.2025C117.142 43.2111 115.146 40.7861 112.684 40.7861C110.222 40.7861 108.226 43.2111 108.226 46.2025C108.226 49.1939 110.222 51.619 112.684 51.619Z" fill="#0F2F66"/>
<path d="M100.067 80.0486C87.7361 80.0486 77.211 72.372 75.5853 62.1938L75.2188 59.9039H124.913L124.549 62.1949C122.923 72.3741 112.398 80.0486 100.067 80.0486ZM80.9695 63.9514C83.3407 70.9609 91.1108 76.0022 100.067 76.0022C109.022 76.0022 116.792 70.9609 119.165 63.9514H80.9695Z" fill="#0F2F66"/>
</svg>
